STARTFONT 2.1
COMMENT
COMMENT Converted from OpenType font "ipaexm.ttf" by "..\otf2bdf.exe 3.0".
COMMENT
FONT -FreeType-IPAexMincho-Medium-R-Normal--24-240-72-72-P-210-ISO10646-1
SIZE 24 72 72
FONTBOUNDINGBOX 31 29 -6 -7
STARTPROPERTIES 19
FOUNDRY "FreeType"
FAMILY_NAME "IPAexMincho"
WEIGHT_NAME "Medium"
SLANT "R"
SETWIDTH_NAME "Normal"
ADD_STYLE_NAME ""
PIXEL_SIZE 24
POINT_SIZE 240
RESOLUTION_X 72
RESOLUTION_Y 72
SPACING "P"
AVERAGE_WIDTH 210
CHARSET_REGISTRY "ISO10646"
CHARSET_ENCODING "1"
FONT_ASCENT 21
FONT_DESCENT 2
COPYRIGHT "Copyright(c) Information-technology Promotion Agency, Japan (IPA), 2003-2019. You must accept "https://opensource.org/licenses/IPA/" to use this product."
_OTF_FONTFILE "ipaexm.ttf"
_OTF_PSNAME "IPAexMincho"
ENDPROPERTIES
CHARS 11691
STARTCHAR 0020
ENCODING 32
SWIDTH 291 0
DWIDTH 7 0
BBX 0 0 0 0
BITMAP
ENDCHAR
STARTCHAR 0021
ENCODING 33
SWIDTH 291 0
DWIDTH 7 0
BBX 3 17 2 0
BITMAP
40
40
40
40
40
40
40
40
40
40
40
40
00
00
E0
E0
E0
ENDCHAR
STARTCHAR 0022
ENCODING 34
SWIDTH 333 0
DWIDTH 8 0
BBX 5 6 2 11
BITMAP
D8
D8
D8
D8
98
98
ENDCHAR
STARTCHAR 0023
ENCODING 35
SWIDTH 625 0
DWIDTH 15 0
BBX 13 17 1 0
BITMAP
0460
0460
0440
0C40
0C40
7FF8
08C0
0880
1880
1880
FFF0
1180
1180
1100
3100
3100
2100
ENDCHAR
STARTCHAR 0024
ENCODING 36
SWIDTH 625 0
DWIDTH 15 0
BBX 11 20 2 -1
BITMAP
0400
0400
3F80
4440
84C0
84C0
8400
C400
7C00
1E00
0780
04C0
0460
0460
C460
C460
C4C0
3F80
0400
0400
ENDCHAR
STARTCHAR 0025
ENCODING 37
SWIDTH 791 0
DWIDTH 19 0
BBX 17 17 1 0
BITMAP
380600
440400
820800
821800
821000
822000
824000
44C000
388E00
011100
032080
022080
042080
082080
082080
101100
200E00
ENDCHAR
STARTCHAR 0026
ENCODING 38
SWIDTH 708 0
DWIDTH 17 0
BBX 15 17 2 0
BITMAP
0F00
10C0
2040
2040
2040
3080
1F00
087E
3C08
6608
C310
C190
C0D0
C0E0
E070
70B8
1F1E
ENDCHAR
STARTCHAR 0027
ENCODING 39
SWIDTH 208 0
DWIDTH 5 0
BBX 2 6 2 11
BITMAP
C0
C0
C0
C0
80
80
ENDCHAR
STARTCHAR 0028
ENCODING 40
SWIDTH 375 0
DWIDTH 9 0
BBX 5 23 2 -5
BITMAP
08
10
30
20
60
60
60
C0
C0
C0
C0
C0
C0
C0
C0
C0
60
60
60
20
30
10
08
ENDCHAR
STARTCHAR 0029
ENCODING 41
SWIDTH 375 0
DWIDTH 9 0
BBX 5 23 2 -5
BITMAP
80
C0
40
60
20
30
30
18
18
18
18
18
18
18
18
18
30
30
20
60
40
C0
80
ENDCHAR
STARTCHAR 002A
ENCODING 42
SWIDTH 250 0
DWIDTH 6 0
BBX 6 6 0 11
BITMAP
30
BC
78
78
B4
30
ENDCHAR
STARTCHAR 002B
ENCODING 43
SWIDTH 666 0
DWIDTH 16 0
BBX 13 13 2 0
BITMAP
0200
0200
0200
0200
0200
0200
FFF8
0200
0200
0200
0200
0200
0200
ENDCHAR
STARTCHAR 002C
ENCODING 44
SWIDTH 250 0
DWIDTH 6 0
BBX 3 6 1 -3
BITMAP
60
60
60
20
40
80
ENDCHAR
STARTCHAR 002D
ENCODING 45
SWIDTH 291 0
DWIDTH 7 0
BBX 5 1 1 7
BITMAP
F8
ENDCHAR
STARTCHAR 002E
ENCODING 46
SWIDTH 250 0
DWIDTH 6 0
BBX 3 3 2 0
BITMAP
E0
E0
E0
ENDCHAR
STARTCHAR 002F
ENCODING 47
SWIDTH 500 0
DWIDTH 12 0
BBX 8 21 2 -4
BITMAP
01
01
03
02
02
04
04
0C
08
08
18
10
10
20
20
60
40
40
80
80
80
ENDCHAR
STARTCHAR 0030
ENCODING 48
SWIDTH 625 0
DWIDTH 15 0
BBX 11 17 2 0
BITMAP
1F00
3180
60C0
60C0
C060
C060
C060
C060
C060
C060
C060
C060
4040
60C0
60C0
3180
1F00
ENDCHAR
STARTCHAR 0031
ENCODING 49
SWIDTH 625 0
DWIDTH 15 0
BBX 9 17 3 0
BITMAP
0800
F800
1800
0800
0800
0800
0800
0800
0800
0800
0800
0800
0800
0800
0800
0C00
FF80
ENDCHAR
STARTCHAR 0032
ENCODING 50
SWIDTH 625 0
DWIDTH 15 0
BBX 11 17 2 0
BITMAP
1F00
61C0
C060
E060
E060
0060
00C0
0180
0300
0600
0800
1000
2020
4020
8060
FFE0
FFE0
ENDCHAR
STARTCHAR 0033
ENCODING 51
SWIDTH 625 0
DWIDTH 15 0
BBX 11 17 2 0
BITMAP
3F00
4180
E0C0
E0C0
00C0
00C0
0180
1E00
0380
00C0
0060
0060
C060
C060
80C0
4180
3F00
ENDCHAR
STARTCHAR 0034
ENCODING 52
SWIDTH 625 0
DWIDTH 15 0
BBX 13 17 1 0
BITMAP
00C0
00C0
01C0
02C0
04C0
04C0
08C0
10C0
20C0
40C0
40C0
FFF8
00C0
00C0
00C0
00C0
03F0
ENDCHAR
STARTCHAR 0035
ENCODING 53
SWIDTH 625 0
DWIDTH 15 0
BBX 11 17 2 0
BITMAP
7FC0
7FC0
4000
4000
4000
4000
4F00
7180
40C0
4060
0060
0060
E060
E060
E0C0
6180
1F00
ENDCHAR
STARTCHAR 0036
ENCODING 54
SWIDTH 625 0
DWIDTH 15 0
BBX 11 17 2 0
BITMAP
0F80
1840
20E0
60E0
4000
C000
CF00
D1C0
E0C0
C060
C060
C060
C060
4060
60C0
31C0
1F00
ENDCHAR
STARTCHAR 0037
ENCODING 55
SWIDTH 625 0
DWIDTH 15 0
BBX 12 17 2 0
BITMAP
7FF0
7FF0
4020
C040
8040
0080
0080
0100
0100
0200
0200
0600
0600
0C00
0C00
0C00
0C00
ENDCHAR
STARTCHAR 0038
ENCODING 56
SWIDTH 625 0
DWIDTH 15 0
BBX 11 17 2 0
BITMAP
1F00
70C0
C020
C020
C020
E040
7880
1F00
1300
6080
4040
C060
C060
C060
E0E0
71C0
1F00
ENDCHAR
STARTCHAR 0039
ENCODING 57
SWIDTH 625 0
DWIDTH 15 0
BBX 11 17 2 0
BITMAP
1F00
3180
60C0
C040
C060
C060
C060
C060
60E0
7160
1E60
0060
0040
E0C0
E080
4300
3E00
ENDCHAR
STARTCHAR 003A
ENCODING 58
SWIDTH 291 0
DWIDTH 7 0
BBX 3 12 2 0
BITMAP
E0
E0
E0
00
00
00
00
00
00
E0
E0
E0
ENDCHAR
STARTCHAR 003B
ENCODING 59
SWIDTH 291 0
DWIDTH 7 0
BBX 3 15 2 -3
BITMAP
E0
E0
E0
00
00
00
00
00
00
E0
E0
60
60
C0
80
ENDCHAR
STARTCHAR 003C
ENCODING 60
SWIDTH 666 0
DWIDTH 16 0
BBX 12 13 2 2
BITMAP
0010
0070
0180
0600
1800
6000
8000
6000
1C00
0700
01C0
0070
0010
ENDCHAR
STARTCHAR 003D
ENCODING 61
SWIDTH 666 0
DWIDTH 16 0
BBX 13 5 2 5
BITMAP
FFF8
0000
0000
0000
FFF8
ENDCHAR
STARTCHAR 003E
ENCODING 62
SWIDTH 666 0
DWIDTH 16 0
BBX 13 13 2 2
BITMAP
8000
6000
1800
0700
01C0
0070
0018
0060
0180
0E00
3800
E000
8000
ENDCHAR
STARTCHAR 003F
ENCODING 63
SWIDTH 500 0
DWIDTH 12 0
BBX 10 17 1 0
BITMAP
3E00
6180
C0C0
C0C0
E0C0
00C0
0180
0300
0600
0C00
0800
0800
0000
0000
1C00
1C00
1C00
ENDCHAR
STARTCHAR 0040
ENCODING 64
SWIDTH 916 0
DWIDTH 22 0
BBX 18 17 2 0
BITMAP
03F800
0E0600
180100
30FC80
619880
631840
C61840
C61040
CC3040
CC3040
CC2080
CC6100
6CE200
673C00
300000
1C0600
07F800
ENDCHAR
STARTCHAR 0041
ENCODING 65
SWIDTH 708 0
DWIDTH 17 0
BBX 18 17 0 0
BITMAP
008000
00C000
014000
014000
016000
022000
023000
041000
041800
041800
0FF800
080C00
180C00
100600
100600
300700
FC1FC0
ENDCHAR
STARTCHAR 0042
ENCODING 66
SWIDTH 708 0
DWIDTH 17 0
BBX 14 17 2 0
BITMAP
FFC0
3030
3018
3018
3018
3018
3070
3F80
3070
3018
300C
300C
300C
300C
3018
3038
FFE0
ENDCHAR
STARTCHAR 0043
ENCODING 67
SWIDTH 750 0
DWIDTH 18 0
BBX 15 17 1 0
BITMAP
07F2
1C1E
3006
6002
6002
C000
C000
C000
C000
C000
C000
C000
6002
7002
3004
1C18
07E0
ENDCHAR
STARTCHAR 0044
ENCODING 68
SWIDTH 791 0
DWIDTH 19 0
BBX 16 17 2 0
BITMAP
FFE0
3018
300C
3006
3006
3003
3003
3003
3003
3003
3003
3003
3006
3006
300C
3018
FFE0
ENDCHAR
STARTCHAR 0045
ENCODING 69
SWIDTH 708 0
DWIDTH 17 0
BBX 13 17 2 0
BITMAP
FFF8
3018
3008
3008
3008
3080
3080
3080
3F80
3080
3080
3000
3008
3008
3008
3018
FFF8
ENDCHAR
STARTCHAR 0046
ENCODING 70
SWIDTH 625 0
DWIDTH 15 0
BBX 13 17 2 0
BITMAP
FFF8
3018
3008
3008
3008
3080
3080
3080
3F80
3080
3080
3000
3000
3000
3000
3000
FC00
ENDCHAR
STARTCHAR 0047
ENCODING 71
SWIDTH 791 0
DWIDTH 19 0
BBX 17 17 1 0
BITMAP
07F200
1C1E00
300600
600200
600200
C00000
C00000
C00000
C00000
C01F80
C00600
C00600
600600
700600
300600
1C1E00
07F200
ENDCHAR
STARTCHAR 0048
ENCODING 72
SWIDTH 833 0
DWIDTH 20 0
BBX 17 17 2 0
BITMAP
FC3F80
300C00
300C00
300C00
300C00
300C00
300C00
300C00
3FFC00
300C00
300C00
300C00
300C00
300C00
300C00
300C00
FC3F80
ENDCHAR
STARTCHAR 0049
ENCODING 73
SWIDTH 375 0
DWIDTH 9 0
BBX 6 17 2 0
BITMAP
FC
30
30
30
30
30
30
30
30
30
30
30
30
30
30
30
FC
ENDCHAR
STARTCHAR 004A
ENCODING 74
SWIDTH 458 0
DWIDTH 11 0
BBX 10 17 0 0
BITMAP
1FC0
0300
0300
0300
0300
0300
0300
0300
0300
0300
0300
0300
0300
C300
C300
C600
3C00
ENDCHAR
STARTCHAR 004B
ENCODING 75
SWIDTH 708 0
DWIDTH 17 0
BBX 17 17 1 0
BITMAP
FF3F00
180C00
181800
183000
186000
18C000
198000
1B0000
1D8000
18C000
18E000
186000
183000
181800
181C00
180E00
7F1F80
ENDCHAR
STARTCHAR 004C
ENCODING 76
SWIDTH 625 0
DWIDTH 15 0
BBX 14 17 1 0
BITMAP
FE00
1800
1800
1800
1800
1800
1800
1800
1800
1800
1800
1800
1804
1804
1804
180C
7FFC
ENDCHAR
STARTCHAR 004D
ENCODING 77
SWIDTH 958 0
DWIDTH 23 0
BBX 21 17 0 0
BITMAP
FC00F8
1C00E0
140160
160160
160160
120260
130260
130660
118460
118460
108860
10C860
10C860
105060
107060
102060
7C21F8
ENDCHAR
STARTCHAR 004E
ENCODING 78
SWIDTH 833 0
DWIDTH 20 0
BBX 19 17 0 -1
BITMAP
F807E0
1C0080
160080
170080
130080
118080
10C080
10E080
106080
103080
101880
100C80
100E80
100680
100380
100180
7E0080
ENDCHAR
STARTCHAR 004F
ENCODING 79
SWIDTH 791 0
DWIDTH 19 0
BBX 17 17 1 0
BITMAP
07E000
1C1800
300600
600300
600300
C00180
C00180
C00180
C00180
C00180
C00180
C00180
600300
600300
300600
1C1C00
07F000
ENDCHAR
STARTCHAR 0050
ENCODING 80
SWIDTH 625 0
DWIDTH 15 0
BBX 14 17 2 0
BITMAP
FFE0
3038
301C
300C
300C
300C
301C
3038
3FE0
3000
3000
3000
3000
3000
3000
3000
FE00
ENDCHAR
STARTCHAR 0051
ENCODING 81
SWIDTH 791 0
DWIDTH 19 0
BBX 18 20 1 -3
BITMAP
07F000
1C1800
300600
700600
600300
E00300
C00180
C00180
C00180
C00180
C00180
C00180
63C300
646300
343600
1E1C00
07F800
000C40
000640
000380
ENDCHAR
STARTCHAR 0052
ENCODING 82
SWIDTH 708 0
DWIDTH 17 0
BBX 16 17 2 0
BITMAP
FFE0
3038
301C
300C
300C
300C
3018
3030
3FC0
30C0
3060
3060
3030
3010
3018
300C
FE0F
ENDCHAR
STARTCHAR 0053
ENCODING 83
SWIDTH 625 0
DWIDTH 15 0
BBX 12 17 2 1
BITMAP
1F20
70E0
C060
C020
C020
C000
7000
3C00
0F80
01C0
0060
8030
8030
8030
C070
F0E0
9F80
ENDCHAR
STARTCHAR 0054
ENCODING 84
SWIDTH 625 0
DWIDTH 15 0
BBX 16 17 0 0
BITMAP
7FFE
6182
4182
8181
0180
0180
0180
0180
0180
0180
0180
0180
0180
0180
0180
0180
0FF0
ENDCHAR
STARTCHAR 0055
ENCODING 85
SWIDTH 791 0
DWIDTH 19 0
BBX 18 17 0 0
BITMAP
FE07C0
180100
180100
180100
180100
180100
180100
180100
180100
180100
180100
180100
180100
1C0200
0C0200
070C00
03F800
ENDCHAR
STARTCHAR 0056
ENCODING 86
SWIDTH 708 0
DWIDTH 17 0
BBX 17 17 0 0
BITMAP
FC0F80
300200
100200
180400
180400
080400
0C0800
040800
061000
061000
021000
032000
032000
014000
01C000
00C000
008000
ENDCHAR
STARTCHAR 0057
ENCODING 87
SWIDTH 958 0
DWIDTH 23 0
BBX 23 17 0 0
BITMAP
FC7E3E
301808
301808
101810
181C10
181C10
082C10
0C2420
0C2620
044620
064240
064240
028340
028380
038180
030180
010100
ENDCHAR
STARTCHAR 0058
ENCODING 88
SWIDTH 708 0
DWIDTH 17 0
BBX 17 17 0 0
BITMAP
FE1F80
380600
180C00
0C0800
061000
033000
036000
01C000
00C000
016000
036000
063000
041800
080800
180C00
300600
FC1F80
ENDCHAR
STARTCHAR 0059
ENCODING 89
SWIDTH 666 0
DWIDTH 16 0
BBX 17 17 -1 0
BITMAP
FE1F80
180200
180200
0C0400
060800
060800
031000
033000
01A000
00C000
00C000
00C000
00C000
00C000
00C000
00C000
07F800
ENDCHAR
STARTCHAR 005A
ENCODING 90
SWIDTH 625 0
DWIDTH 15 0
BBX 13 17 1 -1
BITMAP
7FF8
E030
C030
8060
80C0
0180
0180
0300
0600
0E00
0C00
1800
3008
3008
6008
C018
FFF8
ENDCHAR
STARTCHAR 005B
ENCODING 91
SWIDTH 333 0
DWIDTH 8 0
BBX 5 23 3 -5
BITMAP
F8
C0
C0
C0
C0
C0
C0
C0
C0
C0
C0
C0
C0
C0
C0
C0
C0
C0
C0
C0
C0
C0
F8
ENDCHAR
STARTCHAR 005C
ENCODING 92
SWIDTH 500 0
DWIDTH 12 0
BBX 8 21 2 -4
BITMAP
80
80
40
40
40
20
20
30
10
10
08
08
08
04
04
06
02
02
01
01
01
ENDCHAR
STARTCHAR 005D
ENCODING 93
SWIDTH 333 0
DWIDTH 8 0
BBX 5 23 0 -5
BITMAP
F8
18
18
18
18
18
18
18
18
18
18
18
18
18
18
18
18
18
18
18
18
18
F8
ENDCHAR
STARTCHAR 005E
ENCODING 94
SWIDTH 500 0
DWIDTH 12 0
BBX 10 6 1 8
BITMAP
0C00
1200
3300
6180
C080
8040
ENDCHAR
STARTCHAR 005F
ENCODING 95
SWIDTH 500 0
DWIDTH 12 0
BBX 12 1 0 -3
BITMAP
FFF0
ENDCHAR
STARTCHAR 0060
ENCODING 96
SWIDTH 500 0
DWIDTH 12 0
BBX 4 4 3 14
BITMAP
40
E0
20
10
ENDCHAR
STARTCHAR 0061
ENCODING 97
SWIDTH 541 0
DWIDTH 13 0
BBX 12 12 1 0
BITMAP
1F00
2180
60C0
60C0
00C0
3FC0
60C0
C0C0
C0C0
C0C0
63C0
3E70
ENDCHAR
STARTCHAR 0062
ENCODING 98
SWIDTH 583 0
DWIDTH 14 0
BBX 13 18 0 -1
BITMAP
3000
F000
3000
3000
3000
3000
33C0
3C60
3830
3018
3018
3018
3018
3018
3018
3830
3C60
23C0
ENDCHAR
STARTCHAR 0063
ENCODING 99
SWIDTH 541 0
DWIDTH 13 0
BBX 11 12 1 0
BITMAP
1F00
3080
60C0
E0C0
C000
C000
C000
C000
C000
6020
30C0
1F00
ENDCHAR
STARTCHAR 0064
ENCODING 100
SWIDTH 625 0
DWIDTH 15 0
BBX 13 18 1 0
BITMAP
0060
01E0
0060
0060
0060
0060
1E60
31E0
6060
C060
C060
C060
C060
C060
C060
60E0
3160
1E78
ENDCHAR
STARTCHAR 0065
ENCODING 101
SWIDTH 541 0
DWIDTH 13 0
BBX 11 12 1 0
BITMAP
1F00
30C0
6040
C060
C060
FFE0
C000
C000
C000
6020
3040
1F80
ENDCHAR
STARTCHAR 0066
ENCODING 102
SWIDTH 333 0
DWIDTH 8 0
BBX 9 17 1 0
BITMAP
0F00
1980
3000
3000
3000
FE00
3000
3000
3000
3000
3000
3000
3000
3000
3000
3000
FC00
ENDCHAR
STARTCHAR 0067
ENCODING 103
SWIDTH 541 0
DWIDTH 13 0
BBX 12 19 1 -5
BITMAP
0070
00F0
1F80
3080
6040
6040
6040
6040
3080
6F00
4000
7000
1F80
60C0
C060
C060
C060
60C0
3F00
ENDCHAR
STARTCHAR 0068
ENCODING 104
SWIDTH 625 0
DWIDTH 15 0
BBX 13 18 1 0
BITMAP
3000
F000
3000
3000
3000
3000
3380
3CC0
3860
3060
3060
3060
3060
3060
3060
3060
3060
FDF8
ENDCHAR
STARTCHAR 0069
ENCODING 105
SWIDTH 291 0
DWIDTH 7 0
BBX 6 17 1 0
BITMAP
30
30
00
00
00
F0
30
30
30
30
30
30
30
30
30
30
FC
ENDCHAR
STARTCHAR 006A
ENCODING 106
SWIDTH 291 0
DWIDTH 7 0
BBX 6 22 -1 -5
BITMAP
0C
0C
00
00
00
3C
0C
0C
0C
0C
0C
0C
0C
0C
0C
0C
0C
0C
0C
CC
D8
78
ENDCHAR
STARTCHAR 006B
ENCODING 107
SWIDTH 583 0
DWIDTH 14 0
BBX 13 18 1 0
BITMAP
3000
F000
3000
3000
3000
3000
31F8
3060
3080
3100
3200
3E00
3300
3180
30C0
30C0
3060
FCF8
ENDCHAR
STARTCHAR 006C
ENCODING 108
SWIDTH 291 0
DWIDTH 7 0
BBX 6 17 1 1
BITMAP
F0
30
30
30
30
30
30
30
30
30
30
30
30
30
30
30
FC
ENDCHAR
STARTCHAR 006D
ENCODING 109
SWIDTH 916 0
DWIDTH 22 0
BBX 20 12 1 0
BITMAP
F38F00
3CD180
3870C0
3060C0
3060C0
3060C0
3060C0
3060C0
3060C0
3060C0
3060C0
FDFBF0
ENDCHAR
STARTCHAR 006E
ENCODING 110
SWIDTH 625 0
DWIDTH 15 0
BBX 14 12 1 0
BITMAP
F3C0
3460
3830
3030
3030
3030
3030
3030
3030
3030
3030
FCFC
ENDCHAR
STARTCHAR 006F
ENCODING 111
SWIDTH 583 0
DWIDTH 14 0
BBX 12 12 1 0
BITMAP
1F80
30C0
6060
C030
C030
C030
C030
C030
C030
6060
30C0
1F80
ENDCHAR
STARTCHAR 0070
ENCODING 112
SWIDTH 625 0
DWIDTH 15 0
BBX 13 16 1 -3
BITMAP
E7C0
3C60
3830
3018
3018
3018
3018
3018
3018
3830
3C60
33C0
3000
3000
3000
FC00
ENDCHAR
STARTCHAR 0071
ENCODING 113
SWIDTH 583 0
DWIDTH 14 0
BBX 13 16 1 -3
BITMAP
1F20
31E0
6060
C060
C060
C060
C060
C060
C060
60E0
3160
1E60
0060
0060
0060
01F8
ENDCHAR
STARTCHAR 0072
ENCODING 114
SWIDTH 416 0
DWIDTH 10 0
BBX 9 12 1 0
BITMAP
F780
3580
3800
3000
3000
3000
3000
3000
3000
3000
3000
FC00
ENDCHAR
STARTCHAR 0073
ENCODING 115
SWIDTH 458 0
DWIDTH 11 0
BBX 10 12 1 0
BITMAP
3F80
4380
8080
8080
C000
3C00
0700
00C0
8040
C040
E080
9F00
ENDCHAR
STARTCHAR 0074
ENCODING 116
SWIDTH 333 0
DWIDTH 8 0
BBX 8 15 0 1
BITMAP
10
10
30
FF
30
30
30
30
30
30
30
30
30
31
1E
ENDCHAR
STARTCHAR 0075
ENCODING 117
SWIDTH 625 0
DWIDTH 15 0
BBX 13 12 1 0
BITMAP
F1E0
3060
3060
3060
3060
3060
3060
3060
3060
30E0
38E0
1F78
ENDCHAR
STARTCHAR 0076
ENCODING 118
SWIDTH 541 0
DWIDTH 13 0
BBX 13 12 0 0
BITMAP
F8F8
3020
3020
1040
1840
1840
0880
0C80
0500
0500
0700
0200
ENDCHAR
STARTCHAR 0077
ENCODING 119
SWIDTH 791 0
DWIDTH 19 0
BBX 19 12 0 0
BITMAP
F9F3E0
204080
204080
306100
10A100
10A100
189200
091200
0D1A00
060C00
060C00
040C00
ENDCHAR
STARTCHAR 0078
ENCODING 120
SWIDTH 500 0
DWIDTH 12 0
BBX 13 12 0 0
BITMAP
F8F0
3040
18C0
0880
0D00
0600
0700
0900
1980
10C0
2060
F9F8
ENDCHAR
STARTCHAR 0079
ENCODING 121
SWIDTH 541 0
DWIDTH 13 0
BBX 13 16 0 -4
BITMAP
F8F8
3020
3020
1040
1840
1840
0C80
0C80
0500
0700
0300
0200
0200
0400
3400
3800
ENDCHAR
STARTCHAR 007A
ENCODING 122
SWIDTH 458 0
DWIDTH 11 0
BBX 9 12 1 0
BITMAP
FF80
C180
8300
8600
0400
0C00
1800
3000
3000
6080
C080
FF80
ENDCHAR
STARTCHAR 007B
ENCODING 123
SWIDTH 333 0
DWIDTH 8 0
BBX 7 23 1 -4
BITMAP
1C
30
30
30
30
30
30
30
30
30
60
C0
30
30
30
30
30
30
30
30
30
30
0E
ENDCHAR
STARTCHAR 007C
ENCODING 124
SWIDTH 208 0
DWIDTH 5 0
BBX 1 22 2 -4
BITMAP
80
80
80
80
80
80
80
80
80
80
80
80
80
80
80
80
80
80
80
80
80
80
ENDCHAR
STARTCHAR 007D
ENCODING 125
SWIDTH 333 0
DWIDTH 8 0
BBX 7 23 1 -4
BITMAP
70
18
18
18
18
18
18
18
18
18
0C
06
18
18
18
18
18
18
18
18
18
18
E0
ENDCHAR
STARTCHAR 007E
ENCODING 126
SWIDTH 500 0
DWIDTH 12 0
BBX 6 3 3 14
BITMAP
60
94
0C
ENDCHAR
STARTCHAR 00A0
ENCODING 160
SWIDTH 291 0
DWIDTH 7 0
BBX 0 0 0 0
BITMAP
ENDCHAR
STARTCHAR 00A1
ENCODING 161
SWIDTH 291 0
DWIDTH 7 0
BBX 3 17 2 0
BITMAP
E0
E0
E0
00
00
40
40
40
40
C0
C0
C0
C0
C0
C0
C0
C0
ENDCHAR
STARTCHAR 00A2
ENCODING 162
SWIDTH 541 0
DWIDTH 13 0
BBX 10 17 2 2
BITMAP
0100
0200
1F00
3280
64C0
C4C0
C400
C400
C800
C800
C800
7040
7080
1F00
2000
2000
2000
ENDCHAR
STARTCHAR 00A3
ENCODING 163
SWIDTH 750 0
DWIDTH 18 0
BBX 14 18 2 0
BITMAP
03E0
0C30
1C38
1838
1800
1800
1800
0C00
7FE0
0400
0600
0600
0200
7E00
8704
87C4
84F8
7838
ENDCHAR
STARTCHAR 00A4
ENCODING 164
SWIDTH 625 0
DWIDTH 15 0
BBX 11 11 2 3
BITMAP
9E60
61C0
4040
8020
8020
8020
8020
8040
4040
60C0
9F00
ENDCHAR
STARTCHAR 00A5
ENCODING 165
SWIDTH 625 0
DWIDTH 15 0
BBX 16 17 0 0
BITMAP
FC3F
300C
1008
0818
0C30
0620
0660
0340
3FFC
0180
0180
3FFC
0180
0180
0180
0180
0FF0
ENDCHAR
STARTCHAR 00A6
ENCODING 166
SWIDTH 208 0
DWIDTH 5 0
BBX 1 22 2 -4
BITMAP
80
80
80
80
80
80
80
80
80
00
00
00
00
80
80
80
80
80
80
80
80
80
ENDCHAR
STARTCHAR 00A7
ENCODING 167
SWIDTH 666 0
DWIDTH 16 0
BBX 10 21 3 -1
BITMAP
1F00
20C0
41C0
41C0
4000
6000
3800
2E00
C300
8080
8040
4040
3040
0E80
0300
0080
E040
E040
E040
6080
1F00
ENDCHAR
STARTCHAR 00A8
ENCODING 168
SWIDTH 500 0
DWIDTH 12 0
BBX 6 2 3 15
BITMAP
CC
CC
ENDCHAR
STARTCHAR 00A9
ENCODING 169
SWIDTH 1000 0
DWIDTH 24 0
BBX 20 19 2 -1
BITMAP
01F800
060600
180180
30FAC0
218660
430220
430220
860010
860010
860010
860010
860010
C20220
430220
618440
30F8C0
180180
060600
01F800
ENDCHAR
STARTCHAR 00AA
ENCODING 170
SWIDTH 416 0
DWIDTH 10 0
BBX 7 10 2 7
BITMAP
78
CC
04
7C
84
84
8C
76
00
FE
ENDCHAR
STARTCHAR 00AB
ENCODING 171
SWIDTH 500 0
DWIDTH 12 0
BBX 8 10 2 3
BITMAP
11
23
62
46
CC
C4
46
22
21
10
ENDCHAR
STARTCHAR 00AC
ENCODING 172
SWIDTH 666 0
DWIDTH 16 0
BBX 12 5 2 3
BITMAP
FFF0
0010
0010
0010
0010
ENDCHAR
STARTCHAR 00AD
ENCODING 173
SWIDTH 666 0
DWIDTH 16 0
BBX 13 1 2 7
BITMAP
FFF8
ENDCHAR
STARTCHAR 00AE
ENCODING 174
SWIDTH 1000 0
DWIDTH 24 0
BBX 19 19 3 -1
BITMAP
01F000
0E0E00
180300
2FF180
621CC0
420C40
820C60
820C20
827820
83E020
823020
821020
C21840
420C40
6F8EC0
200080
180300
0C0E00
03F800
ENDCHAR
STARTCHAR 00AF
ENCODING 175
SWIDTH 500 0
DWIDTH 12 0
BBX 6 1 3 15
BITMAP
FC
ENDCHAR
STARTCHAR 00B0
ENCODING 176
SWIDTH 291 0
DWIDTH 7 0
BBX 5 5 1 15
BITMAP
70
88
88
88
70
ENDCHAR
STARTCHAR 00B1
ENCODING 177
SWIDTH 666 0
DWIDTH 16 0
BBX 13 13 2 2
BITMAP
0200
0200
0200
0200
0200
FFF8
0200
0200
0200
0200
0200
0000
FFF8
ENDCHAR
STARTCHAR 00B2
ENCODING 178
SWIDTH 375 0
DWIDTH 9 0
BBX 6 9 1 8
BITMAP
78
C4
C4
04
08
30
40
44
FC
ENDCHAR
STARTCHAR 00B3
ENCODING 179
SWIDTH 375 0
DWIDTH 9 0
BBX 7 9 1 8
BITMAP
38
44
44
08
1C
C2
C2
C6
7C
ENDCHAR
STARTCHAR 00B4
ENCODING 180
SWIDTH 500 0
DWIDTH 12 0
BBX 4 3 5 15
BITMAP
30
60
80
ENDCHAR
STARTCHAR 00B6
ENCODING 182
SWIDTH 1000 0
DWIDTH 24 0
BBX 10 22 6 -2
BITMAP
3FC0
7840
F840
F840
F840
F840
7840
3840
0840
0840
0840
0840
0840
0840
0840
0840
0840
0840
0840
0840
0840
0840
ENDCHAR
STARTCHAR 00B7
ENCODING 183
SWIDTH 250 0
DWIDTH 6 0
BBX 3 3 2 6
BITMAP
E0
E0
E0
ENDCHAR
STARTCHAR 00B8
ENCODING 184
SWIDTH 500 0
DWIDTH 12 0
BBX 4 6 4 -5
BITMAP
40
E0
10
10
70
80
ENDCHAR
STARTCHAR 00B9
ENCODING 185
SWIDTH 375 0
DWIDTH 9 0
BBX 5 9 2 9
BITMAP
20
60
20
20
20
20
20
20
F8
ENDCHAR
STARTCHAR 00BA
ENCODING 186
SWIDTH 416 0
DWIDTH 10 0
BBX 8 10 1 7
BITMAP
3C
42
81
81
81
81
42
3C
00
FF
ENDCHAR
STARTCHAR 00BB
ENCODING 187
SWIDTH 500 0
DWIDTH 12 0
BBX 8 10 2 3
BITMAP
88
44
46
23
33
23
62
44
84
88
ENDCHAR
STARTCHAR 00BC
ENCODING 188
SWIDTH 750 0
DWIDTH 18 0
BBX 15 17 2 0
BITMAP
E008
2018
2010
2020
2060
2040
2080
F988
0118
0218
0428
0448
0888
10FE
1008
2008
401C
ENDCHAR
STARTCHAR 00BD
ENCODING 189
SWIDTH 750 0
DWIDTH 18 0
BBX 15 17 2 0
BITMAP
E00C
2008
2010
2020
2020
2040
2080
F9BC
0162
0262
0662
0406
0808
1810
1022
2042
407E
ENDCHAR
STARTCHAR 00BE
ENCODING 190
SWIDTH 750 0
DWIDTH 18 0
BBX 16 17 1 0
BITMAP
7804
C40C
C408
0810
1830
C460
C440
7880
018C
010C
0214
0624
0444
087F
1004
3004
200E
ENDCHAR
STARTCHAR 00BF
ENCODING 191
SWIDTH 500 0
DWIDTH 12 0
BBX 10 17 1 0
BITMAP
0E00
0E00
0E00
0000
0400
0400
0400
0C00
1800
3000
6000
C0C0
C0C0
C040
C0C0
7180
1E00
ENDCHAR
STARTCHAR 00C0
ENCODING 192
SWIDTH 708 0
DWIDTH 17 0
BBX 18 22 0 0
BITMAP
020000
070000
018000
000000
000000
008000
00C000
014000
016000
036000
022000
023000
041000
041800
0C1800
0FF800
080C00
100C00
100600
200600
200700
FC1FC0
ENDCHAR
STARTCHAR 00C1
ENCODING 193
SWIDTH 708 0
DWIDTH 17 0
BBX 18 22 0 0
BITMAP
002000
007000
00C000
008000
000000
008000
00C000
014000
016000
036000
022000
023000
041000
041800
0C1800
0FF800
080C00
100C00
100600
200600
200700
FC1FC0
ENDCHAR
STARTCHAR 00C2
ENCODING 194
SWIDTH 708 0
DWIDTH 17 0
BBX 18 22 0 0
BITMAP
008000
01C000
023000
000000
000000
008000
00C000
01C000
016000
036000
022000
023000
041000
041800
0C1800
0FF800
080C00
100C00
100600
200600
200700
FC1FC0
ENDCHAR
STARTCHAR 00C3
ENCODING 195
SWIDTH 708 0
DWIDTH 17 0
BBX 18 21 0 0
BITMAP
038800
047000
000000
000000
008000
00C000
01C000
016000
036000
022000
023000
041000
041800
0C1800
0FF800
080C00
100C00
100600
200600
200700
FC1FC0
ENDCHAR
STARTCHAR 00C4
ENCODING 196
SWIDTH 708 0
DWIDTH 17 0
BBX 18 21 0 0
BITMAP
063000
063000
000000
000000
008000
00C000
01C000
016000
036000
022000
023000
041000
041800
0C1800
0FF800
080C00
100C00
100600
200600
200700
FC1FC0
ENDCHAR
STARTCHAR 00C5
ENCODING 197
SWIDTH 708 0
DWIDTH 17 0
BBX 18 22 0 0
BITMAP
01C000
012000
012000
00C000
000000
008000
00C000
014000
016000
036000
022000
023000
041000
041800
0C1800
0FF800
080C00
100C00
100600
200600
200700
FC1FC0
ENDCHAR
STARTCHAR 00C6
ENCODING 198
SWIDTH 1000 0
DWIDTH 24 0
BBX 22 17 0 0
BITMAP
01FFF8
005808
00580C
009804
009804
011840
011840
031840
03FFC0
061840
041840
0C1800
081804
181804
101804
30180C
FC7FFC
ENDCHAR
STARTCHAR 00C7
ENCODING 199
SWIDTH 750 0
DWIDTH 18 0
BBX 15 24 1 -7
BITMAP
07F2
0C1E
3006
2002
6002
4000
C000
C000
C000
C000
C000
C000
6002
6002
3004
1C1C
0FF0
0180
0100
01C0
0060
0060
03C0
0200
ENDCHAR
STARTCHAR 00C8
ENCODING 200
SWIDTH 708 0
DWIDTH 17 0
BBX 13 22 2 0
BITMAP
0800
0C00
0200
0000
0000
FFF8
3018
3008
3008
3008
3080
3080
3080
3F80
3080
3080
3000
3008
3008
3008
3018
FFF8
ENDCHAR
STARTCHAR 00C9
ENCODING 201
SWIDTH 708 0
DWIDTH 17 0
BBX 13 22 2 0
BITMAP
0080
00C0
0100
0200
0000
FFF8
3018
3008
3008
3008
3080
3080
3080
3F80
3080
3080
3000
3008
3008
3008
3018
FFF8
ENDCHAR
STARTCHAR 00CA
ENCODING 202
SWIDTH 708 0
DWIDTH 17 0
BBX 13 22 2 0
BITMAP
0300
0380
04C0
0000
0000
FFF8
3018
3008
3008
3008
3080
3080
3080
3F80
3080
3080
3000
3008
3008
3008
3018
FFF8
ENDCHAR
STARTCHAR 00CB
ENCODING 203
SWIDTH 708 0
DWIDTH 17 0
BBX 13 21 2 0
BITMAP
0CC0
0CC0
0000
0000
FFF8
3018
3008
3008
3008
3080
3080
3080
3F80
3080
3080
3000
3008
3008
3008
3018
FFF8
ENDCHAR
STARTCHAR 00CC
ENCODING 204
SWIDTH 375 0
DWIDTH 9 0
BBX 6 22 2 0
BITMAP
80
C0
60
00
00
FC
30
30
30
30
30
30
30
30
30
30
30
30
30
30
30
FC
ENDCHAR
STARTCHAR 00CD
ENCODING 205
SWIDTH 375 0
DWIDTH 9 0
BBX 6 22 2 0
BITMAP
04
0C
18
20
00
FC
30
30
30
30
30
30
30
30
30
30
30
30
30
30
30
FC
ENDCHAR
STARTCHAR 00CE
ENCODING 206
SWIDTH 375 0
DWIDTH 9 0
BBX 6 22 2 0
BITMAP
30
78
CC
00
00
FC
30
30
30
30
30
30
30
30
30
30
30
30
30
30
30
FC
ENDCHAR
STARTCHAR 00CF
ENCODING 207
SWIDTH 375 0
DWIDTH 9 0
BBX 8 21 1 0
BITMAP
C3
C3
00
00
7E
18
18
18
18
18
18
18
18
18
18
18
18
18
18
18
7E
ENDCHAR
STARTCHAR 00D0
ENCODING 208
SWIDTH 791 0
DWIDTH 19 0
BBX 16 17 2 0
BITMAP
FFE0
3018
300C
3006
3006
3003
3003
3003
FF03
3003
3003
3003
3006
3006
300C
3018
FFE0
ENDCHAR
STARTCHAR 00D1
ENCODING 209
SWIDTH 833 0
DWIDTH 20 0
BBX 18 21 1 -1
BITMAP
078800
047800
000000
000000
F00FC0
380100
2C0100
2E0100
260100
230100
218100
21C100
20C100
206100
203100
201900
201D00
200D00
200700
200300
FC0100
ENDCHAR
STARTCHAR 00D2
ENCODING 210
SWIDTH 791 0
DWIDTH 19 0
BBX 17 22 1 0
BITMAP
020000
070000
018000
000000
000000
07E000
1C1C00
300600
600200
600300
C00180
C00180
C00180
C00180
C00180
C00180
C00180
600300
600300
300600
1C1C00
07F000
ENDCHAR
STARTCHAR 00D3
ENCODING 211
SWIDTH 791 0
DWIDTH 19 0
BBX 17 22 1 0
BITMAP
002000
007000
00C000
008000
000000
07E000
1C1C00
300600
600200
600300
C00180
C00180
C00180
C00180
C00180
C00180
C00180
600300
600300
300600
1C1C00
07F000
ENDCHAR
STARTCHAR 00D4
ENCODING 212
SWIDTH 791 0
DWIDTH 19 0
BBX 17 22 1 0
BITMAP
008000
01C000
022000
000000
000000
07E000
1C1C00
300600
600200
600300
C00180
C00180
C00180
C00180
C00180
C00180
C00180
600300
600300
300600
1C1C00
07F000
ENDCHAR
STARTCHAR 00D5
ENCODING 213
SWIDTH 791 0
DWIDTH 19 0
BBX 17 21 1 0
BITMAP
038000
047000
000000
000000
07E000
1C1C00
300600
600200
600300
C00180
C00180
C00180
C00180
C00180
C00180
C00180
600300
600300
300600
1C1C00
07F000
ENDCHAR
STARTCHAR 00D6
ENCODING 214
SWIDTH 791 0
DWIDTH 19 0
BBX 17 21 1 0
BITMAP
063000
063000
000000
000000
07E000
1C1C00
300600
600200
600300
C00180
C00180
C00180
C00180
C00180
C00180
C00180
600300
600300
300600
1C1C00
07F000
ENDCHAR
STARTCHAR 00D7
ENCODING 215
SWIDTH 666 0
DWIDTH 16 0
BBX 10 10 3 4
BITMAP
C040
6080
3100
1A00
0C00
0E00
1300
2180
40C0
0040
ENDCHAR
STARTCHAR 00D8
ENCODING 216
SWIDTH 791 0
DWIDTH 19 0
BBX 17 17 1 0
BITMAP
07F300
0C1E00
300600
300B00
601B00
403180
C02180
C04180
C08180
C10180
C30180
C60300
640300
680200
300600
3C1C00
67F000
ENDCHAR
STARTCHAR 00D9
ENCODING 217
SWIDTH 791 0
DWIDTH 19 0
BBX 18 22 0 0
BITMAP
010000
018000
00C000
000000
000000
FE07C0
180100
180100
180100
180100
180100
180100
180100
180100
180100
180100
180100
180100
1C0200
0C0200
070C00
01F800
ENDCHAR
STARTCHAR 00DA
ENCODING 218
SWIDTH 791 0
DWIDTH 19 0
BBX 18 22 0 0
BITMAP
000800
001800
002000
004000
000000
FE07C0
180100
180100
180100
180100
180100
180100
180100
180100
180100
180100
180100
180100
1C0200
0C0200
070C00
01F800
ENDCHAR
STARTCHAR 00DB
ENCODING 219
SWIDTH 791 0
DWIDTH 19 0
BBX 18 22 0 0
BITMAP
006000
00F000
019800
000000
000000
FE07C0
180100
180100
180100
180100
180100
180100
180100
180100
180100
180100
180100
180100
1C0200
0C0200
070C00
01F800
ENDCHAR
STARTCHAR 00DC
ENCODING 220
SWIDTH 791 0
DWIDTH 19 0
BBX 18 21 0 0
BITMAP
019800
019800
000000
000000
FE07C0
180100
180100
180100
180100
180100
180100
180100
180100
180100
180100
180100
180100
1C0200
0C0200
070C00
01F800
ENDCHAR
STARTCHAR 00DD
ENCODING 221
SWIDTH 666 0
DWIDTH 16 0
BBX 17 22 -1 0
BITMAP
001000
003800
006000
004000
000000
FE1F80
380200
180600
0C0400
060800
061800
031000
033000
01A000
01C000
00C000
00C000
00C000
00C000
00C000
00C000
07F800
ENDCHAR
STARTCHAR 00DE
ENCODING 222
SWIDTH 666 0
DWIDTH 16 0
BBX 14 17 2 0
BITMAP
FC00
3000
3000
3F00
3070
3018
300C
300C
300C
300C
300C
3018
30F0
3F00
3000
3000
FC00
ENDCHAR
STARTCHAR 00DF
ENCODING 223
SWIDTH 541 0
DWIDTH 13 0
BBX 12 17 0 0
BITMAP
0FC0
18C0
3060
3060
3060
3060
30C0
3300
31C0
3060
3030
3030
3030
3030
3030
3360
FFC0
ENDCHAR
STARTCHAR 00E0
ENCODING 224
SWIDTH 541 0
DWIDTH 13 0
BBX 12 18 1 0
BITMAP
1000
3800
0C00
0000
0000
0000
1F00
2180
60C0
60C0
00C0
3FC0
60C0
C0C0
C0C0
C0C0
E1C0
3E70
ENDCHAR
STARTCHAR 00E1
ENCODING 225
SWIDTH 541 0
DWIDTH 13 0
BBX 12 17 1 1
BITMAP
0300
0600
0800
0000
0000
1F00
2180
60C0
60C0
00C0
3FC0
60C0
C0C0
C0C0
C0C0
E1C0
3E70
ENDCHAR
STARTCHAR 00E2
ENCODING 226
SWIDTH 541 0
DWIDTH 13 0
BBX 12 17 1 1
BITMAP
0C00
1B00
0100
0000
0000
1F00
2180
60C0
60C0
00C0
3FC0
60C0
C0C0
C0C0
C0C0
E1C0
3E70
ENDCHAR
STARTCHAR 00E3
ENCODING 227
SWIDTH 541 0
DWIDTH 13 0
BBX 12 17 1 0
BITMAP
1C00
2780
0000
0000
0000
1F00
2180
60C0
60C0
00C0
3FC0
60C0
C0C0
C0C0
C0C0
E1C0
3E70
ENDCHAR
STARTCHAR 00E4
ENCODING 228
SWIDTH 541 0
DWIDTH 13 0
BBX 12 17 1 0
BITMAP
3300
3300
0000
0000
0000
1F00
2180
60C0
60C0
00C0
3FC0
60C0
C0C0
C0C0
C0C0
E1C0
3E70
ENDCHAR
STARTCHAR 00E5
ENCODING 229
SWIDTH 541 0
DWIDTH 13 0
BBX 11 17 2 0
BITMAP
0C00
1200
0E00
0000
0000
1E00
2100
6080
6080
0080
3F80
6080
C080
C080
C080
E380
3CE0
ENDCHAR
STARTCHAR 00E6
ENCODING 230
SWIDTH 833 0
DWIDTH 20 0
BBX 18 12 1 0
BITMAP
1F1E00
21E180
60C080
60C0C0
00C040
1FFFC0
70C000
C0C000
C0C000
C0C040
E16080
3E1F00
ENDCHAR
STARTCHAR 00E7
ENCODING 231
SWIDTH 541 0
DWIDTH 13 0
BBX 11 17 1 -6
BITMAP
1F00
3080
60C0
C0C0
C000
C000
C000
C000
E000
6060
30C0
0F00
0400
0700
0080
0080
0F00
ENDCHAR
STARTCHAR 00E8
ENCODING 232
SWIDTH 541 0
DWIDTH 13 0
BBX 11 17 1 1
BITMAP
1800
0400
0200
0000
0000
1F00
30C0
6040
E060
C060
FFE0
C000
C000
C000
6020
3040
1F80
ENDCHAR
STARTCHAR 00E9
ENCODING 233
SWIDTH 541 0
DWIDTH 13 0
BBX 11 17 1 1
BITMAP
0180
0200
0400
0000
0000
1F00
30C0
6040
E060
C060
FFE0
C000
C000
C000
6020
3040
1F80
ENDCHAR
STARTCHAR 00EA
ENCODING 234
SWIDTH 541 0
DWIDTH 13 0
BBX 11 17 1 1
BITMAP
0600
0B00
1080
0000
0000
1F00
30C0
6040
E060
C060
FFE0
C000
C000
C000
6020
3040
1F80
ENDCHAR
STARTCHAR 00EB
ENCODING 235
SWIDTH 541 0
DWIDTH 13 0
BBX 11 17 1 0
BITMAP
1980
1980
0000
0000
0000
1F00
30C0
6040
E060
C060
FFE0
C000
C000
C000
6020
3040
1F80
ENDCHAR
STARTCHAR 00EC
ENCODING 236
SWIDTH 291 0
DWIDTH 7 0
BBX 6 17 1 1
BITMAP
C0
60
10
00
00
F0
30
30
30
30
30
30
30
30
30
30
FC
ENDCHAR
STARTCHAR 00ED
ENCODING 237
SWIDTH 291 0
DWIDTH 7 0
BBX 6 17 1 1
BITMAP
0C
30
60
00
00
F0
30
30
30
30
30
30
30
30
30
30
FC
ENDCHAR
STARTCHAR 00EE
ENCODING 238
SWIDTH 291 0
DWIDTH 7 0
BBX 6 17 1 0
BITMAP
30
78
8C
00
00
F0
30
30
30
30
30
30
30
30
30
30
FC
ENDCHAR
STARTCHAR 00EF
ENCODING 239
SWIDTH 291 0
DWIDTH 7 0
BBX 7 17 0 0
BITMAP
C6
C6
00
00
00
78
18
18
18
18
18
18
18
18
18
18
7E
ENDCHAR
STARTCHAR 00F0
ENCODING 240
SWIDTH 583 0
DWIDTH 14 0
BBX 12 17 1 1
BITMAP
3B00
0600
1B00
2180
00C0
1FE0
30E0
6070
C030
C030
C030
C030
C030
C020
6060
30C0
1F80
ENDCHAR
STARTCHAR 00F1
ENCODING 241
SWIDTH 625 0
DWIDTH 15 0
BBX 14 17 1 0
BITMAP
0600
0B40
01C0
0000
0000
F3C0
3460
3830
3030
3030
3030
3030
3030
3030
3030
3030
FCFC
ENDCHAR
STARTCHAR 00F2
ENCODING 242
SWIDTH 583 0
DWIDTH 14 0
BBX 12 18 1 0
BITMAP
0800
1C00
0600
0200
0000
0000
1F80
30C0
6060
C030
C030
C030
C030
C030
C030
6060
30C0
1F80
ENDCHAR
STARTCHAR 00F3
ENCODING 243
SWIDTH 583 0
DWIDTH 14 0
BBX 12 17 1 1
BITMAP
0180
0200
0400
0000
0000
1F80
30C0
6060
C030
C030
C030
C030
C030
C030
6060
30C0
1F80
ENDCHAR
STARTCHAR 00F4
ENCODING 244
SWIDTH 583 0
DWIDTH 14 0
BBX 12 17 1 1
BITMAP
0600
0D00
1080
0000
0000
1F80
30C0
6060
C030
C030
C030
C030
C030
C030
6060
30C0
1F80
ENDCHAR
STARTCHAR 00F5
ENCODING 245
SWIDTH 583 0
DWIDTH 14 0
BBX 12 17 1 0
BITMAP
1C00
1380
0000
0000
0000
1F80
30C0
6060
C030
C030
C030
C030
C030
C030
6060
30C0
1F80
ENDCHAR
STARTCHAR 00F6
ENCODING 246
SWIDTH 583 0
DWIDTH 14 0
BBX 12 17 1 0
BITMAP
1980
1980
0000
0000
0000
1F80
30C0
6060
C030
C030
C030
C030
C030
C030
6060
30C0
1F80
ENDCHAR
STARTCHAR 00F7
ENCODING 247
SWIDTH 666 0
DWIDTH 16 0
BBX 13 11 2 2
BITMAP
0700
0700
0700
0000
0000
FFF8
0000
0000
0700
0700
0700
ENDCHAR
STARTCHAR 00F8
ENCODING 248
SWIDTH 583 0
DWIDTH 14 0
BBX 12 13 1 -1
BITMAP
0020
1FE0
30C0
60E0
C130
C330
C230
C430
C830
D030
7060
30C0
5F80
ENDCHAR
STARTCHAR 00F9
ENCODING 249
SWIDTH 625 0
DWIDTH 15 0
BBX 13 17 1 1
BITMAP
0C00
0600
0200
0000
0000
F1E0
3060
3060
3060
3060
3060
3060
3060
3060
30E0
18E0
1F78
ENDCHAR
STARTCHAR 00FA
ENCODING 250
SWIDTH 625 0
DWIDTH 15 0
BBX 13 17 1 1
BITMAP
0180
0300
0400
0000
0000
F1E0
3060
3060
3060
3060
3060
3060
3060
3060
30E0
18E0
1F78
ENDCHAR
STARTCHAR 00FB
ENCODING 251
SWIDTH 625 0
DWIDTH 15 0
BBX 13 17 1 0
BITMAP
0200
0700
0900
0000
0000
F1E0
3060
3060
3060
3060
3060
3060
3060
3060
30E0
18E0
1F78
ENDCHAR
STARTCHAR 00FC
ENCODING 252
SWIDTH 625 0
DWIDTH 15 0
BBX 13 17 1 0
BITMAP
0D80
0D80
0000
0000
0000
F1E0
3060
3060
3060
3060
3060
3060
3060
3060
30E0
18E0
1F78
ENDCHAR
STARTCHAR 00FD
ENCODING 253
SWIDTH 541 0
DWIDTH 13 0
BBX 13 22 0 -4
BITMAP
0080
01C0
0300
0200
0000
0000
F8F8
3020
3020
1040
1840
1840
0C80
0C80
0500
0700
0300
0200
0200
0400
3400
3800
ENDCHAR
STARTCHAR 00FE
ENCODING 254
SWIDTH 583 0
DWIDTH 14 0
BBX 13 22 0 -4
BITMAP
3000
F000
3000
3000
3000
3000
33C0
3C60
3830
3018
3018
3018
3018
3018
3018
3830
3C60
33C0
3000
3000
3000
FC00
ENDCHAR
STARTCHAR 00FF
ENCODING 255
SWIDTH 541 0
DWIDTH 13 0
BBX 13 21 0 -4
BITMAP
0CC0
0CC0
0000
0000
0000
F8F8
3020
3020
1040
1840
1840
0C80
0C80
0500
0700
0300
0200
0200
0400
3400
3800
ENDCHAR
STARTCHAR 0100
ENCODING 256
SWIDTH 708 0
DWIDTH 17 0
BBX 18 21 0 0
BITMAP
03F000
000000
000000
008000
00C000
00C000
014000
016000
036000
022000
023000
041000
041800
0C1800
0FF800
080C00
100C00
100600
200600
200700
FC1FC0
ENDCHAR
STARTCHAR 0101
ENCODING 257
SWIDTH 541 0
DWIDTH 13 0
BBX 12 16 1 0
BITMAP
3F80
0000
0000
0000
1F00
2180
60C0
60C0
00C0
3FC0
60C0
C0C0
C0C0
C0C0
E3C0
3C70
ENDCHAR
STARTCHAR 0102
ENCODING 258
SWIDTH 708 0
DWIDTH 17 0
BBX 18 21 0 1
BITMAP
021000
01E000
000000
000000
008000
00C000
01C000
016000
036000
022000
023000
041000
041800
0C1800
0FF800
080C00
100C00
100600
200600
200700
FC1FC0
ENDCHAR
STARTCHAR 0103
ENCODING 259
SWIDTH 541 0
DWIDTH 13 0
BBX 12 17 1 1
BITMAP
1180
1F00
0000
0000
0000
1F00
2180
60C0
60C0
00C0
3FC0
60C0
C0C0
C0C0
C0C0
E3C0
3C70
ENDCHAR
STARTCHAR 0104
ENCODING 260
SWIDTH 708 0
DWIDTH 17 0
BBX 18 23 0 -5
BITMAP
008000
00C000
01C000
016000
036000
022000
023000
041000
041800
0C1800
0FF800
080C00
100C00
100600
200600
200700
FC1FC0
000200
000C00
000C00
001800
001900
000E00
ENDCHAR
STARTCHAR 0105
ENCODING 261
SWIDTH 541 0
DWIDTH 13 0
BBX 12 18 1 -6
BITMAP
1F00
2180
60C0
60C0
00C0
3FC0
60C0
C0C0
C0C0
C0C0
E1C0
3E50
0060
0080
0180
0300
0310
01E0
ENDCHAR
STARTCHAR 0106
ENCODING 262
SWIDTH 750 0
DWIDTH 18 0
BBX 16 22 1 0
BITMAP
0020
0060
00C0
0000
0000
07F2
1C1E
3006
6002
6002
C000
C000
C000
C000
C000
C000
C001
6002
7002
3004
1C18
07E0
ENDCHAR
STARTCHAR 0107
ENCODING 263
SWIDTH 541 0
DWIDTH 13 0
BBX 11 17 1 1
BITMAP
0180
0200
0400
0000
0000
1F00
3080
60C0
C0C0
C000
C000
C000
C000
E000
6060
30C0
1F00
ENDCHAR
STARTCHAR 0108
ENCODING 264
SWIDTH 750 0
DWIDTH 18 0
BBX 16 22 1 0
BITMAP
0080
01C0
0220
0000
0000
07F2
1C1E
3006
6002
6002
C000
C000
C000
C000
C000
C000
C001
6002
7002
3004
1C18
07E0
ENDCHAR
STARTCHAR 0109
ENCODING 265
SWIDTH 541 0
DWIDTH 13 0
BBX 11 17 1 1
BITMAP
0600
0D00
1080
0000
0000
1F00
3080
60C0
C0C0
C000
C000
C000
C000
E000
6060
30C0
1F00
ENDCHAR
STARTCHAR 010C
ENCODING 268
SWIDTH 750 0
DWIDTH 18 0
BBX 16 21 1 1
BITMAP
0220
01C0
0080
0000
07F2
1C1E
3006
6002
6002
C000
C000
C000
C000
C000
C000
C001
6002
7002
3004
1C18
07E0
ENDCHAR
STARTCHAR 010D
ENCODING 269
SWIDTH 541 0
DWIDTH 13 0
BBX 11 17 1 1
BITMAP
1180
0F00
0600
0000
0000
1F00
3080
60C0
C0C0
C000
C000
C000
C000
E000
6060
30C0
1F00
ENDCHAR
STARTCHAR 010E
ENCODING 270
SWIDTH 791 0
DWIDTH 19 0
BBX 16 21 2 1
BITMAP
0660
03C0
0180
0000
FFE0
3018
300C
3006
3006
3003
3003
3003
3003
3003
3003
3003
3006
3006
300C
3038
FFE0
ENDCHAR
STARTCHAR 010F
ENCODING 271
SWIDTH 625 0
DWIDTH 15 0
BBX 15 18 1 0
BITMAP
0006
01E6
0062
0066
0068
0060
1E60
31E0
60E0
C060
C060
C060
C060
C060
C060
60E0
3160
1E78
ENDCHAR
STARTCHAR 0111
ENCODING 273
SWIDTH 625 0
DWIDTH 15 0
BBX 13 17 1 1
BITMAP
01E0
0060
0060
07F0
0060
1E60
31E0
60E0
C060
C060
C060
C060
C060
C060
60E0
3160
1E78
ENDCHAR
STARTCHAR 0112
ENCODING 274
SWIDTH 708 0
DWIDTH 17 0
BBX 13 21 2 0
BITMAP
0FC0
0000
0000
0000
FFF8
3018
3008
3008
3008
3080
3080
3080
3F80
3080
3080
3000
3008
3008
3008
3018
FFF8
ENDCHAR
STARTCHAR 0113
ENCODING 275
SWIDTH 541 0
DWIDTH 13 0
BBX 11 16 1 0
BITMAP
1F80
0000
0000
0000
1F00
30C0
6040
E060
C060
FFE0
C000
C000
C000
6020
3040
1F80
ENDCHAR
STARTCHAR 0118
ENCODING 280
SWIDTH 708 0
DWIDTH 17 0
BBX 13 23 2 -6
BITMAP
FFF8
3018
3008
3008
3008
3080
3080
3080
3F80
3080
3080
3000
3008
3008
3008
3018
FFF8
0200
0600
0C00
0C00
0D00
0E00
ENDCHAR
STARTCHAR 0119
ENCODING 281
SWIDTH 541 0
DWIDTH 13 0
BBX 11 18 1 -6
BITMAP
1F00
30C0
6040
E060
C060
FFE0
C000
C000
C000
6020
7040
1F80
0200
0400
0C00
1800
1900
0E00
ENDCHAR
STARTCHAR 011A
ENCODING 282
SWIDTH 708 0
DWIDTH 17 0
BBX 13 21 2 1
BITMAP
04C0
0380
0100
0000
FFF8
3018
3008
3008
3008
3080
3080
3080
3F80
3080
3080
3000
3008
3008
3008
3018
FFF8
ENDCHAR
STARTCHAR 011B
ENCODING 283
SWIDTH 541 0
DWIDTH 13 0
BBX 11 17 1 1
BITMAP
1880
0F00
0600
0000
0000
1F00
30C0
6040
E060
C060
FFE0
C000
C000
C000
6020
3040
1F80
ENDCHAR
STARTCHAR 011C
ENCODING 284
SWIDTH 791 0
DWIDTH 19 0
BBX 17 22 1 0
BITMAP
008000
01C000
022000
000000
000000
07F200
1C1E00
300600
600200
600200
C00000
C00000
C00000
C00000
C01F80
C00600
C00600
600600
700600
300600
1C1E00
07F200
ENDCHAR
STARTCHAR 011D
ENCODING 285
SWIDTH 541 0
DWIDTH 13 0
BBX 12 22 1 -4
BITMAP
0E00
1900
0000
0070
00F0
1F80
3080
6040
6040
6040
6040
3080
6F00
4000
7000
1F80
60C0
C060
C060
C060
60C0
3F00
ENDCHAR
STARTCHAR 0124
ENCODING 292
SWIDTH 833 0
DWIDTH 20 0
BBX 17 22 2 0
BITMAP
018000
01C000
024000
000000
000000
FC3F80
300C00
300C00
300C00
300C00
300C00
300C00
300C00
3FFC00
300C00
300C00
300C00
300C00
300C00
300C00
300C00
FC3F80
ENDCHAR
STARTCHAR 0125
ENCODING 293
SWIDTH 625 0
DWIDTH 15 0
BBX 13 21 1 1
BITMAP
3800
6C00
0000
0000
F000
3000
3000
3000
3000
3380
3CC0
3860
3060
3060
3060
3060
3060
3060
3060
3060
FDF8
ENDCHAR
STARTCHAR 0127
ENCODING 295
SWIDTH 625 0
DWIDTH 15 0
BBX 13 17 1 1
BITMAP
F000
3000
3000
FC00
3000
3380
3CC0
3860
3060
3060
3060
3060
3060
3060
3060
3060
FDF8
ENDCHAR
STARTCHAR 012A
ENCODING 298
SWIDTH 375 0
DWIDTH 9 0
BBX 6 21 2 0
BITMAP
FC
00
00
00
FC
30
30
30
30
30
30
30
30
30
30
30
30
30
30
30
FC
ENDCHAR
STARTCHAR 012B
ENCODING 299
SWIDTH 291 0
DWIDTH 7 0
BBX 7 16 0 0
BITMAP
FE
00
00
00
78
18
18
18
18
18
18
18
18
18
18
7E
ENDCHAR
STARTCHAR 0134
ENCODING 308
SWIDTH 458 0
DWIDTH 11 0
BBX 10 22 0 0
BITMAP
0200
0700
08C0
0000
0000
1FC0
0300
0300
0300
0300
0300
0300
0300
0300
0300
0300
0300
0300
C300
C300
C600
3C00
ENDCHAR
STARTCHAR 0135
ENCODING 309
SWIDTH 291 0
DWIDTH 7 0
BBX 8 22 -1 -5
BITMAP
0C
16
21
00
00
3C
0C
0C
0C
0C
0C
0C
0C
0C
0C
0C
0C
0C
0C
CC
D8
70
ENDCHAR
STARTCHAR 0139
ENCODING 313
SWIDTH 625 0
DWIDTH 15 0
BBX 14 22 1 0
BITMAP
0200
0600
0C00
0000
0000
FF00
1800
1800
1800
1800
1800
1800
1800
1800
1800
1800
1800
1804
1804
1804
180C
7FFC
ENDCHAR
STARTCHAR 013A
ENCODING 314
SWIDTH 291 0
DWIDTH 7 0
BBX 6 22 1 0
BITMAP
08
18
30
00
00
F0
30
30
30
30
30
30
30
30
30
30
30
30
30
30
30
FC
ENDCHAR
STARTCHAR 013D
ENCODING 317
SWIDTH 625 0
DWIDTH 15 0
BBX 14 18 1 0
BITMAP
0070
FF70
1830
1830
1860
1800
1800
1800
1800
1800
1800
1800
1800
1804
1804
1804
180C
7FFC
ENDCHAR
STARTCHAR 013E
ENCODING 318
SWIDTH 333 0
DWIDTH 8 0
BBX 8 18 1 0
BITMAP
03
F3
31
33
36
30
30
30
30
30
30
30
30
30
30
30
30
FC
ENDCHAR
STARTCHAR 0141
ENCODING 321
SWIDTH 625 0
DWIDTH 15 0
BBX 14 17 1 0
BITMAP
FE00
1800
1800
1800
1800
1B00
1E00
1800
3800
5800
1800
1800
1804
1804
1804
180C
7FFC
ENDCHAR
STARTCHAR 0142
ENCODING 322
SWIDTH 291 0
DWIDTH 7 0
BBX 6 18 1 0
BITMAP
30
F0
30
30
30
30
34
3C
38
70
B0
30
30
30
30
30
30
FC
ENDCHAR
STARTCHAR 0143
ENCODING 323
SWIDTH 833 0
DWIDTH 20 0
BBX 18 22 1 0
BITMAP
001000
007000
00C000
008000
000000
F00FC0
380100
2C0100
2E0100
260100
230100
218100
20C100
20C100
206100
203100
201900
200D00
200D00
200700
200300
FC0100
ENDCHAR
STARTCHAR 0144
ENCODING 324
SWIDTH 625 0
DWIDTH 15 0
BBX 14 17 1 1
BITMAP
00C0
0100
0200
0000
0000
F3C0
3460
3830
3030
3030
3030
3030
3030
3030
3030
3030
FCFC
ENDCHAR
STARTCHAR 0147
ENCODING 327
SWIDTH 833 0
DWIDTH 20 0
BBX 18 21 1 1
BITMAP
023000
01E000
00C000
000000
F00FC0
380100
2C0100
2E0100
260100
230100
218100
20C100
20C100
206100
203100
201900
200D00
200D00
200700
200300
FC0100
ENDCHAR
STARTCHAR 0148
ENCODING 328
SWIDTH 625 0
DWIDTH 15 0
BBX 14 17 1 1
BITMAP
0CC0
0780
0300
0000
0000
F3C0
3460
3830
3030
3030
3030
3030
3030
3030
3030
3030
FCFC
ENDCHAR
STARTCHAR 014B
ENCODING 331
SWIDTH 625 0
DWIDTH 15 0
BBX 12 17 1 -4
BITMAP
F3C0
3460
3830
3030
3030
3030
3030
3030
3030
3030
3030
FC30
0030
0030
0330
0360
01C0
ENDCHAR
STARTCHAR 014C
ENCODING 332
SWIDTH 791 0
DWIDTH 19 0
BBX 17 21 1 0
BITMAP
03F000
000000
000000
000000
07E000
1C1C00
300600
600200
600300
C00180
C00180
C00180
C00180
C00180
C00180
C00180
600300
700300
300600
1C1C00
07F000
ENDCHAR
STARTCHAR 014D
ENCODING 333
SWIDTH 583 0
DWIDTH 14 0
BBX 12 16 1 0
BITMAP
1F80
0000
0000
0000
1F80
30C0
6060
C030
C030
C030
C030
C030
4030
6060
30C0
0F80
ENDCHAR
STARTCHAR 0150
ENCODING 336
SWIDTH 791 0
DWIDTH 19 0
BBX 17 22 1 0
BITMAP
009000
01B000
012000
024000
000000
07E000
1C1C00
300600
600200
600300
C00180
C00180
C00180
C00180
C00180
C00180
C00180
600300
700300
300600
1C1C00
07F000
ENDCHAR
STARTCHAR 0151
ENCODING 337
SWIDTH 583 0
DWIDTH 14 0
BBX 12 18 1 0
BITMAP
0400
04C0
0D80
0900
0000
0000
1F80
30C0
6060
C030
C030
C030
C030
C030
4030
6060
30C0
0F80
ENDCHAR
STARTCHAR 0152
ENCODING 338
SWIDTH 1041 0
DWIDTH 25 0
BBX 22 17 2 0
BITMAP
07FFF8
181808
30180C
601804
601804
C01840
C01840
C01840
C01FC0
C01840
C01840
C01800
601804
601804
301804
18180C
07FFFC
ENDCHAR
STARTCHAR 0153
ENCODING 339
SWIDTH 916 0
DWIDTH 22 0
BBX 20 12 1 0
BITMAP
1F0F80
3198C0
60F060
C06020
C06030
C07FF0
C06000
C06000
C06000
60F030
31D860
1F0F80
ENDCHAR
STARTCHAR 0154
ENCODING 340
SWIDTH 708 0
DWIDTH 17 0
BBX 16 22 2 0
BITMAP
0040
00C0
0100
0200
0000
FFC0
3030
3018
3018
3018
3018
3030
3070
3F80
30C0
3060
3060
3030
3018
3018
301C
FE0F
ENDCHAR
STARTCHAR 0155
ENCODING 341
SWIDTH 416 0
DWIDTH 10 0
BBX 9 17 1 1
BITMAP
0600
0C00
0000
0000
0000
F380
3580
3800
3000
3000
3000
3000
3000
3000
3000
3000
FC00
ENDCHAR
STARTCHAR 0158
ENCODING 344
SWIDTH 708 0
DWIDTH 17 0
BBX 16 21 2 1
BITMAP
0CC0
0780
0300
0000
FFC0
3030
3018
3018
3018
3018
3030
3070
3F80
30C0
3060
3060
3030
3018
3018
301C
FE0F
ENDCHAR
STARTCHAR 0159
ENCODING 345
SWIDTH 416 0
DWIDTH 10 0
BBX 9 17 1 1
BITMAP
6200
3C00
0800
0000
0000
F380
3580
3800
3000
3000
3000
3000
3000
3000
3000
3000
FC00
ENDCHAR
STARTCHAR 015A
ENCODING 346
SWIDTH 625 0
DWIDTH 15 0
BBX 12 22 2 0
BITMAP
0100
0300
0600
0000
0000
1F20
70E0
C060
C020
C020
C000
7000
3C00
0F80
01E0
0060
8030
8030
8030
C070
F0E0
9F80
ENDCHAR
STARTCHAR 015B
ENCODING 347
SWIDTH 458 0
DWIDTH 11 0
BBX 10 18 1 0
BITMAP
0200
0700
0C00
1000
0000
0000
3F80
4380
8080
8080
C000
3C00
0300
80C0
8040
8040
E080
9F00
ENDCHAR
STARTCHAR 015C
ENCODING 348
SWIDTH 625 0
DWIDTH 15 0
BBX 12 22 2 0
BITMAP
0400
0F00
1980
0000
0000
1F20
70E0
C060
C020
C020
C000
7000
3C00
0F80
01E0
0060
8030
8030
8030
C070
F0E0
9F80
ENDCHAR
STARTCHAR 015D
ENCODING 349
SWIDTH 458 0
DWIDTH 11 0
BBX 10 17 1 1
BITMAP
0C00
3600
2100
0000
0000
3F80
4380
8080
8080
C000
3C00
0300
80C0
8040
8040
E080
9F00
ENDCHAR
STARTCHAR 015E
ENCODING 350
SWIDTH 625 0
DWIDTH 15 0
BBX 12 23 2 -5
BITMAP
1F20
70E0
C060
C020
C020
C000
7000
3C00
0F80
01E0
0060
8030
8030
8030
C070
F0E0
9F80
0000
0600
0600
0200
0400
0800
ENDCHAR
STARTCHAR 015F
ENCODING 351
SWIDTH 458 0
DWIDTH 11 0
BBX 10 17 1 -5
BITMAP
3F80
4380
8080
8080
C000
3C00
0300
80C0
8040
8040
E080
9F00
0000
0C00
0C00
0400
0800
ENDCHAR
STARTCHAR 0160
ENCODING 352
SWIDTH 625 0
DWIDTH 15 0
BBX 12 21 2 1
BITMAP
1100
0E00
0400
0000
1F20
70E0
C060
C020
C020
C000
7000
3C00
0F80
01E0
0060
8030
8030
8030
C070
F0E0
9F80
ENDCHAR
STARTCHAR 0161
ENCODING 353
SWIDTH 458 0
DWIDTH 11 0
BBX 10 17 1 0
BITMAP
6300
1C00
0800
0000
0000
3F80
4380
8080
8080
C000
3C00
0700
00C0
8040
8040
C080
BF00
ENDCHAR
STARTCHAR 0162
ENCODING 354
SWIDTH 625 0
DWIDTH 15 0
BBX 16 23 0 -6
BITMAP
7FFE
4182
4182
8181
0180
0180
0180
0180
0180
0180
0180
0180
0180
0180
0180
0180
0FF0
0000
0180
0180
0080
0100
0200
ENDCHAR
STARTCHAR 0163
ENCODING 355
SWIDTH 333 0
DWIDTH 8 0
BBX 8 21 0 -5
BITMAP
10
10
30
FF
30
30
30
30
30
30
30
30
30
31
1E
00
1C
1C
04
08
10
ENDCHAR
STARTCHAR 0164
ENCODING 356
SWIDTH 625 0
DWIDTH 15 0
BBX 15 21 0 1
BITMAP
0660
03C0
0180
0000
7FFE
4182
4182
8182
0180
0180
0180
0180
0180
0180
0180
0180
0180
0180
0180
0180
0FF0
ENDCHAR
STARTCHAR 0165
ENCODING 357
SWIDTH 333 0
DWIDTH 8 0
BBX 8 18 0 0
BITMAP
03
03
01
11
12
30
FF
30
30
30
30
30
30
30
30
30
31
1E
ENDCHAR
STARTCHAR 016A
ENCODING 362
SWIDTH 791 0
DWIDTH 19 0
BBX 18 21 0 0
BITMAP
01F800
000000
000000
000000
FE07C0
180100
180100
180100
180100
180100
180100
180100
180100
180100
180100
180100
180100
0C0200
0C0200
070C00
01F800
ENDCHAR
STARTCHAR 016B
ENCODING 363
SWIDTH 625 0
DWIDTH 15 0
BBX 13 16 1 0
BITMAP
0F80
0000
0000
0000
F1E0
3060
3060
3060
3060
3060
3060
3060
3060
30E0
38E0
1F78
ENDCHAR
STARTCHAR 016C
ENCODING 364
SWIDTH 791 0
DWIDTH 19 0
BBX 18 21 0 1
BITMAP
010800
00F000
000000
000000
FE07C0
180100
180100
180100
180100
180100
180100
180100
180100
180100
180100
180100
180100
0C0200
0C0200
070C00
01F800
ENDCHAR
STARTCHAR 016D
ENCODING 365
SWIDTH 625 0
DWIDTH 15 0
BBX 13 17 1 0
BITMAP
0880
0880
0700
0000
0000
F1E0
3060
3060
3060
3060
3060
3060
3060
3060
30E0
38E0
1F78
ENDCHAR
STARTCHAR 016E
ENCODING 366
SWIDTH 791 0
DWIDTH 19 0
BBX 18 22 0 0
BITMAP
006000
009000
009000
006000
000000
FE07C0
180100
180100
180100
180100
180100
180100
180100
180100
180100
180100
180100
180100
0C0200
0C0200
070C00
01F800
ENDCHAR
STARTCHAR 016F
ENCODING 367
SWIDTH 625 0
DWIDTH 15 0
BBX 13 17 1 0
BITMAP
0700
0500
0700
0000
0000
F1E0
3060
3060
3060
3060
3060
3060
3060
3060
30E0
38E0
1F78
ENDCHAR
STARTCHAR 0170
ENCODING 368
SWIDTH 791 0
DWIDTH 19 0
BBX 18 22 0 0
BITMAP
004800
00C800
009000
000000
000000
FE07C0
180100
180100
180100
180100
180100
180100
180100
180100
180100
180100
180100
180100
0C0200
0C0200
070C00
01F800
ENDCHAR
STARTCHAR 0171
ENCODING 369
SWIDTH 625 0
DWIDTH 15 0
BBX 13 17 1 1
BITMAP
06C0
0580
0100
0000
0000
F1E0
3060
3060
3060
3060
3060
3060
3060
3060
30E0
38E0
1F78
ENDCHAR
STARTCHAR 0179
ENCODING 377
SWIDTH 625 0
DWIDTH 15 0
BBX 13 22 1 0
BITMAP
0080
01C0
0300
0000
0000
FFF8
E030
C030
8060
80C0
0180
0180
0300
0600
0C00
0C00
1800
3008
7008
6008
C018
FFF8
ENDCHAR
STARTCHAR 017A
ENCODING 378
SWIDTH 458 0
DWIDTH 11 0
BBX 9 17 1 1
BITMAP
0300
0400
0800
0000
0000
FF80
C180
8300
8600
0400
0C00
1800
3000
3000
6080
C080
FF80
ENDCHAR
STARTCHAR 017B
ENCODING 379
SWIDTH 625 0
DWIDTH 15 0
BBX 13 21 1 0
BITMAP
0600
0600
0000
0000
FFF8
E030
C030
8060
80C0
0180
0180
0300
0600
0C00
0C00
1800
3008
7008
6008
C018
FFF8
ENDCHAR
STARTCHAR 017C
ENCODING 380
SWIDTH 458 0
DWIDTH 11 0
BBX 9 17 1 0
BITMAP
0C00
0C00
0000
0000
0000
FF80
C180
8300
8600
0400
0C00
1800
3000
3000
6080
C080
FF80
ENDCHAR
STARTCHAR 017D
ENCODING 381
SWIDTH 625 0
DWIDTH 15 0
BBX 13 21 1 1
BITMAP
0880
0700
0200
0000
FFF8
E030
C030
8060
80C0
0180
0180
0300
0600
0C00
0C00
1800
3008
7008
6008
C018
FFF8
ENDCHAR
STARTCHAR 017E
ENCODING 382
SWIDTH 458 0
DWIDTH 11 0
BBX 9 17 1 1
BITMAP
2300
1E00
0800
0000
0000
FF80
C180
8300
8600
0400
0C00
1800
3000
3000
6080
C080
FF80
ENDCHAR
STARTCHAR 0193
ENCODING 403
SWIDTH 791 0
DWIDTH 19 0
BBX 19 21 1 0
BITMAP
0001C0
000360
000260
000200
07F200
1C1E00
300600
600200
600200
C00000
C00000
C00000
C00000
C01F80
C00600
C00600
600600
700600
300600
1C1E00
07F200
ENDCHAR
STARTCHAR 01C2
ENCODING 450
SWIDTH 500 0
DWIDTH 12 0
BBX 9 16 1 1
BITMAP
0800
0800
0800
0800
0800
FF80
0800
0800
0800
FF80
0800
0800
0800
0800
0800
0800
ENDCHAR
STARTCHAR 01CD
ENCODING 461
SWIDTH 708 0
DWIDTH 17 0
BBX 18 21 0 1
BITMAP
033000
01C000
008000
000000
008000
00C000
014000
016000
036000
022000
023000
041000
041800
0C1800
0FF800
080C00
100C00
100600
200600
200700
FC1FC0
ENDCHAR
STARTCHAR 01CE
ENCODING 462
SWIDTH 541 0
DWIDTH 13 0
BBX 12 17 1 1
BITMAP
1100
0E00
0400
0000
0000
1F00
2180
60C0
60C0
00C0
3FC0
60C0
C0C0
C0C0
C0C0
63C0
3C70
ENDCHAR
STARTCHAR 01D0
ENCODING 464
SWIDTH 291 0
DWIDTH 7 0
BBX 6 17 1 1
BITMAP
8C
78
30
00
00
F0
30
30
30
30
30
30
30
30
30
30
FC
ENDCHAR
STARTCHAR 01D1
ENCODING 465
SWIDTH 791 0
DWIDTH 19 0
BBX 17 21 1 1
BITMAP
023000
01E000
008000
000000
07E000
1C1800
300600
600300
600300
C00180
C00180
C00180
C00180
C00180
C00180
C00180
600300
600300
300600
1C1C00
07F000
ENDCHAR
STARTCHAR 01D2
ENCODING 466
SWIDTH 583 0
DWIDTH 14 0
BBX 12 17 1 1
BITMAP
1880
0700
0200
0000
0000
1F80
30C0
6060
C030
C030
C030
C030
C030
C030
6060
30C0
1F80
ENDCHAR
STARTCHAR 01D4
ENCODING 468
SWIDTH 625 0
DWIDTH 15 0
BBX 13 17 1 1
BITMAP
0880
0700
0200
0000
0000
F1E0
3060
3060
3060
3060
3060
3060
3060
3060
30E0
38E0
1F78
ENDCHAR
STARTCHAR 01D6
ENCODING 470
SWIDTH 625 0
DWIDTH 15 0
BBX 13 19 1 0
BITMAP
0F80
0000
0D80
0D80
0000
0000
0000
F1E0
3060
3060
3060
3060
3060
3060
3060
3060
30E0
38E0
1F78
ENDCHAR
STARTCHAR 01D8
ENCODING 472
SWIDTH 625 0
DWIDTH 15 0
BBX 13 20 1 1
BITMAP
0180
0200
0400
0D80
0D80
0000
0000
0000
F1E0
3060
3060
3060
3060
3060
3060
3060
3060
30E0
38E0
1F78
ENDCHAR
STARTCHAR 01DA
ENCODING 474
SWIDTH 625 0
DWIDTH 15 0
BBX 13 20 1 1
BITMAP
0900
0700
0200
0D80
0D80
0000
0000
0000
F1E0
3060
3060
3060
3060
3060
3060
3060
3060
30E0
38E0
1F78
ENDCHAR
STARTCHAR 01DC
ENCODING 476
SWIDTH 625 0
DWIDTH 15 0
BBX 13 20 1 1
BITMAP
0C00
0600
0200
0D80
0D80
0000
0000
0000
F1E0
3060
3060
3060
3060
3060
3060
3060
3060
30E0
38E0
1F78
ENDCHAR
STARTCHAR 01F8
ENCODING 504
SWIDTH 833 0
DWIDTH 20 0
BBX 18 22 1 0
BITMAP
040000
070000
018000
000000
000000
F00FC0
380100
2C0100
2E0100
260100
230100
218100
20C100
20C100
206100
203100
201900
200D00
200D00
200700
200300
FC0100
ENDCHAR
STARTCHAR 01F9
ENCODING 505
SWIDTH 625 0
DWIDTH 15 0
BBX 14 17 1 1
BITMAP
1800
0400
0200
0000
0000
F3C0
3460
3830
3030
3030
3030
3030
3030
3030
3030
3030
FCFC
ENDCHAR
STARTCHAR 01FD
ENCODING 509
SWIDTH 833 0
DWIDTH 20 0
BBX 18 17 1 1
BITMAP
003000
006000
000000
000000
000000
1F1E00
21E180
60C080
60C0C0
00C040
1FFFC0
70C000
C0C000
C0C000
C0C040
E16080
3E1F00
ENDCHAR
STARTCHAR 0250
ENCODING 592
SWIDTH 541 0
DWIDTH 13 0
BBX 12 12 1 0
BITMAP
E7C0
3870
3030
3030
3030
3060
3F80
3000
3060
3060
1840
0F80
ENDCHAR
STARTCHAR 0251
ENCODING 593
SWIDTH 583 0
DWIDTH 14 0
BBX 12 12 2 1
BITMAP
1F40
31C0
60C0
C040
C040
C040
C040
C040
C040
60C0
3140
1E30
ENDCHAR
STARTCHAR 0252
ENCODING 594
SWIDTH 583 0
DWIDTH 14 0
BBX 12 12 1 0
BITMAP
C780
38C0
3060
2030
2030
2030
2030
2030
2030
3060
30C0
2780
ENDCHAR
STARTCHAR 0253
ENCODING 595
SWIDTH 583 0
DWIDTH 14 0
BBX 11 17 2 0
BITMAP
1F00
6080
C0C0
C0C0
C000
CF00
F180
E0C0
C060
C060
C060
C060
C060
C060
E0C0
F180
8F00
ENDCHAR
STARTCHAR 0254
ENCODING 596
SWIDTH 541 0
DWIDTH 13 0
BBX 10 12 1 0
BITMAP
3E00
4300
8180
00C0
00C0
00C0
00C0
00C0
C0C0
C080
6100
3E00
ENDCHAR
STARTCHAR 0255
ENCODING 597
SWIDTH 541 0
DWIDTH 13 0
BBX 11 14 1 -2
BITMAP
1F00
3080
60C0
C0C0
C000
C000
C000
C1C0
C220
6420
3460
1F80
0800
1000
ENDCHAR
STARTCHAR 0256
ENCODING 598
SWIDTH 625 0
DWIDTH 15 0
BBX 15 23 1 -5
BITMAP
0060
01E0
0060
0060
0060
0060
1E60
31E0
60E0
C060
C060
C060
C060
C060
C060
60E0
3160
1E60
0060
0060
0066
0076
003C
ENDCHAR
STARTCHAR 0257
ENCODING 599
SWIDTH 625 0
DWIDTH 15 0
BBX 15 17 1 0
BITMAP
003C
0076
0060
0060
0060
1E60
31E0
60E0
C060
C060
C060
C060
C060
C060
60E0
3160
1E78
ENDCHAR
STARTCHAR 0258
ENCODING 600
SWIDTH 541 0
DWIDTH 13 0
BBX 11 12 1 0
BITMAP
1F00
3180
60C0
4060
C060
FFE0
0060
0060
0060
40C0
6180
1F00
ENDCHAR
STARTCHAR 0259
ENCODING 601
SWIDTH 541 0
DWIDTH 13 0
BBX 11 12 1 0
BITMAP
1F00
2180
40C0
0060
0060
0060
FFE0
C060
4060
60C0
3180
1F00
ENDCHAR
STARTCHAR 025A
ENCODING 602
SWIDTH 791 0
DWIDTH 19 0
BBX 18 12 1 0
BITMAP
1F0000
20C000
406C00
407600
807600
81B240
061180
0C1000
301000
302000
184000
0F8000
ENDCHAR
STARTCHAR 025C
ENCODING 604
SWIDTH 500 0
DWIDTH 12 0
BBX 10 12 1 0
BITMAP
7F00
0380
0180
0180
0180
1E00
0180
00C0
00C0
00C0
C180
3F00
ENDCHAR
STARTCHAR 025E
ENCODING 606
SWIDTH 583 0
DWIDTH 14 0
BBX 11 12 1 0
BITMAP
1F80
30E0
4060
C060
80C0
8F00
80C0
8060
8060
4060
60C0
1F80
ENDCHAR
STARTCHAR 025F
ENCODING 607
SWIDTH 333 0
DWIDTH 8 0
BBX 9 17 -2 -5
BITMAP
1F80
0600
0600
0600
0600
0600
0600
0600
0600
0600
0600
3F80
0600
0600
C600
CC00
7800
ENDCHAR
STARTCHAR 0260
ENCODING 608
SWIDTH 583 0
DWIDTH 14 0
BBX 15 22 1 -5
BITMAP
001E
0036
0020
0020
0020
1F20
31E0
60E0
C060
C060
C060
C060
C060
C060
60E0
7160
1E60
E060
E060
C0C0
61C0
3F00
ENDCHAR
STARTCHAR 0261
ENCODING 609
SWIDTH 583 0
DWIDTH 14 0
BBX 11 17 1 -4
BITMAP
1F20
31E0
60E0
C060
C060
C060
C060
C060
C060
60E0
7160
1E60
E060
E060
C0C0
61C0
3F00
ENDCHAR
STARTCHAR 0264
ENCODING 612
SWIDTH 583 0
DWIDTH 14 0
BBX 12 12 1 0
BITMAP
E070
38C0
0D00
0600
0700
0B00
0980
1180
1180
1180
1B80
0F00
ENDCHAR
STARTCHAR 0265
ENCODING 613
SWIDTH 625 0
DWIDTH 15 0
BBX 13 17 1 -5
BITMAP
FDF8
3060
3060
3060
3060
3060
3060
3060
3060
30E0
1960
0E60
0060
0060
0060
0070
0078
ENDCHAR
STARTCHAR 0266
ENCODING 614
SWIDTH 625 0
DWIDTH 15 0
BBX 13 17 1 0
BITMAP
0F80
1840
3060
3060
3000
3380
3CC0
3860
3060
3060
3060
3060
3060
3060
3060
3060
FDF8
ENDCHAR
STARTCHAR 0267
ENCODING 615
SWIDTH 625 0
DWIDTH 15 0
BBX 11 22 1 -5
BITMAP
0F80
1840
3060
3060
3000
3380
3CC0
3860
3060
3060
3060
3060
3060
3060
3060
3060
FC60
0060
0060
0260
02E0
01C0
ENDCHAR
STARTCHAR 0268
ENCODING 616
SWIDTH 333 0
DWIDTH 8 0
BBX 7 17 0 0
BITMAP
18
18
00
00
00
78
18
18
18
18
FE
18
18
18
18
18
7E
ENDCHAR
STARTCHAR 026C
ENCODING 620
SWIDTH 416 0
DWIDTH 10 0
BBX 9 17 0 1
BITMAP
1E00
0600
0600
0600
7600
8E00
8600
6600
1F80
0600
0600
0600
0600
0600
0600
0600
1F80
ENDCHAR
STARTCHAR 026D
ENCODING 621
SWIDTH 333 0
DWIDTH 8 0
BBX 8 22 1 -4
BITMAP
F0
30
30
30
30
30
30
30
30
30
30
30
30
30
30
30
30
30
30
33
3B
1E
ENDCHAR
STARTCHAR 026E
ENCODING 622
SWIDTH 625 0
DWIDTH 15 0
BBX 13 23 1 -5
BITMAP
3000
F000
3000
3000
3000
3000
3FF8
3018
3030
3060
30C0
3180
3300
33E0
3030
3038
3018
FC18
0018
1C18
1C30
0870
07C0
ENDCHAR
STARTCHAR 026F
ENCODING 623
SWIDTH 916 0
DWIDTH 22 0
BBX 20 12 1 -1
BITMAP
FDFBF0
3060C0
3060C0
3060C0
3060C0
3060C0
3060C0
3060C0
3060C0
30E1C0
18B2C0
0F1CF0
ENDCHAR
STARTCHAR 0270
ENCODING 624
SWIDTH 916 0
DWIDTH 22 0
BBX 20 17 1 -6
BITMAP
FDFBF0
3060C0
3060C0
3060C0
3060C0
3060C0
3060C0
3060C0
3060C0
30E1C0
18B2C0
0F1CC0
0000C0
0000C0
0000C0
0000C0
0000F0
ENDCHAR
STARTCHAR 0271
ENCODING 625
SWIDTH 916 0
DWIDTH 22 0
BBX 18 17 1 -4
BITMAP
F38F00
3CD180
3870C0
3060C0
3060C0
3060C0
3060C0
3060C0
3060C0
3060C0
3060C0
FDF8C0
0000C0
0000C0
000CC0
000D80
000700
ENDCHAR
STARTCHAR 0272
ENCODING 626
SWIDTH 625 0
DWIDTH 15 0
BBX 16 17 -1 -4
BITMAP
3CF0
0D18
0E0C
0C0C
0C0C
0C0C
0C0C
0C0C
0C0C
0C0C
0C0C
0C3F
0C00
0C00
CC00
D800
7000
ENDCHAR
STARTCHAR 0273
ENCODING 627
SWIDTH 625 0
DWIDTH 15 0
BBX 16 17 1 -4
BITMAP
F3C0
3460
3830
3030
3030
3030
3030
3030
3030
3030
3030
FC30
0030
0030
0033
001B
001E
ENDCHAR
STARTCHAR 0275
ENCODING 629
SWIDTH 583 0
DWIDTH 14 0
BBX 12 12 1 0
BITMAP
1F80
30C0
6060
E030
C030
FFF0
C030
C030
E060
6060
30C0
1F00
ENDCHAR
STARTCHAR 0279
ENCODING 633
SWIDTH 416 0
DWIDTH 10 0
BBX 9 12 0 -1
BITMAP
1F80
0600
0600
0600
0600
0600
0600
0600
0600
0E00
D600
E780
ENDCHAR
STARTCHAR 027A
ENCODING 634
SWIDTH 416 0
DWIDTH 10 0
BBX 9 17 0 -1
BITMAP
1F80
0600
0600
0600
0600
0600
0600
0600
0600
0600
0600
0600
0600
0600
0E00
D600
E780
ENDCHAR
STARTCHAR 027B
ENCODING 635
SWIDTH 416 0
DWIDTH 10 0
BBX 10 17 0 -5
BITMAP
1F00
0400
0400
0400
0400
0400
0400
0400
0400
0C00
D400
E400
0400
0400
04C0
06C0
0380
ENDCHAR
STARTCHAR 027D
ENCODING 637
SWIDTH 416 0
DWIDTH 10 0
BBX 9 17 1 -4
BITMAP
F380
3580
3800
3000
3000
3000
3000
3000
3000
3000
3000
3000
3000
3000
3300
1900
1E00
ENDCHAR
STARTCHAR 027E
ENCODING 638
SWIDTH 375 0
DWIDTH 9 0
BBX 8 12 1 0
BITMAP
1E
3B
30
30
30
30
30
30
30
30
30
FC
ENDCHAR
STARTCHAR 0281
ENCODING 641
SWIDTH 541 0
DWIDTH 13 0
BBX 13 12 1 0
BITMAP
FC38
3060
3040
30C0
3180
3700
3BC0
3060
3060
3060
30E0
FF80
ENDCHAR
STARTCHAR 0282
ENCODING 642
SWIDTH 458 0
DWIDTH 11 0
BBX 10 17 1 -4
BITMAP
3F80
4380
8080
8080
4000
3C00
0700
80C0
8040
8040
E080
9F00
8000
8000
9C00
CC00
7800
ENDCHAR
STARTCHAR 0283
ENCODING 643
SWIDTH 416 0
DWIDTH 10 0
BBX 10 22 0 -5
BITMAP
03C0
0EC0
0C00
0C00
0C00
0C00
0C00
0C00
0C00
0C00
0C00
0C00
0C00
0C00
0C00
0C00
0C00
0C00
0C00
0C00
D800
F000
ENDCHAR
STARTCHAR 0284
ENCODING 644
SWIDTH 333 0
DWIDTH 8 0
BBX 11 22 -1 -5
BITMAP
03C0
0660
0C00
0C00
0C00
0C00
0C00
0C00
0C00
0C00
0C00
0C00
0C00
0C00
0C00
0C00
7F80
0C00
0C00
CC00
D800
7000
ENDCHAR
STARTCHAR 0288
ENCODING 648
SWIDTH 333 0
DWIDTH 8 0
BBX 8 20 0 -4
BITMAP
10
10
30
FF
30
30
30
30
30
30
30
30
30
30
30
30
30
33
3B
1E
ENDCHAR
STARTCHAR 0289
ENCODING 649
SWIDTH 625 0
DWIDTH 15 0
BBX 13 12 1 0
BITMAP
6060
E0E0
2060
2060
2060
FFF8
2060
2060
2060
20E0
31E0
1F78
ENDCHAR
STARTCHAR 028A
ENCODING 650
SWIDTH 625 0
DWIDTH 15 0
BBX 13 12 1 0
BITMAP
F8F8
1040
3060
2020
6030
6030
6030
6030
6030
3060
18E0
0F80
ENDCHAR
STARTCHAR 028B
ENCODING 651
SWIDTH 541 0
DWIDTH 13 0
BBX 12 13 1 0
BITMAP
1020
F030
3030
3010
3010
3010
3010
3010
3020
3020
3020
1840
0F80
ENDCHAR
STARTCHAR 028C
ENCODING 652
SWIDTH 541 0
DWIDTH 13 0
BBX 13 12 0 1
BITMAP
0200
0700
0700
0500
0980
0980
10C0
10C0
10C0
2060
2060
F8F8
ENDCHAR
STARTCHAR 028D
ENCODING 653
SWIDTH 791 0
DWIDTH 19 0
BBX 19 12 0 1
BITMAP
060C00
060C00
061400
0B1600
091600
092200
10A300
10A300
30C100
204180
204180
F9F3E0
ENDCHAR
STARTCHAR 028E
ENCODING 654
SWIDTH 541 0
DWIDTH 13 0
BBX 13 17 0 0
BITMAP
00E0
01E0
0160
0300
0200
0200
0600
0700
0D00
0980
0980
1080
10C0
3040
2060
2060
F8F8
ENDCHAR
STARTCHAR 0290
ENCODING 656
SWIDTH 541 0
DWIDTH 13 0
BBX 13 17 1 -5
BITMAP
FF80
C300
8300
8600
0C00
0800
1800
3000
6080
4080
C180
FF80
0080
0080
0098
00D8
0070
ENDCHAR
STARTCHAR 0291
ENCODING 657
SWIDTH 500 0
DWIDTH 12 0
BBX 11 14 1 -2
BITMAP
FF80
C180
8300
8600
0400
0C00
1800
31C0
3220
6420
C460
FFC0
0800
1000
ENDCHAR
STARTCHAR 0292
ENCODING 658
SWIDTH 500 0
DWIDTH 12 0
BBX 10 17 1 -5
BITMAP
7FC0
4180
8300
8600
0C00
0800
1E00
2380
0180
00C0
00C0
00C0
00C0
C0C0
C180
C380
3E00
ENDCHAR
STARTCHAR 0294
ENCODING 660
SWIDTH 500 0
DWIDTH 12 0
BBX 11 17 1 0
BITMAP
3F00
41C0
C060
C060
0060
0060
00C0
0F00
0C00
0C00
0C00
0C00
0C00
0C00
0C00
0C00
3F00
ENDCHAR
STARTCHAR 0295
ENCODING 661
SWIDTH 500 0
DWIDTH 12 0
BBX 11 17 1 0
BITMAP
1F80
7040
C060
C060
C000
C000
6000
1E00
0600
0600
0600
0600
0600
0600
0600
0600
1F80
ENDCHAR
STARTCHAR 0298
ENCODING 664
SWIDTH 625 0
DWIDTH 15 0
BBX 13 12 1 0
BITMAP
0F80
3060
6030
4010
8708
8708
8708
8008
4010
6030
3060
0F80
ENDCHAR
STARTCHAR 029D
ENCODING 669
SWIDTH 291 0
DWIDTH 7 0
BBX 9 22 -2 -5
BITMAP
0600
0600
0000
0000
0000
1E00
0600
0600
0600
0600
0600
0600
0600
0600
0600
0600
0600
7E00
8600
8780
CE00
7C00
ENDCHAR
STARTCHAR 02A1
ENCODING 673
SWIDTH 500 0
DWIDTH 12 0
BBX 11 17 1 0
BITMAP
3F00
C1C0
C060
C060
0060
0060
00C0
0F80
0C00
0C00
7F00
0C00
0C00
0C00
0C00
0C00
3F00
ENDCHAR
STARTCHAR 02A2
ENCODING 674
SWIDTH 500 0
DWIDTH 12 0
BBX 11 17 1 0
BITMAP
1F80
7040
C060
C060
C000
C000
6000
3E00
0600
0600
3F80
0600
0600
0600
0600
0600
1F80
ENDCHAR
STARTCHAR 02BB
ENCODING 699
SWIDTH 1000 0
DWIDTH 24 0
BBX 3 6 19 15
BITMAP
20
40
C0
C0
E0
E0
ENDCHAR
STARTCHAR 02BC
ENCODING 700
SWIDTH 1000 0
DWIDTH 24 0
BBX 3 7 2 13
BITMAP
C0
E0
E0
20
40
40
80
ENDCHAR
STARTCHAR 02C6
ENCODING 710
SWIDTH 500 0
DWIDTH 12 0
BBX 6 3 3 14
BITMAP
30
78
84
ENDCHAR
STARTCHAR 02C7
ENCODING 711
SWIDTH 500 0
DWIDTH 12 0
BBX 6 3 3 15
BITMAP
84
78
30
ENDCHAR
STARTCHAR 02C8
ENCODING 712
SWIDTH 208 0
DWIDTH 5 0
BBX 1 9 2 8
BITMAP
80
80
80
80
80
80
80
80
80
ENDCHAR
STARTCHAR 02CC
ENCODING 716
SWIDTH 208 0
DWIDTH 5 0
BBX 1 9 2 -4
BITMAP
80
80
80
80
80
80
80
80
80
ENDCHAR
STARTCHAR 02D0
ENCODING 720
SWIDTH 291 0
DWIDTH 7 0
BBX 3 12 2 0
BITMAP
E0
40
40
00
00
00
00
00
00
40
40
E0
ENDCHAR
STARTCHAR 02D1
ENCODING 721
SWIDTH 291 0
DWIDTH 7 0
BBX 3 3 2 9
BITMAP
E0
40
40
ENDCHAR
STARTCHAR 02D8
ENCODING 728
SWIDTH 500 0
DWIDTH 12 0
BBX 6 2 3 15
BITMAP
84
78
ENDCHAR
STARTCHAR 02D9
ENCODING 729
SWIDTH 500 0
DWIDTH 12 0
BBX 2 2 5 15
BITMAP
C0
C0
ENDCHAR
STARTCHAR 02DB
ENCODING 731
SWIDTH 500 0
DWIDTH 12 0
BBX 5 6 4 -5
BITMAP
30
60
C0
C0
C8
F0
ENDCHAR
STARTCHAR 02DC
ENCODING 732
SWIDTH 500 0
DWIDTH 12 0
BBX 6 3 3 14
BITMAP
60
B4
0C
ENDCHAR
STARTCHAR 02DD
ENCODING 733
SWIDTH 500 0
DWIDTH 12 0
BBX 6 4 3 14
BITMAP
04
64
48
90
ENDCHAR
STARTCHAR 02DE
ENCODING 734
SWIDTH 500 0
DWIDTH 12 0
BBX 5 6 4 0
BITMAP
60
A0
20
20
68
30
ENDCHAR
STARTCHAR 02E5
ENCODING 741
SWIDTH 500 0
DWIDTH 12 0
BBX 5 17 2 0
BITMAP
F8
08
08
08
08
08
08
08
08
08
08
08
08
08
08
08
08
ENDCHAR
STARTCHAR 02E6
ENCODING 742
SWIDTH 500 0
DWIDTH 12 0
BBX 5 17 2 0
BITMAP
08
08
08
08
F8
08
08
08
08
08
08
08
08
08
08
08
08
ENDCHAR
STARTCHAR 02E7
ENCODING 743
SWIDTH 500 0
DWIDTH 12 0
BBX 5 17 2 0
BITMAP
08
08
08
08
08
08
08
08
F8
08
08
08
08
08
08
08
08
ENDCHAR
STARTCHAR 02E8
ENCODING 744
SWIDTH 500 0
DWIDTH 12 0
BBX 5 17 2 0
BITMAP
08
08
08
08
08
08
08
08
08
08
08
08
F8
08
08
08
08
ENDCHAR
STARTCHAR 02E9
ENCODING 745
SWIDTH 500 0
DWIDTH 12 0
BBX 5 17 2 0
BITMAP
08
08
08
08
08
08
08
08
08
08
08
08
08
08
08
08
F8
ENDCHAR
STARTCHAR 0300
ENCODING 768
SWIDTH 500 0
DWIDTH 12 0
BBX 4 4 3 14
BITMAP
40
E0
20
10
ENDCHAR
STARTCHAR 0301
ENCODING 769
SWIDTH 500 0
DWIDTH 12 0
BBX 4 3 5 15
BITMAP
30
60
80
ENDCHAR
STARTCHAR 0302
ENCODING 770
SWIDTH 500 0
DWIDTH 12 0
BBX 6 3 3 14
BITMAP
30
78
84
ENDCHAR
STARTCHAR 0303
ENCODING 771
SWIDTH 500 0
DWIDTH 12 0
BBX 6 3 3 14
BITMAP
60
B4
0C
ENDCHAR
STARTCHAR 0304
ENCODING 772
SWIDTH 500 0
DWIDTH 12 0
BBX 6 1 3 15
BITMAP
FC
ENDCHAR
STARTCHAR 0305
ENCODING 773
SWIDTH 500 0
DWIDTH 12 0
BBX 6 1 3 15
BITMAP
FC
ENDCHAR
STARTCHAR 0306
ENCODING 774
SWIDTH 500 0
DWIDTH 12 0
BBX 6 2 3 15
BITMAP
84
78
ENDCHAR
STARTCHAR 0308
ENCODING 776
SWIDTH 500 0
DWIDTH 12 0
BBX 6 2 3 15
BITMAP
CC
CC
ENDCHAR
STARTCHAR 030B
ENCODING 779
SWIDTH 500 0
DWIDTH 12 0
BBX 6 4 3 14
BITMAP
04
64
48
90
ENDCHAR
STARTCHAR 030C
ENCODING 780
SWIDTH 500 0
DWIDTH 12 0
BBX 6 3 3 15
BITMAP
84
78
30
ENDCHAR
STARTCHAR 030F
ENCODING 783
SWIDTH 500 0
DWIDTH 12 0
BBX 6 4 3 14
BITMAP
80
98
48
24
ENDCHAR
STARTCHAR 0318
ENCODING 792
SWIDTH 500 0
DWIDTH 12 0
BBX 4 7 3 -7
BITMAP
10
10
10
F0
10
10
10
ENDCHAR
STARTCHAR 0319
ENCODING 793
SWIDTH 500 0
DWIDTH 12 0
BBX 4 7 5 -7
BITMAP
80
80
80
F0
80
80
80
ENDCHAR
STARTCHAR 031A
ENCODING 794
SWIDTH 500 0
DWIDTH 12 0
BBX 5 6 2 11
BITMAP
F8
08
08
08
08
08
ENDCHAR
STARTCHAR 031C
ENCODING 796
SWIDTH 500 0
DWIDTH 12 0
BBX 3 5 4 -6
BITMAP
60
C0
80
80
60
ENDCHAR
STARTCHAR 031D
ENCODING 797
SWIDTH 500 0
DWIDTH 12 0
BBX 7 4 2 -4
BITMAP
10
10
10
FE
ENDCHAR
STARTCHAR 031E
ENCODING 798
SWIDTH 500 0
DWIDTH 12 0
BBX 7 4 2 -6
BITMAP
FE
10
10
10
ENDCHAR
STARTCHAR 031F
ENCODING 799
SWIDTH 500 0
DWIDTH 12 0
BBX 7 7 2 -7
BITMAP
10
10
10
FE
10
10
10
ENDCHAR
STARTCHAR 0320
ENCODING 800
SWIDTH 500 0
DWIDTH 12 0
BBX 6 1 3 -3
BITMAP
FC
ENDCHAR
STARTCHAR 0324
ENCODING 804
SWIDTH 500 0
DWIDTH 12 0
BBX 6 2 3 -3
BITMAP
CC
CC
ENDCHAR
STARTCHAR 0325
ENCODING 805
SWIDTH 500 0
DWIDTH 12 0
BBX 4 3 4 -4
BITMAP
60
90
E0
ENDCHAR
STARTCHAR 0327
ENCODING 807
SWIDTH 500 0
DWIDTH 12 0
BBX 4 6 4 -5
BITMAP
40
E0
10
10
70
80
ENDCHAR
STARTCHAR 0329
ENCODING 809
SWIDTH 500 0
DWIDTH 12 0
BBX 1 6 5 -6
BITMAP
80
80
80
80
80
80
ENDCHAR
STARTCHAR 032A
ENCODING 810
SWIDTH 500 0
DWIDTH 12 0
BBX 6 4 3 -6
BITMAP
FC
84
84
84
ENDCHAR
STARTCHAR 032C
ENCODING 812
SWIDTH 500 0
DWIDTH 12 0
BBX 6 3 3 -3
BITMAP
84
78
30
ENDCHAR
STARTCHAR 032F
ENCODING 815
SWIDTH 500 0
DWIDTH 12 0
BBX 6 3 3 -4
BITMAP
78
84
84
ENDCHAR
STARTCHAR 0330
ENCODING 816
SWIDTH 500 0
DWIDTH 12 0
BBX 6 2 3 -4
BITMAP
60
9C
ENDCHAR
STARTCHAR 0332
ENCODING 818
SWIDTH 500 0
DWIDTH 12 0
BBX 12 1 0 -3
BITMAP
FFF0
ENDCHAR
STARTCHAR 0334
ENCODING 820
SWIDTH 500 0
DWIDTH 12 0
BBX 6 2 3 6
BITMAP
E0
9C
ENDCHAR
STARTCHAR 0336
ENCODING 822
SWIDTH 916 0
DWIDTH 22 0
BBX 22 1 0 9
BITMAP
FFFFFC
ENDCHAR
STARTCHAR 0339
ENCODING 825
SWIDTH 500 0
DWIDTH 12 0
BBX 3 5 5 -6
BITMAP
C0
20
20
20
C0
ENDCHAR
STARTCHAR 033A
ENCODING 826
SWIDTH 500 0
DWIDTH 12 0
BBX 6 4 3 -5
BITMAP
84
84
84
FC
ENDCHAR
STARTCHAR 033B
ENCODING 827
SWIDTH 500 0
DWIDTH 12 0
BBX 6 3 3 -5
BITMAP
FC
84
FC
ENDCHAR
STARTCHAR 033C
ENCODING 828
SWIDTH 500 0
DWIDTH 12 0
BBX 6 2 3 -4
BITMAP
D8
B4
ENDCHAR
STARTCHAR 033D
ENCODING 829
SWIDTH 500 0
DWIDTH 12 0
BBX 4 5 4 14
BITMAP
90
F0
60
F0
90
ENDCHAR
STARTCHAR 0361
ENCODING 865
SWIDTH 0 0
DWIDTH 0 0
BBX 12 3 -6 18
BITMAP
1F80
6060
8010
ENDCHAR
STARTCHAR 0391
ENCODING 913
SWIDTH 1000 0
DWIDTH 24 0
BBX 19 17 3 2
BITMAP
00C000
00C000
014000
016000
012000
023000
023000
041800
041800
080800
0FFC00
080C00
100600
100600
200300
200300
F80FE0
ENDCHAR
STARTCHAR 0392
ENCODING 914
SWIDTH 1000 0
DWIDTH 24 0
BBX 15 17 5 1
BITMAP
FFE0
3018
300C
300C
300C
300C
3018
3030
3FC0
3038
300C
3006
3006
3006
3006
300C
FFF0
ENDCHAR
STARTCHAR 0393
ENCODING 915
SWIDTH 1000 0
DWIDTH 24 0
BBX 14 17 5 1
BITMAP
FFFC
301C
3004
3004
3004
3000
3000
3000
3000
3000
3000
3000
3000
3000
3000
3000
FC00
ENDCHAR
STARTCHAR 0394
ENCODING 916
SWIDTH 1000 0
DWIDTH 24 0
BBX 16 16 4 2
BITMAP
0180
0180
02C0
02C0
0460
0460
0830
0830
1818
1018
300C
200C
200C
4006
4006
FFFF
ENDCHAR
STARTCHAR 0395
ENCODING 917
SWIDTH 1000 0
DWIDTH 24 0
BBX 14 17 5 1
BITMAP
FFF8
3018
3008
3008
3008
3040
3040
3040
3FC0
3040
3040
3000
3004
3004
300C
301C
FFFC
ENDCHAR
STARTCHAR 0396
ENCODING 918
SWIDTH 1000 0
DWIDTH 24 0
BBX 14 17 5 1
BITMAP
7FFC
6018
4038
4030
4060
00C0
01C0
0180
0300
0600
0C00
0C04
1804
3004
6004
C01C
FFFC
ENDCHAR
STARTCHAR 0397
ENCODING 919
SWIDTH 1000 0
DWIDTH 24 0
BBX 16 17 4 1
BITMAP
FC3F
300C
300C
300C
300C
300C
300C
300C
3FFC
300C
300C
300C
300C
300C
300C
300C
FC3F
ENDCHAR
STARTCHAR 0398
ENCODING 920
SWIDTH 1000 0
DWIDTH 24 0
BBX 16 18 4 0
BITMAP
07E0
1C38
300C
2004
6006
6002
C813
C813
CFF3
C813
C813
C003
C007
6006
600E
301C
1C38
07E0
ENDCHAR
STARTCHAR 0399
ENCODING 921
SWIDTH 1000 0
DWIDTH 24 0
BBX 8 17 8 1
BITMAP
FF
18
18
18
18
18
18
18
18
18
18
18
18
18
18
18
FF
ENDCHAR
STARTCHAR 039A
ENCODING 922
SWIDTH 1000 0
DWIDTH 24 0
BBX 17 17 4 1
BITMAP
FC3F00
300800
301000
302000
304000
308000
310000
338000
358000
38C000
306000
303000
301800
301800
300C00
300600
FC1F80
ENDCHAR
STARTCHAR 039B
ENCODING 923
SWIDTH 1000 0
DWIDTH 24 0
BBX 18 17 3 2
BITMAP
00C000
00C000
00C000
016000
016000
023000
023000
021000
041800
040800
0C0C00
080C00
180400
180600
100200
300300
FC1FC0
ENDCHAR
STARTCHAR 039C
ENCODING 924
SWIDTH 1000 0
DWIDTH 24 0
BBX 20 17 2 1
BITMAP
F000F0
3801C0
3801C0
2C02C0
2C02C0
2404C0
2604C0
2604C0
2308C0
2308C0
2110C0
2190C0
2190C0
20E0C0
20E0C0
2040C0
F843F0
ENDCHAR
STARTCHAR 039D
ENCODING 925
SWIDTH 1000 0
DWIDTH 24 0
BBX 18 17 3 0
BITMAP
F007C0
380100
2C0100
260100
260100
230100
218100
20C100
20E100
206100
203100
201900
200D00
200F00
200700
200300
F80100
ENDCHAR
STARTCHAR 039E
ENCODING 926
SWIDTH 1000 0
DWIDTH 24 0
BBX 14 17 5 1
BITMAP
7FF8
4008
4008
4008
0000
0000
1020
1020
1FE0
1020
1020
0000
0000
8004
8004
8004
FFFC
ENDCHAR
STARTCHAR 039F
ENCODING 927
SWIDTH 1000 0
DWIDTH 24 0
BBX 16 18 4 0
BITMAP
07E0
1C38
300C
2004
6006
6002
C003
C003
C003
C003
C003
C003
C007
6006
600E
301C
1C38
07E0
ENDCHAR
STARTCHAR 03A0
ENCODING 928
SWIDTH 1000 0
DWIDTH 24 0
BBX 16 17 4 1
BITMAP
FFFF
300C
300C
300C
300C
300C
300C
300C
300C
300C
300C
300C
300C
300C
300C
300C
FC3F
ENDCHAR
STARTCHAR 03A1
ENCODING 929
SWIDTH 1000 0
DWIDTH 24 0
BBX 14 17 5 1
BITMAP
FFE0
3018
300C
300C
300C
300C
301C
3038
3FE0
3000
3000
3000
3000
3000
3000
3000
FC00
ENDCHAR
STARTCHAR 03A3
ENCODING 931
SWIDTH 1000 0
DWIDTH 24 0
BBX 15 17 4 1
BITMAP
FFFC
600C
3004
1804
0C00
0600
0300
0180
0180
0100
0200
0400
0802
1002
2002
4006
FFFE
ENDCHAR
STARTCHAR 03A4
ENCODING 932
SWIDTH 1000 0
DWIDTH 24 0
BBX 16 17 4 1
BITMAP
FFFF
C183
8181
8181
8181
0180
0180
0180
0180
0180
0180
0180
0180
0180
0180
0180
07E0
ENDCHAR
STARTCHAR 03A5
ENCODING 933
SWIDTH 1000 0
DWIDTH 24 0
BBX 16 17 4 1
BITMAP
3C3C
6246
43C2
8181
8181
0180
0180
0180
0180
0180
0180
0180
0180
0180
0180
0180
07E0
ENDCHAR
STARTCHAR 03A6
ENCODING 934
SWIDTH 1000 0
DWIDTH 24 0
BBX 16 17 4 1
BITMAP
07E0
0180
0180
1FF0
318C
6186
C183
C183
C183
C183
C183
6186
318C
1DB8
03C0
0180
07E0
ENDCHAR
STARTCHAR 03A7
ENCODING 935
SWIDTH 1000 0
DWIDTH 24 0
BBX 18 17 3 1
BITMAP
FE1F80
180600
0C0400
040800
061000
032000
01A000
00C000
00C000
016000
023000
021800
041800
080C00
100600
300700
FC1FC0
ENDCHAR
STARTCHAR 03A8
ENCODING 936
SWIDTH 1000 0
DWIDTH 24 0
BBX 20 17 2 1
BITMAP
71F8E0
5861A0
986190
186180
186180
186180
186180
086100
086100
0C6300
046200
026400
01F800
006000
006000
006000
01F800
ENDCHAR
STARTCHAR 03A9
ENCODING 937
SWIDTH 1000 0
DWIDTH 24 0
BBX 16 17 4 1
BITMAP
07E0
1C38
300C
6006
6006
C003
C003
C003
C003
C003
C003
6006
2004
1008
8C31
8421
FC3F
ENDCHAR
STARTCHAR 03B1
ENCODING 945
SWIDTH 1000 0
DWIDTH 24 0
BBX 13 13 5 0
BITMAP
0710
0D90
18A0
30A0
60E0
60C0
E0C0
C0C0
C1C0
C2C8
C2C8
64C8
7870
ENDCHAR
STARTCHAR 03B2
ENCODING 946
SWIDTH 1000 0
DWIDTH 24 0
BBX 12 21 5 -3
BITMAP
03C0
0620
0410
0810
0810
1010
1020
1740
3780
2040
2060
2060
6060
6060
4060
60C0
5180
4F00
C000
C000
C000
ENDCHAR
STARTCHAR 03B3
ENCODING 947
SWIDTH 1000 0
DWIDTH 24 0
BBX 13 15 5 -2
BITMAP
7018
F830
8C20
0460
0440
0280
0280
0300
0300
0200
0200
0600
0600
0600
0400
ENDCHAR
STARTCHAR 03B4
ENCODING 948
SWIDTH 1000 0
DWIDTH 24 0
BBX 11 18 6 0
BITMAP
0F00
10C0
1060
0800
0C00
0200
0D00
1080
20C0
60C0
C0C0
C0C0
C0C0
C1C0
C180
C300
6700
3C00
ENDCHAR
STARTCHAR 03B5
ENCODING 949
SWIDTH 1000 0
DWIDTH 24 0
BBX 9 13 7 0
BITMAP
1F00
6080
4000
4000
4000
3E00
4000
C000
C000
C000
C080
6100
3E00
ENDCHAR
STARTCHAR 03B6
ENCODING 950
SWIDTH 1000 0
DWIDTH 24 0
BBX 11 21 6 -2
BITMAP
0400
0860
11C0
1380
0E00
0800
1000
2000
2000
4000
4000
8000
8000
8000
C000
6000
1E00
0380
0080
1880
0F00
ENDCHAR
STARTCHAR 03B7
ENCODING 951
SWIDTH 1000 0
DWIDTH 24 0
BBX 12 15 5 -2
BITMAP
71E0
8E30
0C10
0810
0810
1820
1020
1020
3060
2040
6040
00C0
00C0
0080
0180
ENDCHAR
STARTCHAR 03B8
ENCODING 952
SWIDTH 1000 0
DWIDTH 24 0
BBX 11 18 6 0
BITMAP
0780
0CC0
1860
3060
3060
6060
6060
6060
FFE0
C060
C040
C0C0
C0C0
C080
C180
4100
6200
3C00
ENDCHAR
STARTCHAR 03B9
ENCODING 953
SWIDTH 1000 0
DWIDTH 24 0
BBX 7 12 8 1
BITMAP
10
30
30
20
60
60
40
C0
C2
C4
C4
78
ENDCHAR
STARTCHAR 03BA
ENCODING 954
SWIDTH 1000 0
DWIDTH 24 0
BBX 12 13 6 0
BITMAP
1830
18E0
1380
3600
3800
3C00
6600
6200
4200
4220
C220
8340
0180
ENDCHAR
STARTCHAR 03BB
ENCODING 955
SWIDTH 1000 0
DWIDTH 24 0
BBX 13 18 5 0
BITMAP
0E00
1300
0100
0100
0100
0100
0100
0300
0700
0500
0D00
1900
1900
3100
6108
6190
C0F0
00E0
ENDCHAR
STARTCHAR 03BC
ENCODING 956
SWIDTH 1000 0
DWIDTH 24 0
BBX 14 16 4 -2
BITMAP
0408
0418
0C18
0810
1810
1830
1030
3020
3020
3064
30A4
68A4
4F18
4000
4000
C000
ENDCHAR
STARTCHAR 03BD
ENCODING 957
SWIDTH 1000 0
DWIDTH 24 0
BBX 12 12 6 0
BITMAP
7060
8870
0810
0810
0810
0820
0860
08C0
1180
1700
1C00
3000
ENDCHAR
STARTCHAR 03BE
ENCODING 958
SWIDTH 1000 0
DWIDTH 24 0
BBX 10 21 7 -2
BITMAP
1000
21C0
3780
0800
1000
1000
2000
2000
2780
1F00
2000
4000
8000
8000
8000
C000
3E00
0300
0100
3100
1E00
ENDCHAR
STARTCHAR 03BF
ENCODING 959
SWIDTH 1000 0
DWIDTH 24 0
BBX 10 13 7 0
BITMAP
1F00
3180
6180
60C0
C0C0
C0C0
C0C0
C0C0
C0C0
C180
6180
6300
3E00
ENDCHAR
STARTCHAR 03C0
ENCODING 960
SWIDTH 1000 0
DWIDTH 24 0
BBX 12 13 6 1
BITMAP
7FF0
8900
0900
1100
1100
1200
3200
2200
2200
6220
4220
C220
01C0
ENDCHAR
STARTCHAR 03C1
ENCODING 961
SWIDTH 1000 0
DWIDTH 24 0
BBX 12 15 5 -2
BITMAP
03C0
0C60
1820
1030
3030
3030
3030
7030
7860
48C0
4780
4000
C000
C000
C000
ENDCHAR
STARTCHAR 03C2
ENCODING 962
SWIDTH 500 0
DWIDTH 12 0
BBX 10 17 1 -5
BITMAP
1F00
3080
2040
60C0
60C0
6000
6000
3000
3800
1C00
0E00
0600
0300
0300
C300
C600
7C00
ENDCHAR
STARTCHAR 03C3
ENCODING 963
SWIDTH 1000 0
DWIDTH 24 0
BBX 12 13 7 0
BITMAP
1FF0
2180
6080
40C0
C0C0
C0C0
C0C0
C0C0
C0C0
C180
6180
6300
3E00
ENDCHAR
STARTCHAR 03C4
ENCODING 964
SWIDTH 1000 0
DWIDTH 24 0
BBX 12 13 6 1
BITMAP
7FF0
8200
0400
0400
0C00
0C00
0800
1800
1800
1880
1880
1900
0E00
ENDCHAR
STARTCHAR 03C5
ENCODING 965
SWIDTH 1000 0
DWIDTH 24 0
BBX 12 13 5 0
BITMAP
7020
8830
0830
0810
0810
1810
1010
3010
3020
3020
3040
1880
0F00
ENDCHAR
STARTCHAR 03C6
ENCODING 966
SWIDTH 1000 0
DWIDTH 24 0
BBX 12 19 6 -3
BITMAP
0080
0180
0100
0100
0780
1940
2260
4230
C230
C430
C430
C430
C460
68E0
3B80
0C00
0800
1000
1000
ENDCHAR
STARTCHAR 03C7
ENCODING 967
SWIDTH 1000 0
DWIDTH 24 0
BBX 12 15 6 -3
BITMAP
7020
8860
0CC0
0480
0580
0500
0600
0600
0C00
0A00
1A00
3200
6330
61E0
C1C0
ENDCHAR
STARTCHAR 03C8
ENCODING 968
SWIDTH 1000 0
DWIDTH 24 0
BBX 13 19 6 -3
BITMAP
00C0
0080
0180
0180
1120
3110
6110
6218
C218
C218
C218
C418
C430
6460
38C0
0F00
0800
1800
1800
ENDCHAR
STARTCHAR 03C9
ENCODING 969
SWIDTH 1000 0
DWIDTH 24 0
BBX 16 13 4 0
BITMAP
0404
0804
1002
2003
60C3
40C3
C1C3
C183
C182
C106
C284
6488
3870
ENDCHAR
STARTCHAR 0401
ENCODING 1025
SWIDTH 1000 0
DWIDTH 24 0
BBX 14 20 5 1
BITMAP
1860
1860
0000
FFF8
3018
3008
3008
3008
3040
3040
3040
3FC0
3040
3040
3000
3004
3004
300C
301C
FFFC
ENDCHAR
STARTCHAR 0410
ENCODING 1040
SWIDTH 1000 0
DWIDTH 24 0
BBX 19 17 3 2
BITMAP
00C000
00C000
014000
016000
012000
023000
023000
041800
041800
080800
0FFC00
080C00
100600
100600
200300
200300
F80FE0
ENDCHAR
STARTCHAR 0411
ENCODING 1041
SWIDTH 1000 0
DWIDTH 24 0
BBX 14 17 5 1
BITMAP
FFF8
3018
3008
3008
3008
3000
3000
3000
3FE0
3038
301C
300C
300C
300C
300C
3018
FFE0
ENDCHAR
STARTCHAR 0412
ENCODING 1042
SWIDTH 1000 0
DWIDTH 24 0
BBX 15 17 5 1
BITMAP
FFE0
3018
300C
300C
300C
300C
3018
3030
3FC0
3038
300C
3006
3006
3006
3006
300C
FFF0
ENDCHAR
STARTCHAR 0413
ENCODING 1043
SWIDTH 1000 0
DWIDTH 24 0
BBX 14 17 5 1
BITMAP
FFFC
301C
3004
3004
3004
3000
3000
3000
3000
3000
3000
3000
3000
3000
3000
3000
FC00
ENDCHAR
STARTCHAR 0414
ENCODING 1044
SWIDTH 1000 0
DWIDTH 24 0
BBX 16 20 4 -2
BITMAP
1FFF
040C
040C
040C
040C
080C
080C
080C
080C
080C
080C
100C
100C
200C
200C
400C
FFFF
C001
8001
8000
ENDCHAR
STARTCHAR 0415
ENCODING 1045
SWIDTH 1000 0
DWIDTH 24 0
BBX 14 17 5 1
BITMAP
FFF8
3018
3008
3008
3008
3040
3040
3040
3FC0
3040
3040
3000
3004
3004
300C
301C
FFFC
ENDCHAR
STARTCHAR 0416
ENCODING 1046
SWIDTH 1000 0
DWIDTH 24 0
BBX 22 17 1 1
BITMAP
30FC30
683058
683058
083080
043080
043080
023100
013200
01FE00
033300
063180
063180
0C30C0
183060
183060
303030
F8FC7C
ENDCHAR
STARTCHAR 0417
ENCODING 1047
SWIDTH 1000 0
DWIDTH 24 0
BBX 13 18 6 0
BITMAP
1F80
7060
4030
4030
0030
0030
00E0
0F00
00E0
0030
0018
0018
8018
8018
C038
E070
70E0
1F80
ENDCHAR
STARTCHAR 0418
ENCODING 1048
SWIDTH 1000 0
DWIDTH 24 0
BBX 16 17 4 1
BITMAP
FC3F
300C
300C
300C
301C
302C
304C
308C
310C
320C
340C
380C
300C
300C
300C
300C
FC3F
ENDCHAR
STARTCHAR 0419
ENCODING 1049
SWIDTH 1000 0
DWIDTH 24 0
BBX 16 20 4 1
BITMAP
0660
0660
03C0
FC3F
300C
300C
300C
301C
302C
304C
308C
310C
320C
340C
380C
300C
300C
300C
300C
FC3F
ENDCHAR
STARTCHAR 041A
ENCODING 1050
SWIDTH 1000 0
DWIDTH 24 0
BBX 17 17 4 2
BITMAP
FC0F00
301700
301700
302000
302000
304000
308000
378000
398000
30C000
306000
303000
301800
301800
300C00
300600
FC1F80
ENDCHAR
STARTCHAR 041B
ENCODING 1051
SWIDTH 1000 0
DWIDTH 24 0
BBX 18 18 2 0
BITMAP
07FFC0
018300
010300
010300
010300
010300
010300
010300
010300
010300
010300
010300
630300
E30300
E20300
C20300
440FC0
380000
ENDCHAR
STARTCHAR 041C
ENCODING 1052
SWIDTH 1000 0
DWIDTH 24 0
BBX 22 17 1 1
BITMAP
3C00F0
0E01C0
0E01C0
0B01C0
0B0240
090240
098440
098440
108460
10C860
104860
107060
107060
103060
102060
100060
FC01FC
ENDCHAR
STARTCHAR 041D
ENCODING 1053
SWIDTH 1000 0
DWIDTH 24 0
BBX 16 17 4 1
BITMAP
FC3F
300C
300C
300C
300C
300C
300C
300C
3FFC
300C
300C
300C
300C
300C
300C
300C
FC3F
ENDCHAR
STARTCHAR 041E
ENCODING 1054
SWIDTH 1000 0
DWIDTH 24 0
BBX 16 18 4 0
BITMAP
07E0
1C38
300C
2004
6006
6002
C003
C003
C003
C003
C003
C003
C007
6006
600E
301C
1C38
07E0
ENDCHAR
STARTCHAR 041F
ENCODING 1055
SWIDTH 1000 0
DWIDTH 24 0
BBX 16 17 4 1
BITMAP
FFFF
300C
300C
300C
300C
300C
300C
300C
300C
300C
300C
300C
300C
300C
300C
300C
FC3F
ENDCHAR
STARTCHAR 0420
ENCODING 1056
SWIDTH 1000 0
DWIDTH 24 0
BBX 14 17 5 1
BITMAP
FFE0
3018
300C
300C
300C
300C
301C
3038
3FE0
3000
3000
3000
3000
3000
3000
3000
FC00
ENDCHAR
STARTCHAR 0421
ENCODING 1057
SWIDTH 1000 0
DWIDTH 24 0
BBX 16 18 4 0
BITMAP
03F8
0C0E
1006
2002
6002
4000
C000
C000
C000
C000
C000
C001
6001
6003
3003
3807
0C0C
03F0
ENDCHAR
STARTCHAR 0422
ENCODING 1058
SWIDTH 1000 0
DWIDTH 24 0
BBX 16 17 4 1
BITMAP
FFFF
C183
8181
8181
8181
0180
0180
0180
0180
0180
0180
0180
0180
0180
0180
0180
07E0
ENDCHAR
STARTCHAR 0423
ENCODING 1059
SWIDTH 1000 0
DWIDTH 24 0
BBX 16 18 4 0
BITMAP
FE3F
3804
1808
0C08
0C10
0610
0610
0320
0320
01C0
01C0
0080
0080
6100
6100
4200
6400
3C00
ENDCHAR
STARTCHAR 0424
ENCODING 1060
SWIDTH 1000 0
DWIDTH 24 0
BBX 16 17 4 1
BITMAP
07E0
0180
0180
1FF0
318C
6186
C183
C183
C183
C183
C183
6186
318C
1DB8
03C0
0180
07E0
ENDCHAR
STARTCHAR 0425
ENCODING 1061
SWIDTH 1000 0
DWIDTH 24 0
BBX 18 17 3 1
BITMAP
FE1F80
180600
0C0400
040800
061000
032000
01A000
00C000
00C000
016000
023000
021800
041800
080C00
100600
300700
FC1FC0
ENDCHAR
STARTCHAR 0426
ENCODING 1062
SWIDTH 1000 0
DWIDTH 24 0
BBX 17 19 3 -2
BITMAP
FC1F80
300600
300600
300600
300600
300600
300600
300600
300600
300600
300600
300600
300600
300600
300600
300600
FFFF80
000080
000080
ENDCHAR
STARTCHAR 0427
ENCODING 1063
SWIDTH 1000 0
DWIDTH 24 0
BBX 16 17 4 1
BITMAP
FC3F
300C
300C
300C
300C
300C
300C
300C
300C
183C
0FCC
000C
000C
000C
000C
000C
003F
ENDCHAR
STARTCHAR 0428
ENCODING 1064
SWIDTH 1000 0
DWIDTH 24 0
BBX 20 17 2 1
BITMAP
FDFBF0
3060C0
3060C0
3060C0
3060C0
3060C0
3060C0
3060C0
3060C0
3060C0
3060C0
3060C0
3060C0
3060C0
3060C0
3060C0
FFFFF0
ENDCHAR
STARTCHAR 0429
ENCODING 1065
SWIDTH 1000 0
DWIDTH 24 0
BBX 20 19 2 -2
BITMAP
FDFBF0
3060C0
3060C0
3060C0
3060C0
3060C0
3060C0
3060C0
3060C0
3060C0
3060C0
3060C0
3060C0
3060C0
3060C0
3060C0
FFFFF0
000010
000010
ENDCHAR
STARTCHAR 042A
ENCODING 1066
SWIDTH 1000 0
DWIDTH 24 0
BBX 19 17 3 1
BITMAP
FFC000
C30000
830000
830000
830000
030000
030000
030000
03FF00
0301C0
0300E0
030060
030060
030060
030060
0300C0
0FFF00
ENDCHAR
STARTCHAR 042B
ENCODING 1067
SWIDTH 1000 0
DWIDTH 24 0
BBX 20 17 2 1
BITMAP
FC03F0
3000C0
3000C0
3000C0
3000C0
3000C0
3000C0
3000C0
3FE0C0
3038C0
3018C0
300CC0
300CC0
300CC0
3008C0
3018C0
FFE3F0
ENDCHAR
STARTCHAR 042C
ENCODING 1068
SWIDTH 1000 0
DWIDTH 24 0
BBX 15 17 5 1
BITMAP
FC00
3000
3000
3000
3000
3000
3000
3000
3FF0
301C
300E
3006
3006
3006
3006
300C
FFF0
ENDCHAR
STARTCHAR 042D
ENCODING 1069
SWIDTH 1000 0
DWIDTH 24 0
BBX 16 18 4 0
BITMAP
1FC0
7038
600C
4006
0006
0003
0F03
11C3
007F
0003
0003
8003
8006
C006
C00C
E01C
3030
0FC0
ENDCHAR
STARTCHAR 042E
ENCODING 1070
SWIDTH 1000 0
DWIDTH 24 0
BBX 20 18 2 0
BITMAP
FC1F00
306180
3040C0
30C060
308060
318030
318030
318030
3F8030
318030
318030
318030
318030
30C060
30C060
3060C0
FC7180
001F00
ENDCHAR
STARTCHAR 042F
ENCODING 1071
SWIDTH 1000 0
DWIDTH 24 0
BBX 16 17 3 0
BITMAP
07FF
180C
300C
300C
300C
300C
380C
1C0C
07FC
030C
030C
060C
060C
0C0C
180C
300C
C03F
ENDCHAR
STARTCHAR 0430
ENCODING 1072
SWIDTH 1000 0
DWIDTH 24 0
BBX 12 13 7 0
BITMAP
7E00
C300
C180
C180
0380
1D80
6180
E180
C180
C180
C390
65A0
78C0
ENDCHAR
STARTCHAR 0431
ENCODING 1073
SWIDTH 1000 0
DWIDTH 24 0
BBX 12 18 6 1
BITMAP
0020
0060
0F80
3000
2000
4F80
70C0
E060
C020
C030
C030
C030
C030
C030
6060
6060
30C0
0F80
ENDCHAR
STARTCHAR 0432
ENCODING 1074
SWIDTH 1000 0
DWIDTH 24 0
BBX 12 12 5 1
BITMAP
FFC0
3060
3060
3060
30C0
3FC0
3060
3030
3030
3030
3060
FFC0
ENDCHAR
STARTCHAR 0433
ENCODING 1075
SWIDTH 1000 0
DWIDTH 24 0
BBX 12 12 6 1
BITMAP
FFF0
3030
3010
3010
3010
3000
3000
3000
3000
3000
3000
FC00
ENDCHAR
STARTCHAR 0434
ENCODING 1076
SWIDTH 1000 0
DWIDTH 24 0
BBX 14 15 5 -2
BITMAP
3FFC
0860
0860
0860
1060
1060
1060
1060
2060
2060
4060
FFFC
800C
8004
8004
ENDCHAR
STARTCHAR 0435
ENCODING 1077
SWIDTH 1000 0
DWIDTH 24 0
BBX 11 13 6 0
BITMAP
1F00
30C0
6040
4060
C060
FFE0
C000
C000
C000
6020
6040
30C0
1F00
ENDCHAR
STARTCHAR 0436
ENCODING 1078
SWIDTH 1000 0
DWIDTH 24 0
BBX 20 12 2 1
BITMAP
71F8E0
686160
086200
046200
026400
07FE00
046200
0C6300
086100
186180
3060C0
FDFBF0
ENDCHAR
STARTCHAR 0437
ENCODING 1079
SWIDTH 1000 0
DWIDTH 24 0
BBX 10 13 7 0
BITMAP
3E00
6380
4180
4180
0180
1E00
0180
00C0
80C0
80C0
C0C0
6180
3F00
ENDCHAR
STARTCHAR 0438
ENCODING 1080
SWIDTH 1000 0
DWIDTH 24 0
BBX 14 12 5 1
BITMAP
FCFC
3030
3070
3070
30B0
3130
3230
3430
3830
3030
3030
FCFC
ENDCHAR
STARTCHAR 0439
ENCODING 1081
SWIDTH 1000 0
DWIDTH 24 0
BBX 14 16 5 1
BITMAP
0CC0
0CC0
0780
0000
FCFC
3030
3070
3070
30B0
3130
3230
3430
3830
3030
3030
FCFC
ENDCHAR
STARTCHAR 043A
ENCODING 1082
SWIDTH 1000 0
DWIDTH 24 0
BBX 14 12 6 1
BITMAP
FC38
3058
3040
3080
3180
3F80
3180
30C0
3060
3060
3030
FC7C
ENDCHAR
STARTCHAR 043B
ENCODING 1083
SWIDTH 1000 0
DWIDTH 24 0
BBX 15 13 3 0
BITMAP
0FFE
0218
0218
0218
0218
0418
0418
0418
C418
C418
C418
C87E
7000
ENDCHAR
STARTCHAR 043C
ENCODING 1084
SWIDTH 1000 0
DWIDTH 24 0
BBX 16 12 4 1
BITMAP
F01F
381C
282C
282C
2C2C
244C
264C
228C
228C
238C
210C
F93F
ENDCHAR
STARTCHAR 043D
ENCODING 1085
SWIDTH 1000 0
DWIDTH 24 0
BBX 14 12 5 1
BITMAP
FCFC
3030
3030
3030
3030
3FF0
3030
3030
3030
3030
3030
FCFC
ENDCHAR
STARTCHAR 043E
ENCODING 1086
SWIDTH 1000 0
DWIDTH 24 0
BBX 12 13 6 0
BITMAP
0F00
30C0
6060
6020
C030
C030
C030
C030
C030
6060
6060
30C0
1F80
ENDCHAR
STARTCHAR 043F
ENCODING 1087
SWIDTH 1000 0
DWIDTH 24 0
BBX 14 12 5 1
BITMAP
FFFC
3030
3030
3030
3030
3030
3030
3030
3030
3030
3030
FCFC
ENDCHAR
STARTCHAR 0440
ENCODING 1088
SWIDTH 1000 0
DWIDTH 24 0
BBX 13 15 5 -1
BITMAP
F7C0
3860
3030
3018
3018
3018
3018
3018
3030
3870
37C0
3000
3000
3000
FC00
ENDCHAR
STARTCHAR 0441
ENCODING 1089
SWIDTH 1000 0
DWIDTH 24 0
BBX 11 13 6 0
BITMAP
0F80
3040
60E0
60E0
C000
C000
C000
C000
C000
6020
7040
38C0
1F00
ENDCHAR
STARTCHAR 0442
ENCODING 1090
SWIDTH 1000 0
DWIDTH 24 0
BBX 12 12 6 1
BITMAP
FFF0
C630
8610
8610
0600
0600
0600
0600
0600
0600
0600
1F80
ENDCHAR
STARTCHAR 0443
ENCODING 1091
SWIDTH 1000 0
DWIDTH 24 0
BBX 14 15 5 -2
BITMAP
FC7C
3010
1010
1820
0C20
0C40
0640
0680
0380
0100
0100
0200
0200
3600
3C00
ENDCHAR
STARTCHAR 0444
ENCODING 1092
SWIDTH 1000 0
DWIDTH 24 0
BBX 14 21 5 -2
BITMAP
0300
0700
0300
0300
0300
0300
3FF0
6318
4318
C30C
C30C
C30C
C30C
C30C
6318
6318
3FF0
0300
0300
0300
0FC0
ENDCHAR
STARTCHAR 0445
ENCODING 1093
SWIDTH 1000 0
DWIDTH 24 0
BBX 14 12 5 1
BITMAP
FCF8
1020
1840
0C80
0700
0300
0780
0480
08C0
1060
2030
F8FC
ENDCHAR
STARTCHAR 0446
ENCODING 1094
SWIDTH 1000 0
DWIDTH 24 0
BBX 14 15 5 -2
BITMAP
FDF8
3060
3060
3060
3060
3060
3060
3060
3060
3060
3060
FFFC
000C
0004
0004
ENDCHAR
STARTCHAR 0447
ENCODING 1095
SWIDTH 1000 0
DWIDTH 24 0
BBX 14 12 4 1
BITMAP
FCFC
3030
3030
3030
3030
3030
1870
0FB0
0030
0030
0030
00FC
ENDCHAR
STARTCHAR 0448
ENCODING 1096
SWIDTH 1000 0
DWIDTH 24 0
BBX 18 12 3 1
BITMAP
F9E7C0
30C300
30C300
30C300
30C300
30C300
30C300
30C300
30C300
30C300
30C300
FFFFC0
ENDCHAR
STARTCHAR 0449
ENCODING 1097
SWIDTH 1000 0
DWIDTH 24 0
BBX 18 15 3 -2
BITMAP
F9E7C0
30C300
30C300
30C300
30C300
30C300
30C300
30C300
30C300
30C300
30C300
FFFFC0
000040
000040
000040
ENDCHAR
STARTCHAR 044A
ENCODING 1098
SWIDTH 1000 0
DWIDTH 24 0
BBX 14 12 5 1
BITMAP
FF00
8C00
8C00
0C00
0C00
0FF0
0C18
0C0C
0C0C
0C0C
0C18
3FF0
ENDCHAR
STARTCHAR 044B
ENCODING 1099
SWIDTH 1000 0
DWIDTH 24 0
BBX 16 12 4 1
BITMAP
FC3F
300C
300C
300C
300C
3F8C
31CC
30CC
30CC
30CC
30CC
FFBF
ENDCHAR
STARTCHAR 044C
ENCODING 1100
SWIDTH 1000 0
DWIDTH 24 0
BBX 12 12 6 1
BITMAP
FC00
3000
3000
3000
3000
3FC0
3060
3030
3030
3030
3060
FFC0
ENDCHAR
STARTCHAR 044D
ENCODING 1101
SWIDTH 1000 0
DWIDTH 24 0
BBX 12 13 6 0
BITMAP
1F80
70C0
4060
4030
0030
1C30
23F0
0030
0030
8060
4060
30C0
1F00
ENDCHAR
STARTCHAR 044E
ENCODING 1102
SWIDTH 1000 0
DWIDTH 24 0
BBX 18 13 3 0
BITMAP
FC3E00
30C300
318180
318180
3100C0
3F00C0
3100C0
3100C0
3100C0
318180
308180
FC4300
003E00
ENDCHAR
STARTCHAR 044F
ENCODING 1103
SWIDTH 1000 0
DWIDTH 24 0
BBX 13 12 5 0
BITMAP
1FF8
6060
6060
6060
7060
1FE0
0C60
0860
1860
3060
6060
C1F8
ENDCHAR
STARTCHAR 0451
ENCODING 1105
SWIDTH 1000 0
DWIDTH 24 0
BBX 11 17 6 0
BITMAP
30C0
30C0
0000
0000
1F00
30C0
6040
4060
C060
FFE0
C000
C000
C000
6020
6040
30C0
1F00
ENDCHAR
STARTCHAR 1E3E
ENCODING 7742
SWIDTH 958 0
DWIDTH 23 0
BBX 20 22 1 0
BITMAP
001000
003000
006000
000000
000000
F801F0
3801C0
2802C0
2C02C0
2C02C0
2404C0
2604C0
260CC0
2308C0
2308C0
2110C0
2190C0
2190C0
20A0C0
20E0C0
2040C0
F843F0
ENDCHAR
STARTCHAR 1E3F
ENCODING 7743
SWIDTH 916 0
DWIDTH 22 0
BBX 20 17 1 1
BITMAP
003800
006000
000000
000000
000000
F38F00
3CD180
3870C0
3060C0
3060C0
3060C0
3060C0
3060C0
3060C0
3060C0
3060C0
FDFBF0
ENDCHAR
STARTCHAR 1F70
ENCODING 8048
SWIDTH 583 0
DWIDTH 14 0
BBX 12 18 2 0
BITMAP
1000
3800
0C00
0000
0000
0000
1F40
31C0
60C0
C040
C040
C040
C040
C040
C040
60C0
3140
1E30
ENDCHAR
STARTCHAR 1F71
ENCODING 8049
SWIDTH 583 0
DWIDTH 14 0
BBX 12 17 2 1
BITMAP
0180
0200
0400
0000
0000
1F40
31C0
60C0
C040
C040
C040
C040
C040
C040
60C0
3140
1E30
ENDCHAR
STARTCHAR 1F72
ENCODING 8050
SWIDTH 500 0
DWIDTH 12 0
BBX 9 17 2 1
BITMAP
6000
1000
0800
0000
0000
3F80
6000
C000
C000
6000
3E00
6000
C000
C000
C000
E080
3F00
ENDCHAR
STARTCHAR 1F73
ENCODING 8051
SWIDTH 500 0
DWIDTH 12 0
BBX 9 17 2 1
BITMAP
0300
0400
0800
0000
0000
3F80
6000
C000
C000
6000
3E00
6000
C000
C000
C000
E080
3F00
ENDCHAR
STARTCHAR 2002
ENCODING 8194
SWIDTH 500 0
DWIDTH 12 0
BBX 0 0 0 0
BITMAP
ENDCHAR
STARTCHAR 2003
ENCODING 8195
SWIDTH 1000 0
DWIDTH 24 0
BBX 0 0 0 0
BITMAP
ENDCHAR
STARTCHAR 2010
ENCODING 8208
SWIDTH 291 0
DWIDTH 7 0
BBX 5 1 1 7
BITMAP
F8
ENDCHAR
STARTCHAR 2011
ENCODING 8209
SWIDTH 291 0
DWIDTH 7 0
BBX 5 1 1 7
BITMAP
F8
ENDCHAR
STARTCHAR 2012
ENCODING 8210
SWIDTH 291 0
DWIDTH 7 0
BBX 5 1 1 7
BITMAP
F8
ENDCHAR
STARTCHAR 2013
ENCODING 8211
SWIDTH 541 0
DWIDTH 13 0
BBX 11 1 1 7
BITMAP
FFE0
ENDCHAR
STARTCHAR 2014
ENCODING 8212
SWIDTH 916 0
DWIDTH 22 0
BBX 22 1 0 9
BITMAP
FFFFFC
ENDCHAR
STARTCHAR 2015
ENCODING 8213
SWIDTH 1000 0
DWIDTH 24 0
BBX 22 1 1 9
BITMAP
FFFFFC
ENDCHAR
STARTCHAR 2016
ENCODING 8214
SWIDTH 1000 0
DWIDTH 24 0
BBX 4 24 10 -2
BITMAP
90
90
90
90
90
90
90
90
90
90
90
90
90
90
90
90
90
90
90
90
90
90
90
90
ENDCHAR
STARTCHAR 2018
ENCODING 8216
SWIDTH 1000 0
DWIDTH 24 0
BBX 3 6 19 15
BITMAP
20
40
C0
C0
E0
E0
ENDCHAR
STARTCHAR 2019
ENCODING 8217
SWIDTH 1000 0
DWIDTH 24 0
BBX 3 7 2 13
BITMAP
C0
E0
E0
20
40
40
80
ENDCHAR
STARTCHAR 201C
ENCODING 8220
SWIDTH 1000 0
DWIDTH 24 0
BBX 8 6 14 15
BITMAP
21
42
C6
C6
E7
E7
ENDCHAR
STARTCHAR 201D
ENCODING 8221
SWIDTH 1000 0
DWIDTH 24 0
BBX 8 7 2 13
BITMAP
C6
E7
E7
23
42
44
80
ENDCHAR
STARTCHAR 2020
ENCODING 8224
SWIDTH 1000 0
DWIDTH 24 0
BBX 9 22 8 -2
BITMAP
1C00
1C00
1C00
1C00
EB80
FF80
EB80
0800
1C00
1C00
0800
0800
0800
0800
0800
0800
0800
0800
0800
0800
0800
0800
ENDCHAR
STARTCHAR 2021
ENCODING 8225
SWIDTH 1000 0
DWIDTH 24 0
BBX 10 22 7 -2
BITMAP
0C00
0C00
0C00
E9C0
FFC0
EDC0
0C00
0C00
0800
0800
0800
0800
0800
0C00
0C00
0C00
EDC0
FFC0
EDC0
0C00
0C00
0C00
ENDCHAR
STARTCHAR 2022
ENCODING 8226
SWIDTH 375 0
DWIDTH 9 0
BBX 4 4 2 6
BITMAP
60
F0
F0
60
ENDCHAR
STARTCHAR 2025
ENCODING 8229
SWIDTH 1000 0
DWIDTH 24 0
BBX 15 3 4 8
BITMAP
E00E
E00E
E00E
ENDCHAR
STARTCHAR 2026
ENCODING 8230
SWIDTH 1000 0
DWIDTH 24 0
BBX 19 3 3 8
BITMAP
E0E0E0
E0E0E0
E0E0E0
ENDCHAR
STARTCHAR 2030
ENCODING 8240
SWIDTH 1000 0
DWIDTH 24 0
BBX 22 22 1 -2
BITMAP
000800
381000
441000
822000
822000
824000
824000
828000
448000
390000
010000
020000
027070
048888
050504
090504
090504
110504
110504
208888
207070
400000
ENDCHAR
STARTCHAR 2032
ENCODING 8242
SWIDTH 250 0
DWIDTH 6 0
BBX 3 7 1 13
BITMAP
20
20
60
40
40
80
80
ENDCHAR
STARTCHAR 2033
ENCODING 8243
SWIDTH 416 0
DWIDTH 10 0
BBX 7 7 1 13
BITMAP
26
26
64
44
48
88
80
ENDCHAR
STARTCHAR 203B
ENCODING 8251
SWIDTH 1000 0
DWIDTH 24 0
BBX 19 18 2 0
BITMAP
40E020
20E040
10E080
080100
040200
020400
010800
009000
E060E0
E060E0
6090E0
010800
020400
040200
080100
10E080
20E040
40E020
ENDCHAR
STARTCHAR 203C
ENCODING 8252
SWIDTH 458 0
DWIDTH 11 0
BBX 7 17 2 0
BITMAP
46
46
46
46
46
46
46
46
44
44
44
44
00
00
EE
EE
EE
ENDCHAR
STARTCHAR 203E
ENCODING 8254
SWIDTH 500 0
DWIDTH 12 0
BBX 6 1 3 15
BITMAP
FC
ENDCHAR
STARTCHAR 203F
ENCODING 8255
SWIDTH 458 0
DWIDTH 11 0
BBX 10 2 0 -2
BITMAP
C0C0
3F00
ENDCHAR
STARTCHAR 2042
ENCODING 8258
SWIDTH 1000 0
DWIDTH 24 0
BBX 16 18 4 0
BITMAP
0180
0180
05A0
03C0
0340
05A0
0180
0180
0000
0000
300C
B42D
681A
300C
681A
B42D
300C
300C
ENDCHAR
STARTCHAR 2047
ENCODING 8263
SWIDTH 958 0
DWIDTH 23 0
BBX 21 17 1 0
BITMAP
1E07C0
618C70
C0D038
C0D018
E0D818
E0D818
018030
030060
0600C0
0C0100
080100
080100
000000
000000
1C0380
1C0380
1C0380
ENDCHAR
STARTCHAR 2048
ENCODING 8264
SWIDTH 708 0
DWIDTH 17 0
BBX 14 17 1 0
BITMAP
1E0C
618C
C0CC
C0CC
E0CC
E0CC
018C
030C
0608
0C08
0808
0808
0000
0000
1C1C
1C1C
1C1C
ENDCHAR
STARTCHAR 2049
ENCODING 8265
SWIDTH 708 0
DWIDTH 17 0
BBX 14 17 2 0
BITMAP
43E0
4638
4C1C
4C0C
4E0C
4E0C
4018
4030
4060
40C0
4080
4080
0000
0000
E1C0
E1C0
E1C0
ENDCHAR
STARTCHAR 2051
ENCODING 8273
SWIDTH 1000 0
DWIDTH 24 0
BBX 6 18 9 0
BITMAP
30
B4
68
30
68
B4
30
00
00
00
00
30
B4
68
30
68
B4
30
ENDCHAR
STARTCHAR 205A
ENCODING 8282
SWIDTH 1000 0
DWIDTH 24 0
BBX 3 15 10 2
BITMAP
E0
E0
E0
00
00
00
00
00
00
00
00
00
E0
E0
E0
ENDCHAR
STARTCHAR 205D
ENCODING 8285
SWIDTH 1000 0
DWIDTH 24 0
BBX 3 19 11 0
BITMAP
E0
E0
E0
00
00
00
00
00
E0
E0
E0
00
00
00
00
00
E0
E0
E0
ENDCHAR
STARTCHAR 20AC
ENCODING 8364
SWIDTH 625 0
DWIDTH 15 0
BBX 13 17 0 1
BITMAP
03E8
0C18
1808
3008
3000
3000
FFC0
2000
2000
FFC0
2000
3000
3000
3008
1808
0C10
07E0
ENDCHAR
STARTCHAR 2103
ENCODING 8451
SWIDTH 1000 0
DWIDTH 24 0
BBX 20 19 1 1
BITMAP
700000
880000
887F20
89C1E0
730060
070020
060020
0C0000
0C0000
0C0000
0C0000
0C0000
0C0000
0C0010
060020
070020
038040
01C180
007E00
ENDCHAR
STARTCHAR 210F
ENCODING 8463
SWIDTH 541 0
DWIDTH 13 0
BBX 11 18 1 0
BITMAP
0800
3800
1800
3F00
5000
1000
3380
3640
2840
3840
7040
6080
6080
4080
4180
C120
C140
8180
ENDCHAR
STARTCHAR 2113
ENCODING 8467
SWIDTH 1000 0
DWIDTH 24 0
BBX 12 18 6 0
BITMAP
01C0
0320
0620
0C20
0C20
1820
1840
1840
3080
3080
3100
3200
3400
3810
3020
D040
1880
0F00
ENDCHAR
STARTCHAR 2116
ENCODING 8470
SWIDTH 1000 0
DWIDTH 24 0
BBX 21 17 2 0
BITMAP
E1C000
608000
708000
508000
508000
588700
488880
4C9080
449040
469040
469040
429040
439040
419040
418880
408898
E08718
ENDCHAR
STARTCHAR 2121
ENCODING 8481
SWIDTH 1000 0
DWIDTH 24 0
BBX 22 17 1 1
BITMAP
FF8000
888000
888000
080000
08FDE0
084440
084440
084040
084840
084840
087840
084840
084040
084044
084444
084444
3EFDFC
ENDCHAR
STARTCHAR 2127
ENCODING 8487
SWIDTH 833 0
DWIDTH 20 0
BBX 18 17 1 0
BITMAP
7F3F80
7F1F80
421080
440840
880640
180200
180300
300100
300180
300180
300180
300180
300180
180300
0C0600
060C00
03F800
ENDCHAR
STARTCHAR 212B
ENCODING 8491
SWIDTH 1000 0
DWIDTH 24 0
BBX 18 19 3 1
BITMAP
00C000
012000
012000
00C000
00C000
00C000
014000
016000
022000
023000
023000
041800
041800
0FF800
080C00
180C00
100600
300600
FC1FC0
ENDCHAR
STARTCHAR 2135
ENCODING 8501
SWIDTH 708 0
DWIDTH 17 0
BBX 14 17 1 0
BITMAP
1010
2020
6030
6008
7014
3824
1C40
1E40
6780
61C0
60E0
6070
3038
3018
3018
3010
C010
ENDCHAR
STARTCHAR 2153
ENCODING 8531
SWIDTH 750 0
DWIDTH 18 0
BBX 15 17 2 0
BITMAP
E00C
2008
2010
2020
2020
2040
2080
F9BC
0142
0262
0602
040C
081C
1802
1062
2046
403C
ENDCHAR
STARTCHAR 2154
ENCODING 8532
SWIDTH 750 0
DWIDTH 18 0
BBX 16 17 1 0
BITMAP
7806
C404
C408
0418
0810
3020
4060
44C0
FC9C
0123
0331
0201
040E
0803
0831
1031
201E
ENDCHAR
STARTCHAR 2155
ENCODING 8533
SWIDTH 750 0
DWIDTH 18 0
BBX 15 17 2 0
BITMAP
E00C
2008
2010
2030
2020
2040
2080
2180
513E
0240
0640
047C
0846
1802
1062
2046
403C
ENDCHAR
STARTCHAR 2160
ENCODING 8544
SWIDTH 1000 0
DWIDTH 24 0
BBX 7 17 8 1
BITMAP
FE
10
10
10
10
10
10
10
10
10
10
10
10
10
10
10
FE
ENDCHAR
STARTCHAR 2161
ENCODING 8545
SWIDTH 1000 0
DWIDTH 24 0
BBX 14 17 5 1
BITMAP
FFFC
2010
2010
2010
2010
2010
2010
2010
2010
2010
2010
2010
2010
2010
2010
2010
FFFC
ENDCHAR
STARTCHAR 2162
ENCODING 8546
SWIDTH 1000 0
DWIDTH 24 0
BBX 18 17 3 1
BITMAP
FFFFC0
208100
208100
208100
208100
208100
208100
208100
208100
208100
208100
208100
208100
208100
208100
208100
FFFFC0
ENDCHAR
STARTCHAR 2163
ENCODING 8547
SWIDTH 1000 0
DWIDTH 24 0
BBX 20 17 3 0
BITMAP
FFE1F0
230040
230080
218080
218080
208100
20C100
20C100
204200
206200
206200
202400
203400
203400
201800
201800
F81800
ENDCHAR
STARTCHAR 2164
ENCODING 8548
SWIDTH 1000 0
DWIDTH 24 0
BBX 18 17 3 0
BITMAP
FE0FC0
300300
100200
180600
080400
0C0400
0C0C00
060800
060800
021000
031000
031000
01A000
01A000
00C000
00C000
004000
ENDCHAR
STARTCHAR 2165
ENCODING 8549
SWIDTH 1000 0
DWIDTH 24 0
BBX 20 17 1 0
BITMAP
FC1FF0
300440
300840
180840
180840
081040
0C1040
0C1040
042040
062040
062040
024040
034040
034040
018040
018040
0181F0
ENDCHAR
STARTCHAR 2166
ENCODING 8550
SWIDTH 1000 0
DWIDTH 24 0
BBX 21 17 2 0
BITMAP
F87FF8
601220
202220
302220
302220
102220
104220
184220
084220
088220
0C8220
048220
050220
070220
070220
020220
020FF8
ENDCHAR
STARTCHAR 2167
ENCODING 8551
SWIDTH 1000 0
DWIDTH 24 0
BBX 22 17 1 0
BITMAP
FCFFFC
202488
202488
304488
104488
104488
104488
188488
088488
088488
0C8488
050488
050488
070488
060488
020488
020FFC
ENDCHAR
STARTCHAR 2168
ENCODING 8552
SWIDTH 1000 0
DWIDTH 24 0
BBX 19 17 2 1
BITMAP
FFF3E0
20C180
20C100
206200
206200
203400
203400
201800
201800
201C00
202600
204600
204300
208300
210180
210180
FFE3E0
ENDCHAR
STARTCHAR 2169
ENCODING 8553
SWIDTH 1000 0
DWIDTH 24 0
BBX 18 17 3 1
BITMAP
FE1F80
180600
0C0400
040800
061000
032000
01A000
00C000
00C000
016000
023000
021800
041800
080C00
100600
300700
FC1FC0
ENDCHAR
STARTCHAR 216A
ENCODING 8554
SWIDTH 1000 0
DWIDTH 24 0
BBX 19 17 3 1
BITMAP
FCFFE0
302080
184080
184080
0C8080
048080
070080
030080
030080
058080
058080
08C080
08C080
106080
202080
203080
F8FFE0
ENDCHAR
STARTCHAR 216B
ENCODING 8555
SWIDTH 1000 0
DWIDTH 24 0
BBX 21 17 2 1
BITMAP
FCFFF8
302220
104220
184220
0C8220
0C8220
070220
020220
030220
050220
058220
08C220
08C220
106220
206220
203220
F8FFF8
ENDCHAR
STARTCHAR 2170
ENCODING 8560
SWIDTH 1000 0
DWIDTH 24 0
BBX 5 18 9 1
BITMAP
20
70
70
00
00
00
20
60
20
20
20
20
20
20
20
20
20
F8
ENDCHAR
STARTCHAR 2171
ENCODING 8561
SWIDTH 1000 0
DWIDTH 24 0
BBX 13 18 6 1
BITMAP
2020
7070
7070
0000
0000
0000
2020
60E0
2020
2020
2020
2020
2020
2020
2020
2020
2020
F8F8
ENDCHAR
STARTCHAR 2172
ENCODING 8562
SWIDTH 1000 0
DWIDTH 24 0
BBX 18 18 3 1
BITMAP
208100
71C380
71C380
000000
000000
000000
208100
638700
208100
208100
208100
208100
208100
208100
208100
208100
208100
FFFFC0
ENDCHAR
STARTCHAR 2173
ENCODING 8563
SWIDTH 1000 0
DWIDTH 24 0
BBX 17 18 4 0
BITMAP
200000
700000
700000
000000
000000
000000
E7C780
230100
210200
218200
208200
20C400
20C400
204800
206800
202800
203000
F83000
ENDCHAR
STARTCHAR 2174
ENCODING 8564
SWIDTH 1000 0
DWIDTH 24 0
BBX 14 11 5 1
BITMAP
F87C
3010
1020
1820
1820
0C40
0C40
0480
0680
0300
0300
ENDCHAR
STARTCHAR 2175
ENCODING 8565
SWIDTH 1000 0
DWIDTH 24 0
BBX 18 18 3 0
BITMAP
000100
000380
000380
000000
000000
000000
F8FF00
302100
302100
184100
184100
188100
0C8100
0C8100
050100
070100
060100
0207C0
ENDCHAR
STARTCHAR 2176
ENCODING 8566
SWIDTH 1000 0
DWIDTH 24 0
BBX 22 18 1 0
BITMAP
000210
000738
000738
000000
000000
000000
FCFE70
303210
102210
186210
084210
084210
0C8210
048210
068210
070210
030210
030FFC
ENDCHAR
STARTCHAR 2177
ENCODING 8567
SWIDTH 1000 0
DWIDTH 24 0
BBX 22 17 1 0
BITMAP
0019B0
0019B0
000000
000000
000000
F8FBF0
206890
204890
30C890
108890
108890
098890
090890
0D0890
060890
060890
063FFC
ENDCHAR
STARTCHAR 2178
ENCODING 8568
SWIDTH 1000 0
DWIDTH 24 0
BBX 18 18 4 1
BITMAP
200000
700000
700000
000000
000000
000000
E3EF80
208200
20C400
204800
202800
203000
203800
204800
20C400
208600
210200
FFCFC0
ENDCHAR
STARTCHAR 2179
ENCODING 8569
SWIDTH 1000 0
DWIDTH 24 0
BBX 14 12 5 1
BITMAP
FCF8
1020
1840
0C80
0700
0300
0780
0480
08C0
1060
2030
F8FC
ENDCHAR
STARTCHAR 217A
ENCODING 8570
SWIDTH 1000 0
DWIDTH 24 0
BBX 18 18 3 1
BITMAP
000100
000380
000380
000000
000000
000000
7DF700
184100
0C8100
0D0100
070100
020100
070100
098100
088100
10C100
206100
F9FFC0
ENDCHAR
STARTCHAR 217B
ENCODING 8571
SWIDTH 1000 0
DWIDTH 24 0
BBX 21 18 2 1
BITMAP
000420
000E70
000E70
000000
000000
000000
F9FCE0
308420
198420
090420
0E0420
060420
060420
0B0420
118420
31C420
60E420
F1FFF8
ENDCHAR
STARTCHAR 2190
ENCODING 8592
SWIDTH 1000 0
DWIDTH 24 0
BBX 21 9 1 5
BITMAP
060000
0C0000
180000
200000
FFFFF8
200000
180000
0C0000
060000
ENDCHAR
STARTCHAR 2191
ENCODING 8593
SWIDTH 1000 0
DWIDTH 24 0
BBX 9 21 7 -2
BITMAP
0800
1C00
1C00
2A00
6B00
C980
8880
0800
0800
0800
0800
0800
0800
0800
0800
0800
0800
0800
0800
0800
0800
ENDCHAR
STARTCHAR 2192
ENCODING 8594
SWIDTH 1000 0
DWIDTH 24 0
BBX 21 9 2 5
BITMAP
000300
000180
0000C0
000020
FFFFF8
000020
0000C0
000180
000300
ENDCHAR
STARTCHAR 2193
ENCODING 8595
SWIDTH 1000 0
DWIDTH 24 0
BBX 9 22 7 -2
BITMAP
0800
0800
0800
0800
0800
0800
0800
0800
0800
0800
0800
0800
0800
0800
0800
8880
C980
6B00
3E00
1C00
0800
0800
ENDCHAR
STARTCHAR 2194
ENCODING 8596
SWIDTH 750 0
DWIDTH 18 0
BBX 15 10 1 2
BITMAP
0820
0810
1018
300C
6006
FFFE
6006
300C
1818
0C30
ENDCHAR
STARTCHAR 2196
ENCODING 8598
SWIDTH 1000 0
DWIDTH 24 0
BBX 17 16 4 1
BITMAP
FE0000
E00000
B00000
980000
8C0000
860000
430000
018000
00C000
006000
003000
001800
000C00
000600
000300
000180
ENDCHAR
STARTCHAR 2197
ENCODING 8599
SWIDTH 1000 0
DWIDTH 24 0
BBX 17 16 3 1
BITMAP
003F80
000380
000680
000C80
001880
003080
006100
00C000
018000
030000
060000
0C0000
180000
300000
600000
C00000
ENDCHAR
STARTCHAR 2198
ENCODING 8600
SWIDTH 1000 0
DWIDTH 24 0
BBX 16 16 4 1
BITMAP
8000
4000
2000
1000
0800
0400
0200
0100
0080
0042
0021
0011
0009
0005
0043
003F
ENDCHAR
STARTCHAR 2199
ENCODING 8601
SWIDTH 1000 0
DWIDTH 24 0
BBX 16 16 4 1
BITMAP
0001
0002
0004
0008
0010
0020
0040
0080
0100
4200
8400
8800
9000
A000
C200
FC00
ENDCHAR
STARTCHAR 21C4
ENCODING 8644
SWIDTH 1000 0
DWIDTH 24 0
BBX 22 18 1 0
BITMAP
000180
0000C0
000060
000010
7FFFFC
000010
000060
0000C0
000100
000000
0E0000
180000
200000
FFFFF8
200000
180000
0C0000
060000
ENDCHAR
STARTCHAR 21D2
ENCODING 8658
SWIDTH 750 0
DWIDTH 18 0
BBX 14 11 2 3
BITMAP
0040
0020
0030
FFF8
000C
0004
000C
FFF8
0030
0060
0040
ENDCHAR
STARTCHAR 21D4
ENCODING 8660
SWIDTH 750 0
DWIDTH 18 0
BBX 15 11 1 3
BITMAP
0C20
0810
1018
3FFC
6006
C002
6006
3FFC
1018
0830
0420
ENDCHAR
STARTCHAR 21E6
ENCODING 8678
SWIDTH 1000 0
DWIDTH 24 0
BBX 19 8 2 5
BITMAP
020000
0E0000
120000
61FFE0
C00020
33FFC0
0A0000
060000
ENDCHAR
STARTCHAR 21E7
ENCODING 8679
SWIDTH 1000 0
DWIDTH 24 0
BBX 8 19 8 1
BITMAP
10
18
28
24
44
82
E7
28
28
28
28
28
28
28
28
28
28
28
28
ENDCHAR
STARTCHAR 21E8
ENCODING 8680
SWIDTH 1000 0
DWIDTH 24 0
BBX 19 8 3 5
BITMAP
000800
000E00
000900
FFF0C0
000060
FFF980
000E00
000800
ENDCHAR
STARTCHAR 21E9
ENCODING 8681
SWIDTH 1000 0
DWIDTH 24 0
BBX 8 18 8 -1
BITMAP
38
28
28
28
28
28
28
28
28
28
28
28
E7
82
44
24
28
18
ENDCHAR
STARTCHAR 2200
ENCODING 8704
SWIDTH 750 0
DWIDTH 18 0
BBX 16 17 1 0
BITMAP
8003
C002
4002
6004
2004
2008
1FF8
1018
0810
0830
0420
0460
0240
02C0
0180
0180
0100
ENDCHAR
STARTCHAR 2202
ENCODING 8706
SWIDTH 583 0
DWIDTH 14 0
BBX 11 18 1 0
BITMAP
0780
08C0
10C0
0060
0060
0060
0060
1E60
31E0
60E0
C060
C040
C040
C0C0
C080
C180
6300
3C00
ENDCHAR
STARTCHAR 2203
ENCODING 8707
SWIDTH 750 0
DWIDTH 18 0
BBX 12 17 2 0
BITMAP
FFF0
0010
0010
0010
0010
0010
0010
0010
FFF0
0010
0010
0010
0010
0010
0010
0010
FFF0
ENDCHAR
STARTCHAR 2205
ENCODING 8709
SWIDTH 791 0
DWIDTH 19 0
BBX 15 16 2 1
BITMAP
07C0
1834
2018
401C
4024
8042
8082
8102
8202
8402
8802
5004
600C
7018
9830
07C0
ENDCHAR
STARTCHAR 2207
ENCODING 8711
SWIDTH 750 0
DWIDTH 18 0
BBX 16 17 1 -1
BITMAP
FFFF
7FFE
6002
2004
3004
3008
1808
1810
0C10
0C20
0620
0660
0340
03C0
0180
0180
0100
ENDCHAR
STARTCHAR 2208
ENCODING 8712
SWIDTH 666 0
DWIDTH 16 0
BBX 13 12 2 2
BITMAP
1FF8
3000
4000
8000
8000
8000
FFF8
8000
8000
4000
2000
1FF8
ENDCHAR
STARTCHAR 2209
ENCODING 8713
SWIDTH 666 0
DWIDTH 16 0
BBX 13 16 2 -1
BITMAP
0040
00C0
1FF8
3080
4180
8100
8100
8300
FFF8
8600
8400
4400
2800
1FF8
1800
1000
ENDCHAR
STARTCHAR 220B
ENCODING 8715
SWIDTH 666 0
DWIDTH 16 0
BBX 13 12 2 2
BITMAP
FF80
00E0
0030
0010
0018
0018
FFF8
0018
0018
0030
0060
FF80
ENDCHAR
STARTCHAR 2212
ENCODING 8722
SWIDTH 666 0
DWIDTH 16 0
BBX 13 1 2 7
BITMAP
FFF8
ENDCHAR
STARTCHAR 2213
ENCODING 8723
SWIDTH 666 0
DWIDTH 16 0
BBX 13 13 2 0
BITMAP
FFF8
0000
0200
0200
0200
0200
0200
FFF8
0200
0200
0200
0200
0200
ENDCHAR
STARTCHAR 2219
ENCODING 8729
SWIDTH 250 0
DWIDTH 6 0
BBX 3 3 2 6
BITMAP
E0
E0
E0
ENDCHAR
STARTCHAR 221A
ENCODING 8730
SWIDTH 541 0
DWIDTH 13 0
BBX 12 22 1 -1
BITMAP
0010
0030
0020
0020
0040
0040
0040
0080
0080
0080
0100
0100
4100
6200
6200
A600
B400
1400
1C00
1800
0800
1000
ENDCHAR
STARTCHAR 221D
ENCODING 8733
SWIDTH 666 0
DWIDTH 16 0
BBX 12 8 2 4
BITMAP
3870
4480
8380
8300
8300
8380
4480
3870
ENDCHAR
STARTCHAR 221E
ENCODING 8734
SWIDTH 666 0
DWIDTH 16 0
BBX 14 8 1 4
BITMAP
3870
44C8
8684
8304
8304
8384
4488
3870
ENDCHAR
STARTCHAR 221F
ENCODING 8735
SWIDTH 666 0
DWIDTH 16 0
BBX 12 14 2 2
BITMAP
8000
8000
8000
8000
8000
8000
8000
8000
8000
8000
8000
8000
8000
FFF0
ENDCHAR
STARTCHAR 2220
ENCODING 8736
SWIDTH 666 0
DWIDTH 16 0
BBX 14 14 1 2
BITMAP
0180
0100
0300
0200
0600
0400
0800
0800
1000
3000
2000
6000
4000
FFFC
ENDCHAR
STARTCHAR 2225
ENCODING 8741
SWIDTH 666 0
DWIDTH 16 0
BBX 11 22 3 -2
BITMAP
0220
0220
0240
0440
04C0
0480
0880
0980
0900
1100
1300
1200
2200
2600
2400
4400
4C00
4800
8800
9000
9000
1000
ENDCHAR
STARTCHAR 2226
ENCODING 8742
SWIDTH 666 0
DWIDTH 16 0
BBX 11 21 3 -1
BITMAP
0220
0260
0240
0440
04C0
8480
4880
6980
3900
1900
1F00
1600
2300
2500
2480
4440
4820
4800
8800
9000
9000
ENDCHAR
STARTCHAR 2227
ENCODING 8743
SWIDTH 666 0
DWIDTH 16 0
BBX 12 12 2 2
BITMAP
0600
0700
0900
0980
1080
1080
3040
2040
6020
4020
C010
8010
ENDCHAR
STARTCHAR 2228
ENCODING 8744
SWIDTH 666 0
DWIDTH 16 0
BBX 13 13 2 2
BITMAP
8018
8010
4030
4020
2060
2040
10C0
1080
0980
0900
0500
0600
0600
ENDCHAR
STARTCHAR 2229
ENCODING 8745
SWIDTH 666 0
DWIDTH 16 0
BBX 12 14 2 0
BITMAP
1F80
30C0
4020
C030
8010
8010
8010
8010
8010
8010
8010
8010
8010
8010
ENDCHAR
STARTCHAR 222A
ENCODING 8746
SWIDTH 666 0
DWIDTH 16 0
BBX 12 14 2 1
BITMAP
8010
8010
8010
8010
8010
8010
8010
8010
8010
8010
C030
4020
30C0
1F80
ENDCHAR
STARTCHAR 222B
ENCODING 8747
SWIDTH 583 0
DWIDTH 14 0
BBX 12 21 1 -4
BITMAP
00E0
0130
0330
0200
0200
0200
0600
0600
0600
0600
0600
0600
0600
0600
0400
0400
0400
0C00
CC00
8800
7000
ENDCHAR
STARTCHAR 222C
ENCODING 8748
SWIDTH 875 0
DWIDTH 21 0
BBX 20 21 1 -4
BITMAP
00E0E0
013130
033230
020200
020600
020400
060400
060400
060400
060400
060400
060400
060400
060400
040400
040C00
040C00
0C0800
CD8800
899000
70E000
ENDCHAR
STARTCHAR 222E
ENCODING 8750
SWIDTH 583 0
DWIDTH 14 0
BBX 12 21 1 -4
BITMAP
00E0
0130
0330
0200
0200
0600
0600
0F00
1680
1680
1680
1680
0D00
0600
0400
0400
0400
0C00
C800
8800
7000
ENDCHAR
STARTCHAR 2234
ENCODING 8756
SWIDTH 666 0
DWIDTH 16 0
BBX 12 11 2 2
BITMAP
0700
0700
0700
0000
0000
0000
0000
0000
E070
E070
E070
ENDCHAR
STARTCHAR 2235
ENCODING 8757
SWIDTH 666 0
DWIDTH 16 0
BBX 12 11 2 2
BITMAP
E070
E070
E070
0000
0000
0000
0000
0000
0700
0700
0700
ENDCHAR
STARTCHAR 223C
ENCODING 8764
SWIDTH 500 0
DWIDTH 12 0
BBX 6 3 3 14
BITMAP
60
94
0C
ENDCHAR
STARTCHAR 223D
ENCODING 8765
SWIDTH 666 0
DWIDTH 16 0
BBX 14 8 1 4
BITMAP
0070
3088
4184
8104
8204
8604
4408
3830
ENDCHAR
STARTCHAR 2243
ENCODING 8771
SWIDTH 666 0
DWIDTH 16 0
BBX 14 7 1 4
BITMAP
3C00
6308
40F0
0000
0000
0000
FFFC
ENDCHAR
STARTCHAR 2245
ENCODING 8773
SWIDTH 666 0
DWIDTH 16 0
BBX 14 9 1 4
BITMAP
3C04
4388
40F0
0000
0000
FFFC
0000
0000
FFFC
ENDCHAR
STARTCHAR 2248
ENCODING 8776
SWIDTH 666 0
DWIDTH 16 0
BBX 13 7 2 3
BITMAP
7808
8710
81E0
0000
7800
CF10
83E0
ENDCHAR
STARTCHAR 2252
ENCODING 8786
SWIDTH 666 0
DWIDTH 16 0
BBX 13 15 2 0
BITMAP
7000
7000
7000
0000
0000
FFF8
0000
0000
0000
FFF8
0000
0000
00E0
00E0
00E0
ENDCHAR
STARTCHAR 2260
ENCODING 8800
SWIDTH 666 0
DWIDTH 16 0
BBX 13 13 2 1
BITMAP
0080
0180
0100
0100
FFF8
0200
0200
0400
FFF8
0C00
0800
0800
1800
ENDCHAR
STARTCHAR 2261
ENCODING 8801
SWIDTH 666 0
DWIDTH 16 0
BBX 13 9 2 3
BITMAP
FFF8
0000
0000
0000
FFF8
0000
0000
0000
FFF8
ENDCHAR
STARTCHAR 2262
ENCODING 8802
SWIDTH 666 0
DWIDTH 16 0
BBX 13 14 2 0
BITMAP
0080
0080
0100
FFF8
0300
0200
0200
FFF8
0400
0400
0400
FFF8
0800
1800
ENDCHAR
STARTCHAR 2266
ENCODING 8806
SWIDTH 666 0
DWIDTH 16 0
BBX 13 14 2 2
BITMAP
0078
03C0
1C00
E000
C000
3800
0700
00F0
0018
0000
FFF8
0000
0000
FFF8
ENDCHAR
STARTCHAR 2267
ENCODING 8807
SWIDTH 666 0
DWIDTH 16 0
BBX 14 14 1 2
BITMAP
F000
0E00
01C0
0038
001C
00E0
0700
3800
4000
0000
7FFC
0000
0000
7FFC
ENDCHAR
STARTCHAR 226A
ENCODING 8810
SWIDTH 666 0
DWIDTH 16 0
BBX 14 13 1 2
BITMAP
008C
0318
0630
08C0
3180
6300
C600
6300
1180
0C60
0630
0118
0084
ENDCHAR
STARTCHAR 226B
ENCODING 8811
SWIDTH 666 0
DWIDTH 16 0
BBX 13 13 2 2
BITMAP
8C00
C600
2100
18C0
0C60
0210
0118
0630
0C60
1880
6300
C600
8000
ENDCHAR
STARTCHAR 2276
ENCODING 8822
SWIDTH 666 0
DWIDTH 16 0
BBX 14 15 1 1
BITMAP
000C
00F0
0700
3800
6000
1C00
03C0
C03C
3C04
0380
0070
000C
00F0
0F00
7800
ENDCHAR
STARTCHAR 2277
ENCODING 8823
SWIDTH 666 0
DWIDTH 16 0
BBX 14 16 1 1
BITMAP
E000
3C00
0380
0078
001C
00E0
0F00
780C
0070
0780
3800
6000
1C00
03C0
0038
0004
ENDCHAR
STARTCHAR 2282
ENCODING 8834
SWIDTH 666 0
DWIDTH 16 0
BBX 13 12 2 2
BITMAP
1FF8
3000
4000
C000
8000
8000
8000
8000
8000
4000
3000
1FF8
ENDCHAR
STARTCHAR 2283
ENCODING 8835
SWIDTH 666 0
DWIDTH 16 0
BBX 13 12 2 2
BITMAP
FF80
0060
0010
0010
0008
0008
0008
0008
0018
0010
0060
FF80
ENDCHAR
STARTCHAR 2284
ENCODING 8836
SWIDTH 666 0
DWIDTH 16 0
BBX 13 16 2 -1
BITMAP
0020
0040
1FF8
30C0
4080
C080
8100
8100
8300
8200
8200
4600
3400
1FF8
0800
0800
ENDCHAR
STARTCHAR 2285
ENCODING 8837
SWIDTH 666 0
DWIDTH 16 0
BBX 13 16 2 -1
BITMAP
0180
0100
FF80
0260
0230
0618
0408
0408
0808
0808
1810
1010
1060
FF80
2000
6000
ENDCHAR
STARTCHAR 2286
ENCODING 8838
SWIDTH 666 0
DWIDTH 16 0
BBX 13 15 2 1
BITMAP
3FF8
6000
C000
8000
8000
8000
8000
8000
4000
6000
3FF8
0000
0000
0000
FFF8
ENDCHAR
STARTCHAR 2287
ENCODING 8839
SWIDTH 666 0
DWIDTH 16 0
BBX 13 15 2 1
BITMAP
FFC0
0020
0010
0008
0008
0008
0008
0018
0010
0070
FFC0
0000
0000
0000
FFF8
ENDCHAR
STARTCHAR 228A
ENCODING 8842
SWIDTH 666 0
DWIDTH 16 0
BBX 13 16 2 -1
BITMAP
1FF8
6000
C000
8000
8000
8000
8000
8000
4000
6000
3FF8
0000
0300
FFF8
0400
0400
ENDCHAR
STARTCHAR 228B
ENCODING 8843
SWIDTH 666 0
DWIDTH 16 0
BBX 13 16 2 -1
BITMAP
FFC0
0020
0010
0008
0008
0008
0008
0008
0010
0030
FFC0
0000
0300
FFF8
0400
0C00
ENDCHAR
STARTCHAR 2295
ENCODING 8853
SWIDTH 875 0
DWIDTH 21 0
BBX 17 17 2 0
BITMAP
03E000
0C1800
108400
208200
408100
408100
808080
808080
9FFC80
808080
808080
C08080
408100
608300
308600
1C1C00
07F000
ENDCHAR
STARTCHAR 2296
ENCODING 8854
SWIDTH 875 0
DWIDTH 21 0
BBX 18 17 1 0
BITMAP
03F000
0C0C00
100200
200100
400080
400080
800040
800040
9FFE40
800040
800040
4000C0
400080
200180
100300
0C0E00
03F000
ENDCHAR
STARTCHAR 2297
ENCODING 8855
SWIDTH 875 0
DWIDTH 21 0
BBX 18 17 1 0
BITMAP
03F000
0C0C00
100200
200500
440C80
421880
813040
80E040
80C040
81A040
831040
460880
4C0480
200100
100300
0C0E00
03F000
ENDCHAR
STARTCHAR 22A5
ENCODING 8869
SWIDTH 666 0
DWIDTH 16 0
BBX 13 14 2 2
BITMAP
0200
0200
0200
0200
0200
0200
0200
0200
0200
0200
0200
0200
0200
FFF8
ENDCHAR
STARTCHAR 22BF
ENCODING 8895
SWIDTH 666 0
DWIDTH 16 0
BBX 14 14 1 2
BITMAP
0004
000C
001C
0034
0064
00C4
0184
0304
0604
0C04
1804
3004
6004
FFFC
ENDCHAR
STARTCHAR 22DA
ENCODING 8922
SWIDTH 666 0
DWIDTH 16 0
BBX 13 17 2 0
BITMAP
0018
01F0
3E00
C000
7800
07C0
0038
0000
FFF8
0000
C000
3C00
01E0
0018
03E0
7C00
8000
ENDCHAR
STARTCHAR 22DB
ENCODING 8923
SWIDTH 666 0
DWIDTH 16 0
BBX 13 17 2 0
BITMAP
8000
7C00
03C0
0038
01F0
3E00
C000
0000
FFF8
0000
0038
03E0
7C00
8000
7C00
03E0
0018
ENDCHAR
STARTCHAR 2305
ENCODING 8965
SWIDTH 666 0
DWIDTH 16 0
BBX 14 10 1 1
BITMAP
FFFC
0300
0380
0480
0480
0C40
0840
1860
1020
1030
ENDCHAR
STARTCHAR 2306
ENCODING 8966
SWIDTH 666 0
DWIDTH 16 0
BBX 14 14 1 0
BITMAP
FFFC
0000
0000
FFFC
0300
0380
0680
0480
0C40
0840
0860
1020
1030
1000
ENDCHAR
STARTCHAR 2312
ENCODING 8978
SWIDTH 1000 0
DWIDTH 24 0
BBX 23 5 0 13
BITMAP
00FF00
0F00E0
180018
600006
800002
ENDCHAR
STARTCHAR 2318
ENCODING 8984
SWIDTH 1000 0
DWIDTH 24 0
BBX 22 22 1 -2
BITMAP
380070
440088
820104
820104
820104
420108
3FFFF0
020100
020100
020100
020100
020100
020100
020100
020100
3FFFF0
420108
820104
820104
820104
440088
380070
ENDCHAR
STARTCHAR 23BE
ENCODING 9150
SWIDTH 1000 0
DWIDTH 24 0
BBX 13 24 12 -4
BITMAP
FFF8
8000
8000
8000
8000
8000
8000
8000
8000
8000
8000
8000
8000
8000
8000
8000
8000
8000
8000
8000
8000
8000
8000
8000
ENDCHAR
STARTCHAR 23BF
ENCODING 9151
SWIDTH 1000 0
DWIDTH 24 0
BBX 13 24 12 -2
BITMAP
8000
8000
8000
8000
8000
8000
8000
8000
8000
8000
8000
8000
8000
8000
8000
8000
8000
8000
8000
8000
8000
8000
8000
FFF8
ENDCHAR
STARTCHAR 23C0
ENCODING 9152
SWIDTH 1000 0
DWIDTH 24 0
BBX 19 24 3 -2
BITMAP
004000
004000
004000
03F800
0C4600
104100
204080
404040
404040
804020
804020
804020
804020
804020
804060
404040
6040C0
304180
184300
0C4E00
03F800
004000
004000
004000
ENDCHAR
STARTCHAR 23C1
ENCODING 9153
SWIDTH 1000 0
DWIDTH 24 0
BBX 25 24 0 -4
BITMAP
FFFFFF80
00080000
00080000
007F0000
0188C000
02082000
04081000
08080800
08080800
10080400
10080400
10080400
10080400
10080400
10080400
08080800
0C081800
04081000
02082000
0188C000
007F0000
00080000
00080000
00080000
ENDCHAR
STARTCHAR 23C2
ENCODING 9154
SWIDTH 1000 0
DWIDTH 24 0
BBX 25 24 0 -2
BITMAP
00080000
00080000
00080000
007F0000
0188C000
02082000
04081000
08080800
08080800
10080400
10080400
10080400
10080400
10080400
10080400
08080800
08081800
04083000
02086000
0188C000
007F0000
00080000
00080000
FFFFFF80
ENDCHAR
STARTCHAR 23C3
ENCODING 9155
SWIDTH 1000 0
DWIDTH 24 0
BBX 21 24 2 -2
BITMAP
002000
002000
002000
002000
007000
007000
00A800
01AC00
012400
022200
022200
042100
042100
082080
182040
102040
202020
202020
402010
FFFFF8
002000
002000
002000
002000
ENDCHAR
STARTCHAR 23C4
ENCODING 9156
SWIDTH 1000 0
DWIDTH 24 0
BBX 25 24 0 -3
BITMAP
FFFFFF80
00080000
00080000
00080000
001C0000
001C0000
002A0000
002A0000
00490000
00C98000
00888000
01084000
01084000
02082000
06083000
04081000
08080800
08080800
10080400
3FFFFE00
00080000
00080000
00080000
00080000
ENDCHAR
STARTCHAR 23C5
ENCODING 9157
SWIDTH 1000 0
DWIDTH 24 0
BBX 25 24 0 -2
BITMAP
00080000
00080000
00080000
00080000
001C0000
001C0000
002A0000
006B0000
00490000
00888000
00888000
01084000
01084000
02082000
06081000
04081000
08080800
08080800
10080400
3FFFFE00
00080000
00080000
00080000
FFFFFF80
ENDCHAR
STARTCHAR 23C6
ENCODING 9158
SWIDTH 1000 0
DWIDTH 24 0
BBX 21 24 2 -2
BITMAP
002000
002000
002000
002000
002000
002000
002000
002000
002000
3E2000
C1A000
806000
003008
002C10
0023E0
002000
002000
002000
002000
002000
002000
002000
002000
002000
ENDCHAR
STARTCHAR 23C7
ENCODING 9159
SWIDTH 1000 0
DWIDTH 24 0
BBX 25 24 0 -4
BITMAP
FFFFFF80
00080000
00080000
00080000
00080000
00080000
00080000
00080000
00080000
0F880000
10680000
20180000
000C0200
000B0400
0008F800
00080000
00080000
00080000
00080000
00080000
00080000
00080000
00080000
00080000
ENDCHAR
STARTCHAR 23C8
ENCODING 9160
SWIDTH 1000 0
DWIDTH 24 0
BBX 25 24 0 -2
BITMAP
00080000
00080000
00080000
00080000
00080000
00080000
00080000
00080000
00080000
0F880000
10680000
20180000
000C0200
000B0400
0008F800
00080000
00080000
00080000
00080000
00080000
00080000
00080000
00080000
FFFFFF80
ENDCHAR
STARTCHAR 23C9
ENCODING 9161
SWIDTH 1000 0
DWIDTH 24 0
BBX 25 24 0 -4
BITMAP
FFFFFF80
00080000
00080000
00080000
00080000
00080000
00080000
00080000
00080000
00080000
00080000
00080000
00080000
00080000
00080000
00080000
00080000
00080000
00080000
00080000
00080000
00080000
00080000
00080000
ENDCHAR
STARTCHAR 23CA
ENCODING 9162
SWIDTH 1000 0
DWIDTH 24 0
BBX 25 24 0 -2
BITMAP
00080000
00080000
00080000
00080000
00080000
00080000
00080000
00080000
00080000
00080000
00080000
00080000
00080000
00080000
00080000
00080000
00080000
00080000
00080000
00080000
00080000
00080000
00080000
FFFFFF80
ENDCHAR
STARTCHAR 23CB
ENCODING 9163
SWIDTH 1000 0
DWIDTH 24 0
BBX 13 24 -1 -4
BITMAP
FFF8
0008
0008
0008
0008
0008
0008
0008
0008
0008
0008
0008
0008
0008
0008
0008
0008
0008
0008
0008
0008
0008
0008
0008
ENDCHAR
STARTCHAR 23CC
ENCODING 9164
SWIDTH 1000 0
DWIDTH 24 0
BBX 13 24 -1 -2
BITMAP
0008
0008
0008
0008
0008
0008
0008
0008
0008
0008
0008
0008
0008
0008
0008
0008
0008
0008
0008
0008
0008
0008
0008
FFF8
ENDCHAR
STARTCHAR 23CE
ENCODING 9166
SWIDTH 1000 0
DWIDTH 24 0
BBX 21 20 1 -2
BITMAP
0007F8
000408
000408
000408
000408
000408
000408
030408
070408
0D0408
11FC08
200008
400008
800008
400010
200030
19FFC0
0D0000
070000
010000
ENDCHAR
STARTCHAR 2423
ENCODING 9251
SWIDTH 1000 0
DWIDTH 24 0
BBX 18 5 3 1
BITMAP
800040
800040
800040
800040
FFFFC0
ENDCHAR
STARTCHAR 2460
ENCODING 9312
SWIDTH 1000 0
DWIDTH 24 0
BBX 21 22 1 -2
BITMAP
01F800
060700
080180
100040
20E020
402020
402010
802010
802008
802008
802008
802008
802008
802008
802010
402010
402030
20F820
100040
080180
060700
01FC00
ENDCHAR
STARTCHAR 2461
ENCODING 9313
SWIDTH 1000 0
DWIDTH 24 0
BBX 22 22 1 -2
BITMAP
00FC00
030300
0400C0
180020
307C10
208610
410108
418108
818104
800204
800404
800804
801004
802004
404108
408108
610110
23FF10
100020
0C00C0
030300
00FC00
ENDCHAR
STARTCHAR 2462
ENCODING 9314
SWIDTH 1000 0
DWIDTH 24 0
BBX 22 22 1 -2
BITMAP
00FC00
030300
0C00C0
107C60
208610
610110
418108
418108
800104
800604
807804
800E04
800104
800104
430108
430308
210610
20FC10
100020
0C00C0
030300
00FC00
ENDCHAR
STARTCHAR 2463
ENCODING 9315
SWIDTH 1000 0
DWIDTH 24 0
BBX 22 22 1 -2
BITMAP
00FC00
030300
040080
180060
201810
201810
402808
404808
80C804
808804
810804
820804
840804
87FF04
400808
400808
200810
203E30
100060
0C00C0
030300
00FC00
ENDCHAR
STARTCHAR 2464
ENCODING 9316
SWIDTH 1000 0
DWIDTH 24 0
BBX 22 22 1 -2
BITMAP
00FC00
030300
040080
180060
21FE10
210010
410008
410008
810004
817C04
818604
800304
800104
800104
438108
438208
618618
20F810
100020
0C00C0
030380
00FC00
ENDCHAR
STARTCHAR 2465
ENCODING 9317
SWIDTH 1000 0
DWIDTH 24 0
BBX 22 22 1 -2
BITMAP
00FC00
030300
0C00C0
107860
20C610
618610
418608
430008
830004
837C04
838604
820304
820104
820104
420108
410208
208610
207810
100020
0C00C0
030300
00FC00
ENDCHAR
STARTCHAR 2466
ENCODING 9318
SWIDTH 1000 0
DWIDTH 24 0
BBX 22 22 1 -2
BITMAP
00FC00
030300
0400C0
180020
21FF10
218110
410208
410408
810404
800C04
800804
801804
801804
801004
403008
403008
203010
303030
180020
0C00C0
030300
00FC00
ENDCHAR
STARTCHAR 2467
ENCODING 9319
SWIDTH 1000 0
DWIDTH 24 0
BBX 22 22 1 -2
BITMAP
00FC00
030300
0C00C0
107860
208410
610210
410208
410208
818404
80C804
803004
80CC04
810204
820104
420108
420108
210210
20FC10
100020
0C00C0
030300
00FC00
ENDCHAR
STARTCHAR 2468
ENCODING 9320
SWIDTH 1000 0
DWIDTH 24 0
BBX 22 22 1 -2
BITMAP
00FC00
030300
0C00C0
107860
208C10
610610
420208
420308
820304
820304
830304
818F04
80FB04
800304
418208
418608
218C10
207810
100020
0C00C0
030300
00FC00
ENDCHAR
STARTCHAR 2469
ENCODING 9321
SWIDTH 1000 0
DWIDTH 24 0
BBX 21 22 1 -2
BITMAP
00FC00
030700
0C0180
100040
260E20
621120
421110
422090
822088
822088
822088
822088
822088
822088
822090
421110
421110
2F8E20
100040
080080
070300
01FC00
ENDCHAR
STARTCHAR 246A
ENCODING 9322
SWIDTH 1000 0
DWIDTH 24 0
BBX 22 22 1 -2
BITMAP
00FC00
030300
0C00C0
100060
260330
620710
420108
420108
820104
820104
820104
820104
820104
820104
820108
420108
420110
2F87D0
100020
0C0040
030380
00FC00
ENDCHAR
STARTCHAR 246B
ENCODING 9323
SWIDTH 1000 0
DWIDTH 24 0
BBX 22 22 1 -2
BITMAP
00FC00
030300
0400C0
180060
320F30
2E3090
423048
423848
820044
820084
820084
820104
820204
820404
820848
421048
421058
27BFD0
100020
0C0040
030380
00FC00
ENDCHAR
STARTCHAR 246C
ENCODING 9324
SWIDTH 1000 0
DWIDTH 24 0
BBX 21 22 1 -2
BITMAP
00FC00
030700
0C0180
100040
261E20
623120
423090
423090
820088
820108
820E08
820308
820088
820088
823090
423090
422110
2F9E20
100040
080080
070300
01FC00
ENDCHAR
STARTCHAR 246D
ENCODING 9325
SWIDTH 1000 0
DWIDTH 24 0
BBX 22 22 1 -2
BITMAP
00FC00
030300
0C00C0
100060
260130
620318
420708
420508
820904
821904
821104
822104
822104
827FC4
420108
420108
420110
2F87D0
100020
0C0040
030380
00FC00
ENDCHAR
STARTCHAR 246E
ENCODING 9326
SWIDTH 1000 0
DWIDTH 24 0
BBX 21 22 1 -2
BITMAP
00FC00
030700
0C0180
100040
2E3FA0
622030
422010
422010
822008
822E08
823108
820088
820088
820088
423090
423190
422110
2F9E20
100040
0C0080
070300
01FC00
ENDCHAR
STARTCHAR 246F
ENCODING 9327
SWIDTH 1000 0
DWIDTH 24 0
BBX 21 22 1 -2
BITMAP
00FC00
030700
0C0180
100040
260720
2209B0
421190
421010
823008
822E08
823108
822088
822088
822088
422090
423090
421110
2F8E20
100040
0C0080
070300
01FC00
ENDCHAR
STARTCHAR 2470
ENCODING 9328
SWIDTH 1000 0
DWIDTH 24 0
BBX 21 22 1 -2
BITMAP
00FC00
070700
080180
100040
2E3FA0
6220B0
422110
422110
820208
820208
820208
820608
820408
820408
820C10
420C10
420C10
2F8C20
100040
080080
070300
01FC00
ENDCHAR
STARTCHAR 2471
ENCODING 9329
SWIDTH 1000 0
DWIDTH 24 0
BBX 21 22 1 -2
BITMAP
00FC00
030700
0C0180
100040
260E20
6231A0
422090
422090
822088
821908
820E08
821608
822108
824088
824090
424090
422110
2F9E20
100040
080080
070300
01FC00
ENDCHAR
STARTCHAR 2472
ENCODING 9330
SWIDTH 1000 0
DWIDTH 24 0
BBX 21 22 1 -2
BITMAP
00FC00
030700
0C0180
100040
260E20
621120
422110
422090
822088
822088
822088
821188
820E88
820188
820190
423110
422310
2F9E20
100040
080080
070300
01FC00
ENDCHAR
STARTCHAR 2473
ENCODING 9331
SWIDTH 1000 0
DWIDTH 24 0
BBX 21 22 1 -2
BITMAP
00F800
030600
0C0180
100040
270720
3888A0
584890
5C5050
805048
809048
809048
811048
811048
821048
845050
484890
484890
3FC720
100040
080080
060300
01FC00
ENDCHAR
STARTCHAR 24D0
ENCODING 9424
SWIDTH 1000 0
DWIDTH 24 0
BBX 22 22 1 -2
BITMAP
00FC00
030300
0C00C0
100020
200010
600010
40F808
418408
818404
800404
803C04
80C404
810404
810404
410D08
40F608
200010
200030
100060
0C00C0
030300
00FC00
ENDCHAR
STARTCHAR 24D1
ENCODING 9425
SWIDTH 1000 0
DWIDTH 24 0
BBX 22 22 1 -2
BITMAP
00FC00
030300
0C00C0
108020
218010
208010
408008
408008
80BC04
80C604
808304
808104
808104
808104
408308
408608
20FC10
300010
180020
0C00C0
030300
00FC00
ENDCHAR
STARTCHAR 24D2
ENCODING 9426
SWIDTH 1000 0
DWIDTH 24 0
BBX 22 22 1 -2
BITMAP
00FC00
030300
0C00C0
100060
200010
600010
407C08
40C608
808604
810004
810004
810004
810004
818204
40C408
407808
200010
200010
100020
0C00C0
030300
00FC00
ENDCHAR
STARTCHAR 24D3
ENCODING 9427
SWIDTH 1000 0
DWIDTH 24 0
BBX 22 22 1 -2
BITMAP
00FC00
030300
0C00C0
100420
200C10
200410
400408
400408
80FC04
818404
830404
820404
820404
820404
420408
410C08
20F610
300030
180060
0C00C0
030300
00FC00
ENDCHAR
STARTCHAR 24D4
ENCODING 9428
SWIDTH 1000 0
DWIDTH 24 0
BBX 22 22 1 -2
BITMAP
00FC00
030300
0C00C0
100060
200030
600010
407808
418408
810604
830204
83FE04
830004
830004
818004
81C608
407808
400010
200010
100020
0C0040
030180
00FE00
ENDCHAR
STARTCHAR 24D5
ENCODING 9429
SWIDTH 1000 0
DWIDTH 24 0
BBX 22 22 1 -2
BITMAP
00FE00
070380
0800C0
101C60
203610
602618
402008
C02008
80FC04
802004
802004
802004
802004
802004
402008
402008
202010
207010
100020
0C0040
030180
00FE00
ENDCHAR
STARTCHAR 24D6
ENCODING 9430
SWIDTH 1000 0
DWIDTH 24 0
BBX 22 22 1 -2
BITMAP
00FC00
030300
0C00C0
100060
200010
60FF10
410508
410408
810404
808C04
80F804
810004
80FC04
810304
420108
430308
20FC10
200010
100020
0C00C0
030300
00FC00
ENDCHAR
STARTCHAR 24D7
ENCODING 9431
SWIDTH 1000 0
DWIDTH 24 0
BBX 20 22 2 -2
BITMAP
01F800
060400
0C0300
100080
210040
630040
410020
410020
817810
818810
810410
810410
810410
810410
810420
810420
410420
438F40
200080
180100
060600
01F800
ENDCHAR
STARTCHAR 24D8
ENCODING 9432
SWIDTH 1000 0
DWIDTH 24 0
BBX 21 22 1 -2
BITMAP
00F800
030600
0C0100
1000C0
206020
206020
400010
400010
802008
806008
802008
802008
802008
802008
802010
402010
402010
207020
100040
080080
060300
01FC00
ENDCHAR
STARTCHAR 24D9
ENCODING 9433
SWIDTH 1000 0
DWIDTH 24 0
BBX 21 22 2 -2
BITMAP
00FC00
070700
080180
103040
203020
600030
400010
403010
801008
801008
801008
801008
801008
801008
401010
401010
419030
219020
10E040
0C0080
070300
01FC00
ENDCHAR
STARTCHAR 24DA
ENCODING 9434
SWIDTH 1000 0
DWIDTH 24 0
BBX 22 22 1 -2
BITMAP
00FC00
030300
0C00C0
100020
218010
608010
408008
408008
809F04
808404
808804
80B004
80D004
808804
408C08
408608
21EF90
300030
180060
0C00C0
030300
00FC00
ENDCHAR
STARTCHAR 24DB
ENCODING 9435
SWIDTH 1000 0
DWIDTH 24 0
BBX 21 22 1 -2
BITMAP
00F800
030600
0C0100
1000C0
202020
206020
402010
402010
802008
802008
802008
802008
802008
802008
802010
402010
402010
20F820
100040
080080
060300
01FC00
ENDCHAR
STARTCHAR 24DC
ENCODING 9436
SWIDTH 1000 0
DWIDTH 24 0
BBX 21 21 1 -1
BITMAP
01FC00
060780
1801C0
200060
200020
45E730
4E2910
841098
841088
841088
841088
841088
841088
841088
4F79D0
400010
200020
100040
080080
070100
01FE00
ENDCHAR
STARTCHAR 24DD
ENCODING 9437
SWIDTH 1000 0
DWIDTH 24 0
BBX 21 21 2 -1
BITMAP
01F800
0E0700
100180
200040
200020
417830
438810
818418
810408
810408
810408
810408
810408
810408
838E10
400010
400020
200040
180080
060300
01FC00
ENDCHAR
STARTCHAR 24DE
ENCODING 9438
SWIDTH 1000 0
DWIDTH 24 0
BBX 22 22 1 -2
BITMAP
00FC00
030300
0C00C0
100060
200010
600010
407808
418608
810204
820104
820104
820104
820104
810204
408408
407808
200010
200010
100020
0C00C0
030300
00FC00
ENDCHAR
STARTCHAR 24DF
ENCODING 9439
SWIDTH 1000 0
DWIDTH 24 0
BBX 22 22 1 -2
BITMAP
00FC00
030300
040080
080040
100020
200010
41BC08
40C208
808104
808104
808104
808104
80C204
80BC04
408008
408008
608018
21E010
100020
0C0040
030380
00FC00
ENDCHAR
STARTCHAR 24E0
ENCODING 9440
SWIDTH 1000 0
DWIDTH 24 0
BBX 22 22 1 -2
BITMAP
00FC00
030300
040080
080040
100020
200010
40FC08
410408
820404
820404
820404
820404
810404
80FC04
400408
400408
600418
201F10
100020
0C0040
030380
00FC00
ENDCHAR
STARTCHAR 24E1
ENCODING 9441
SWIDTH 1000 0
DWIDTH 24 0
BBX 21 22 1 -2
BITMAP
00F800
030600
040180
180040
300020
200020
404E10
40D610
806608
804008
804008
804008
804008
804008
804010
40E010
400010
200020
100040
080080
060300
01FC00
ENDCHAR
STARTCHAR 24E2
ENCODING 9442
SWIDTH 1000 0
DWIDTH 24 0
BBX 22 22 1 -2
BITMAP
00FC00
070380
0800C0
100060
200030
600018
40FA08
418608
810204
818004
806004
801C04
810304
810104
41C308
417C08
400010
200010
100020
0C0040
030380
00FC00
ENDCHAR
STARTCHAR 24E3
ENCODING 9443
SWIDTH 1000 0
DWIDTH 24 0
BBX 21 22 1 -2
BITMAP
01FC00
060700
080180
100040
200020
404030
40C010
C1F810
804008
804008
804008
804008
804008
804008
804010
404410
403810
200020
100040
080080
070300
01FC00
ENDCHAR
STARTCHAR 24E4
ENCODING 9444
SWIDTH 1000 0
DWIDTH 24 0
BBX 22 22 1 -2
BITMAP
00FC00
030380
0C00C0
100060
200030
600010
430E08
410208
810204
810204
810204
810204
810204
810204
408608
407B08
400010
200010
100020
0C00C0
030300
00FC00
ENDCHAR
STARTCHAR 24E5
ENCODING 9445
SWIDTH 1000 0
DWIDTH 24 0
BBX 22 22 1 -2
BITMAP
00FC00
030300
040080
180060
200030
200010
400008
47C788
810204
818204
808404
80C404
804804
806804
403008
403008
400010
200010
100020
0C0040
030380
00FC00
ENDCHAR
STARTCHAR 24E6
ENCODING 9446
SWIDTH 1000 0
DWIDTH 24 0
BBX 22 22 1 -2
BITMAP
00FC00
030300
0C0080
100060
200030
200010
400008
4F79E8
861084
821084
832904
832904
814904
81C604
41C608
408408
408010
200010
100020
0C0040
030380
00FC00
ENDCHAR
STARTCHAR 24E7
ENCODING 9447
SWIDTH 1000 0
DWIDTH 24 0
BBX 22 21 1 -1
BITMAP
00FC00
070380
0800C0
100020
200010
400018
47CF08
80840C
804804
803004
803004
805804
808C04
810608
47CF88
400008
200010
100020
0C0040
070180
00FE00
ENDCHAR
STARTCHAR 24E8
ENCODING 9448
SWIDTH 1000 0
DWIDTH 24 0
BBX 22 22 1 -2
BITMAP
00FC00
030300
040080
180040
300020
200010
43E788
408208
80C204
804404
806404
802804
801804
801804
801008
401008
41A010
21C010
100020
0C0040
030180
00FE00
ENDCHAR
STARTCHAR 24E9
ENCODING 9449
SWIDTH 1000 0
DWIDTH 24 0
BBX 22 21 1 -1
BITMAP
01FC00
060380
0800C0
100020
200010
400018
41FE08
81840C
810804
811804
803004
806004
804204
808208
418608
407808
200010
100020
080040
070180
00FE00
ENDCHAR
STARTCHAR 24EB
ENCODING 9451
SWIDTH 1000 0
DWIDTH 24 0
BBX 22 22 1 -2
BITMAP
00FC00
03FF00
0FFF80
1FFFE0
39FCF0
39FCF0
7DFEF8
7DFEF8
FDFEFC
FDFEFC
FDFEFC
FDFEFC
FDFEFC
FDFEFC
7DFEF8
7DFEF8
3DFEF0
307830
1FFFE0
0FFFC0
03FF00
00FC00
ENDCHAR
STARTCHAR 24EC
ENCODING 9452
SWIDTH 1000 0
DWIDTH 24 0
BBX 22 22 1 -2
BITMAP
00FC00
03FF00
07FF80
0FFFE0
3DF0F0
31E670
7DEF38
7DE738
FDFF3C
FDFF7C
FDFE7C
FDFCFC
FDFDFC
FDFBFC
7DF3B8
7DF7B8
7DEFB8
38C030
1FFFE0
0FFFC0
03FF80
00FC00
ENDCHAR
STARTCHAR 24ED
ENCODING 9453
SWIDTH 1000 0
DWIDTH 24 0
BBX 22 22 1 -2
BITMAP
00FC00
03FF00
0FFF80
1FFFE0
39F1F0
39CEF0
7DCF78
7DCF78
FDFF7C
FDFEFC
FDF1FC
FDFE7C
FDFF3C
FDFF3C
7DCF38
7DCF38
3DCF70
307EF0
1FFFE0
0FFFC0
03FF00
00FC00
ENDCHAR
STARTCHAR 24EE
ENCODING 9454
SWIDTH 1000 0
DWIDTH 24 0
BBX 22 22 1 -2
BITMAP
00FC00
03FF00
0FFFC0
1FFFE0
39FEF0
7DFCF0
7DFCF8
7DFAF8
FDF6FC
FDF6FC
FDEEFC
FDEEFC
FDDEFC
FDC03C
7DFEF8
7DFEF8
3DFEF0
307830
1FFFE0
0FFFC0
03FF00
00FC00
ENDCHAR
STARTCHAR 24EF
ENCODING 9455
SWIDTH 1000 0
DWIDTH 24 0
BBX 22 22 1 -2
BITMAP
00FC00
03FF00
0FFFC0
1FFFE0
31E070
3DEFF0
7DEFF8
7DEFF8
FDEFFC
FDF0FC
FDEE7C
FDFF3C
FDFF3C
FDFF3C
7DCF38
7DCF38
3DCE70
307EF0
1FFFE0
0FFFC0
03FF00
00FC00
ENDCHAR
STARTCHAR 24F0
ENCODING 9456
SWIDTH 1000 0
DWIDTH 24 0
BBX 22 22 1 -2
BITMAP
00FC00
03FF00
07FF80
1FFFE0
39F8F0
39F770
7DE678
7DEFF8
FDCFFC
FDC8FC
FDC67C
FDCF3C
FDCF3C
FDCF3C
7DCF38
7DEF38
3DEF70
3076F0
1FFFE0
0FFFC0
03FF00
00FC00
ENDCHAR
STARTCHAR 24F1
ENCODING 9457
SWIDTH 1000 0
DWIDTH 24 0
BBX 22 22 1 -2
BITMAP
00FC00
03FF80
0FFFC0
1FFFE0
31E030
7DEFB8
7DEFF8
7DEF78
FDFF7C
FDFEFC
FDFEFC
FDFCFC
FDFDFC
FDFDFC
7DF9F8
7DF9F8
3DF9F0
3079F0
1FFFE0
0FFFC0
03FF00
00FC00
ENDCHAR
STARTCHAR 24F2
ENCODING 9458
SWIDTH 1000 0
DWIDTH 24 0
BBX 22 22 1 -2
BITMAP
00FC00
03FF00
0FFF80
1FFFE0
39F0F0
39E770
7DEF78
7DEF78
FDEF7C
FDF6FC
FDF9FC
FDF4FC
FDEE7C
FDDF3C
7DDF38
7DDF38
3DFF70
307EF0
1FFFE0
0FFFC0
03FF00
00FC00
ENDCHAR
STARTCHAR 24F3
ENCODING 9459
SWIDTH 1000 0
DWIDTH 24 0
BBX 22 22 1 -2
BITMAP
00FC00
03FF00
0FFF80
1FFFE0
39F0F0
39E670
7DCF78
7DCF38
FDCF3C
FDCF3C
FDCFBC
FDE73C
FDF13C
FDFF3C
7DFF78
7DCF78
3DCEF0
306DF0
1FFFE0
0FFFC0
03FF00
00FC00
ENDCHAR
STARTCHAR 24F4
ENCODING 9460
SWIDTH 1000 0
DWIDTH 24 0
BBX 22 22 1 -2
BITMAP
00FC00
03FF00
07FF80
1FFFC0
38FCE0
263B70
673378
6737B8
FF37BC
FF77BC
FE77BC
FEF7BC
FCF7BC
FDF7BC
7BB7B8
77B7F8
77BB78
303FF0
1FFFE0
0FFFC0
03FF80
00FC00
ENDCHAR
STARTCHAR 24F5
ENCODING 9461
SWIDTH 1000 0
DWIDTH 24 0
BBX 22 22 0 -2
BITMAP
01FE00
067D80
0B83C0
1400E0
281070
507038
601018
601018
C0100C
C0100C
C0100C
C0100C
C0100C
C01014
601014
601018
501028
287C50
1400A0
0B8340
047C80
030300
ENDCHAR
STARTCHAR 24F6
ENCODING 9462
SWIDTH 1000 0
DWIDTH 24 0
BBX 22 22 1 -2
BITMAP
00FC00
030300
0DFCC0
160320
287CD0
508630
A18318
A18318
41830C
40030C
40060C
400C0C
40180C
40300C
A04114
A08118
510128
4BFF48
240190
130620
0CF8C0
030300
ENDCHAR
STARTCHAR 24F7
ENCODING 9463
SWIDTH 1000 0
DWIDTH 24 0
BBX 22 22 1 -2
BITMAP
01FC00
06FF00
1B03C0
2C00E0
58F870
718C28
A18618
618618
C0060C
400C0C
40700C
400E0C
40030C
400314
A38314
A38328
518628
48FC50
2401A0
130640
0CF880
030700
ENDCHAR
STARTCHAR 24F8
ENCODING 9464
SWIDTH 1000 0
DWIDTH 24 0
BBX 22 22 1 -2
BITMAP
01FC00
06FB00
1F07C0
2C00A0
580850
B01830
A02828
606828
C04814
408814
410814
420814
420814
47FF14
A00828
A00828
500848
483E90
240120
130640
0CF880
030700
ENDCHAR
STARTCHAR 24F9
ENCODING 9465
SWIDTH 1000 0
DWIDTH 24 0
BBX 22 22 1 -2
BITMAP
01FC00
06FF00
1B03C0
2C00E0
59FE70
710028
A10018
610018
C13C0C
41C60C
41070C
40030C
40030C
400314
A38318
A38628
518E28
48F850
2401A0
130640
0CF880
030700
ENDCHAR
STARTCHAR 24FA
ENCODING 9466
SWIDTH 1000 0
DWIDTH 24 0
BBX 22 22 1 -2
BITMAP
01FC00
06FF00
1B03C0
2C00E0
587C70
70C628
A18618
610018
C3000C
433C0C
43C60C
43030C
43030C
430314
A30314
A18628
50C628
487850
2401A0
130640
0CF880
030700
ENDCHAR
STARTCHAR 24FB
ENCODING 9467
SWIDTH 1000 0
DWIDTH 24 0
BBX 22 23 1 -2
BITMAP
00FC00
030300
0CFCC0
130320
2C00D0
59FF70
710228
A10218
E10414
41040C
40080C
40080C
40180C
40100C
401014
A03018
A03028
503028
483050
2401A0
130640
0CF880
030700
ENDCHAR
STARTCHAR 24FC
ENCODING 9468
SWIDTH 1000 0
DWIDTH 24 0
BBX 22 22 1 -2
BITMAP
01FC00
06FF00
1B03C0
2C00E0
587C70
708628
A10218
610218
C1860C
40C80C
40700C
408C0C
41060C
420314
A20314
A20328
518628
48FC50
2401A0
130640
0CF880
030700
ENDCHAR
STARTCHAR 24FD
ENCODING 9469
SWIDTH 1000 0
DWIDTH 24 0
BBX 22 22 1 -2
BITMAP
01FC00
06FF00
1B03C0
2C00E0
587870
718E28
A18618
630318
C3030C
43030C
43030C
418F0C
40F30C
400314
A18614
A18628
518C28
487850
2401A0
130640
0CF880
030700
ENDCHAR
STARTCHAR 24FE
ENCODING 9470
SWIDTH 1000 0
DWIDTH 24 0
BBX 22 22 1 -2
BITMAP
00FC00
030300
0DFEC0
1E01A0
380F50
7719B0
611998
6130D8
C130CC
C130CC
C130CC
C130CC
C130CC
C130CC
A130D4
611998
5119A8
2FCF50
1400A0
0B0340
04FC80
030300
ENDCHAR
STARTCHAR 2500
ENCODING 9472
SWIDTH 1000 0
DWIDTH 24 0
BBX 24 1 0 9
BITMAP
FFFFFF
ENDCHAR
STARTCHAR 2501
ENCODING 9473
SWIDTH 1000 0
DWIDTH 24 0
BBX 24 3 0 8
BITMAP
FFFFFF
FFFFFF
FFFFFF
ENDCHAR
STARTCHAR 2502
ENCODING 9474
SWIDTH 1000 0
DWIDTH 24 0
BBX 1 24 12 -2
BITMAP
80
80
80
80
80
80
80
80
80
80
80
80
80
80
80
80
80
80
80
80
80
80
80
80
ENDCHAR
STARTCHAR 2503
ENCODING 9475
SWIDTH 1000 0
DWIDTH 24 0
BBX 3 24 11 -3
BITMAP
E0
E0
E0
E0
E0
E0
E0
E0
E0
E0
E0
E0
E0
E0
E0
E0
E0
E0
E0
E0
E0
E0
E0
E0
ENDCHAR
STARTCHAR 250C
ENCODING 9484
SWIDTH 1000 0
DWIDTH 24 0
BBX 13 13 12 -3
BITMAP
FFF8
8000
8000
8000
8000
8000
8000
8000
8000
8000
8000
8000
8000
ENDCHAR
STARTCHAR 250F
ENCODING 9487
SWIDTH 1000 0
DWIDTH 24 0
BBX 13 14 11 -3
BITMAP
FFF8
FFF8
FFF8
E000
E000
E000
E000
E000
E000
E000
E000
E000
E000
E000
ENDCHAR
STARTCHAR 2510
ENCODING 9488
SWIDTH 1000 0
DWIDTH 24 0
BBX 13 13 -1 -3
BITMAP
FFF8
0008
0008
0008
0008
0008
0008
0008
0008
0008
0008
0008
0008
ENDCHAR
STARTCHAR 2513
ENCODING 9491
SWIDTH 1000 0
DWIDTH 24 0
BBX 13 14 0 -3
BITMAP
FFF8
FFF8
FFF8
0038
0038
0038
0038
0038
0038
0038
0038
0038
0038
0038
ENDCHAR
STARTCHAR 2514
ENCODING 9492
SWIDTH 1000 0
DWIDTH 24 0
BBX 13 13 12 9
BITMAP
8000
8000
8000
8000
8000
8000
8000
8000
8000
8000
8000
8000
FFF8
ENDCHAR
STARTCHAR 2517
ENCODING 9495
SWIDTH 1000 0
DWIDTH 24 0
BBX 13 13 11 8
BITMAP
E000
E000
E000
E000
E000
E000
E000
E000
E000
E000
FFF8
FFF8
FFF8
ENDCHAR
STARTCHAR 2518
ENCODING 9496
SWIDTH 1000 0
DWIDTH 24 0
BBX 13 13 -1 9
BITMAP
0008
0008
0008
0008
0008
0008
0008
0008
0008
0008
0008
0008
FFF8
ENDCHAR
STARTCHAR 251B
ENCODING 9499
SWIDTH 1000 0
DWIDTH 24 0
BBX 13 13 0 8
BITMAP
0038
0038
0038
0038
0038
0038
0038
0038
0038
0038
FFF8
FFF8
FFF8
ENDCHAR
STARTCHAR 251C
ENCODING 9500
SWIDTH 1000 0
DWIDTH 24 0
BBX 13 25 12 -3
BITMAP
8000
8000
8000
8000
8000
8000
8000
8000
8000
8000
8000
8000
FFF8
8000
8000
8000
8000
8000
8000
8000
8000
8000
8000
8000
8000
ENDCHAR
STARTCHAR 251D
ENCODING 9501
SWIDTH 1000 0
DWIDTH 24 0
BBX 12 25 12 -3
BITMAP
8000
8000
8000
8000
8000
8000
8000
8000
8000
8000
8000
FFF0
FFF0
FFF0
8000
8000
8000
8000
8000
8000
8000
8000
8000
8000
8000
ENDCHAR
STARTCHAR 2520
ENCODING 9504
SWIDTH 1000 0
DWIDTH 24 0
BBX 14 24 11 -3
BITMAP
E000
E000
E000
E000
E000
E000
E000
E000
E000
E000
E000
FFFC
E000
E000
E000
E000
E000
E000
E000
E000
E000
E000
E000
E000
ENDCHAR
STARTCHAR 2523
ENCODING 9507
SWIDTH 1000 0
DWIDTH 24 0
BBX 13 24 11 -3
BITMAP
E000
E000
E000
E000
E000
E000
E000
E000
E000
E000
FFF8
FFF8
FFF8
E000
E000
E000
E000
E000
E000
E000
E000
E000
E000
E000
ENDCHAR
STARTCHAR 2524
ENCODING 9508
SWIDTH 1000 0
DWIDTH 24 0
BBX 13 25 -1 -3
BITMAP
0008
0008
0008
0008
0008
0008
0008
0008
0008
0008
0008
0008
FFF8
0008
0008
0008
0008
0008
0008
0008
0008
0008
0008
0008
0008
ENDCHAR
STARTCHAR 2525
ENCODING 9509
SWIDTH 1000 0
DWIDTH 24 0
BBX 12 25 0 -3
BITMAP
0010
0010
0010
0010
0010
0010
0010
0010
0010
0010
0010
FFF0
FFF0
FFF0
0010
0010
0010
0010
0010
0010
0010
0010
0010
0010
0010
ENDCHAR
STARTCHAR 2528
ENCODING 9512
SWIDTH 1000 0
DWIDTH 24 0
BBX 14 24 -1 -3
BITMAP
001C
001C
001C
001C
001C
001C
001C
001C
001C
001C
001C
FFFC
001C
001C
001C
001C
001C
001C
001C
001C
001C
001C
001C
001C
ENDCHAR
STARTCHAR 252B
ENCODING 9515
SWIDTH 1000 0
DWIDTH 24 0
BBX 13 24 0 -3
BITMAP
0038
0038
0038
0038
0038
0038
0038
0038
0038
0038
FFF8
FFF8
FFF8
0038
0038
0038
0038
0038
0038
0038
0038
0038
0038
0038
ENDCHAR
STARTCHAR 252C
ENCODING 9516
SWIDTH 1000 0
DWIDTH 24 0
BBX 25 13 0 -3
BITMAP
FFFFFF80
00080000
00080000
00080000
00080000
00080000
00080000
00080000
00080000
00080000
00080000
00080000
00080000
ENDCHAR
STARTCHAR 252F
ENCODING 9519
SWIDTH 1000 0
DWIDTH 24 0
BBX 24 14 0 -3
BITMAP
FFFFFF
FFFFFF
FFFFFF
000800
000800
000800
000800
000800
000800
000800
000800
000800
000800
000800
ENDCHAR
STARTCHAR 2530
ENCODING 9520
SWIDTH 1000 0
DWIDTH 24 0
BBX 25 13 0 -3
BITMAP
FFFFFF80
001C0000
001C0000
001C0000
001C0000
001C0000
001C0000
001C0000
001C0000
001C0000
001C0000
001C0000
001C0000
ENDCHAR
STARTCHAR 2533
ENCODING 9523
SWIDTH 1000 0
DWIDTH 24 0
BBX 24 14 0 -3
BITMAP
FFFFFF
FFFFFF
FFFFFF
001C00
001C00
001C00
001C00
001C00
001C00
001C00
001C00
001C00
001C00
001C00
ENDCHAR
STARTCHAR 2534
ENCODING 9524
SWIDTH 1000 0
DWIDTH 24 0
BBX 25 13 0 9
BITMAP
00080000
00080000
00080000
00080000
00080000
00080000
00080000
00080000
00080000
00080000
00080000
00080000
FFFFFF80
ENDCHAR
STARTCHAR 2537
ENCODING 9527
SWIDTH 1000 0
DWIDTH 24 0
BBX 24 14 0 8
BITMAP
000800
000800
000800
000800
000800
000800
000800
000800
000800
000800
000800
FFFFFF
FFFFFF
FFFFFF
ENDCHAR
STARTCHAR 2538
ENCODING 9528
SWIDTH 1000 0
DWIDTH 24 0
BBX 25 12 0 9
BITMAP
001C0000
001C0000
001C0000
001C0000
001C0000
001C0000
001C0000
001C0000
001C0000
001C0000
001C0000
FFFFFF80
ENDCHAR
STARTCHAR 253B
ENCODING 9531
SWIDTH 1000 0
DWIDTH 24 0
BBX 24 13 0 8
BITMAP
001C00
001C00
001C00
001C00
001C00
001C00
001C00
001C00
001C00
001C00
FFFFFF
FFFFFF
FFFFFF
ENDCHAR
STARTCHAR 253C
ENCODING 9532
SWIDTH 1000 0
DWIDTH 24 0
BBX 25 25 0 -3
BITMAP
00080000
00080000
00080000
00080000
00080000
00080000
00080000
00080000
00080000
00080000
00080000
00080000
FFFFFF80
00080000
00080000
00080000
00080000
00080000
00080000
00080000
00080000
00080000
00080000
00080000
00080000
ENDCHAR
STARTCHAR 253F
ENCODING 9535
SWIDTH 1000 0
DWIDTH 24 0
BBX 24 25 0 -3
BITMAP
000800
000800
000800
000800
000800
000800
000800
000800
000800
000800
000800
FFFFFF
FFFFFF
FFFFFF
000800
000800
000800
000800
000800
000800
000800
000800
000800
000800
000800
ENDCHAR
STARTCHAR 2542
ENCODING 9538
SWIDTH 1000 0
DWIDTH 24 0
BBX 25 24 0 -3
BITMAP
001C0000
001C0000
001C0000
001C0000
001C0000
001C0000
001C0000
001C0000
001C0000
001C0000
001C0000
FFFFFF80
001C0000
001C0000
001C0000
001C0000
001C0000
001C0000
001C0000
001C0000
001C0000
001C0000
001C0000
001C0000
ENDCHAR
STARTCHAR 254B
ENCODING 9547
SWIDTH 1000 0
DWIDTH 24 0
BBX 24 24 0 -3
BITMAP
001C00
001C00
001C00
001C00
001C00
001C00
001C00
001C00
001C00
001C00
FFFFFF
FFFFFF
FFFFFF
001C00
001C00
001C00
001C00
001C00
001C00
001C00
001C00
001C00
001C00
001C00
ENDCHAR
STARTCHAR 25A0
ENCODING 9632
SWIDTH 1000 0
DWIDTH 24 0
BBX 18 18 3 0
BITMAP
FFFFC0
FFFFC0
FFFFC0
FFFFC0
FFFFC0
FFFFC0
FFFFC0
FFFFC0
FFFFC0
FFFFC0
FFFFC0
FFFFC0
FFFFC0
FFFFC0
FFFFC0
FFFFC0
FFFFC0
FFFFC0
ENDCHAR
STARTCHAR 25A1
ENCODING 9633
SWIDTH 1000 0
DWIDTH 24 0
BBX 18 18 3 0
BITMAP
FFFFC0
800040
800040
800040
800040
800040
800040
800040
800040
800040
800040
800040
800040
800040
800040
800040
800040
FFFFC0
ENDCHAR
STARTCHAR 25B1
ENCODING 9649
SWIDTH 1000 0
DWIDTH 24 0
BBX 22 9 1 5
BITMAP
0FFFFC
080008
180018
100010
300030
200020
600060
400040
FFFFC0
ENDCHAR
STARTCHAR 25B2
ENCODING 9650
SWIDTH 1000 0
DWIDTH 24 0
BBX 18 18 3 1
BITMAP
00C000
00C000
01E000
01E000
03F000
03F000
07F800
07F800
0FFC00
0FFC00
1FFE00
1FFE00
3FFF00
3FFF00
7FFF80
7FFF80
FFFFC0
FFFFC0
ENDCHAR
STARTCHAR 25B3
ENCODING 9651
SWIDTH 1000 0
DWIDTH 24 0
BBX 18 18 3 1
BITMAP
00C000
00C000
012000
012000
021000
021000
040800
040800
080400
080400
100200
100200
200100
200100
400080
400080
800040
FFFFC0
ENDCHAR
STARTCHAR 25B6
ENCODING 9654
SWIDTH 1000 0
DWIDTH 24 0
BBX 18 19 3 -1
BITMAP
800000
E00000
F00000
FC0000
FF0000
FFC000
FFF000
FFFC00
FFFF00
FFFFC0
FFFF80
FFFF00
FFFC00
FFF000
FFC000
FF0000
FC0000
F00000
C00000
ENDCHAR
STARTCHAR 25B7
ENCODING 9655
SWIDTH 1000 0
DWIDTH 24 0
BBX 18 19 3 -1
BITMAP
800000
E00000
B80000
8C0000
830000
80C000
803000
800C00
800300
8000C0
8001C0
800700
801C00
803000
80C000
830000
8C0000
B00000
C00000
ENDCHAR
STARTCHAR 25BC
ENCODING 9660
SWIDTH 1000 0
DWIDTH 24 0
BBX 18 18 3 -1
BITMAP
FFFFC0
FFFFC0
7FFF80
7FFF80
3FFF00
3FFF00
1FFE00
1FFE00
0FFC00
0FFC00
07F800
07F800
03F000
03F000
01E000
01E000
00C000
00C000
ENDCHAR
STARTCHAR 25BD
ENCODING 9661
SWIDTH 1000 0
DWIDTH 24 0
BBX 18 18 3 -1
BITMAP
FFFFC0
800040
400080
400080
200100
200100
100200
100200
080400
080400
040800
040800
021000
021000
012000
012000
00C000
00C000
ENDCHAR
STARTCHAR 25C0
ENCODING 9664
SWIDTH 1000 0
DWIDTH 24 0
BBX 18 19 3 -1
BITMAP
000040
0001C0
0007C0
000FC0
003FC0
00FFC0
03FFC0
0FFFC0
3FFFC0
FFFFC0
7FFFC0
3FFFC0
0FFFC0
03FFC0
00FFC0
003FC0
000FC0
0003C0
0000C0
ENDCHAR
STARTCHAR 25C1
ENCODING 9665
SWIDTH 1000 0
DWIDTH 24 0
BBX 18 19 3 -1
BITMAP
000040
0001C0
000740
000C40
003040
00C040
030040
0C0040
300040
C00040
E00040
380040
0E0040
030040
00C040
003040
000C40
000340
0000C0
ENDCHAR
STARTCHAR 25C6
ENCODING 9670
SWIDTH 1000 0
DWIDTH 24 0
BBX 20 20 2 -1
BITMAP
006000
00F000
01F800
03FC00
07FE00
0FFF00
1FFF80
3FFFC0
7FFFE0
FFFFF0
FFFFF0
7FFFE0
3FFFC0
1FFF80
0FFF00
07FE00
03FC00
01F800
00F000
006000
ENDCHAR
STARTCHAR 25C7
ENCODING 9671
SWIDTH 1000 0
DWIDTH 24 0
BBX 20 20 2 -1
BITMAP
006000
009000
010800
020400
040200
080100
100080
200040
400020
800010
800010
400020
200040
100080
080100
040200
020400
010800
009000
006000
ENDCHAR
STARTCHAR 25C9
ENCODING 9673
SWIDTH 1000 0
DWIDTH 24 0
BBX 20 20 2 -1
BITMAP
01F800
060600
180180
3000C0
20F040
43FC20
47FE20
87FE10
8FFF10
8FFF10
8FFF10
8FFF10
87FE10
47FE20
43FC20
20F040
3000C0
180180
060600
01F800
ENDCHAR
STARTCHAR 25CB
ENCODING 9675
SWIDTH 1000 0
DWIDTH 24 0
BBX 20 20 2 -1
BITMAP
01F800
060600
180180
3000C0
200040
400020
400020
800010
800010
800010
800010
800010
800010
400020
400020
200040
3000C0
180180
060600
01F800
ENDCHAR
STARTCHAR 25CE
ENCODING 9678
SWIDTH 1000 0
DWIDTH 24 0
BBX 20 20 2 -1
BITMAP
01F800
060600
180180
3000C0
20F040
430C20
460220
840210
880110
880110
880110
880110
840210
440620
430C20
20F040
3000C0
180180
060600
01F800
ENDCHAR
STARTCHAR 25CF
ENCODING 9679
SWIDTH 1000 0
DWIDTH 24 0
BBX 20 20 2 -1
BITMAP
01F800
07FE00
1FFF80
3FFFC0
3FFFC0
7FFFE0
7FFFE0
FFFFF0
FFFFF0
FFFFF0
FFFFF0
FFFFF0
FFFFF0
7FFFE0
7FFFE0
3FFFC0
3FFFC0
1FFF80
07FE00
01F800
ENDCHAR
STARTCHAR 25D0
ENCODING 9680
SWIDTH 1000 0
DWIDTH 24 0
BBX 20 20 2 -1
BITMAP
01F800
07C600
1FC180
3FC0C0
3FC040
7FC020
7FC020
FFC010
FFC010
FFC010
FFC010
FFC010
FFC010
7FC020
7FC020
3FC040
3FC0C0
1FC180
07C600
01F800
ENDCHAR
STARTCHAR 25D1
ENCODING 9681
SWIDTH 1000 0
DWIDTH 24 0
BBX 20 20 2 -1
BITMAP
01F800
063F00
183F80
303FC0
203FC0
403FE0
403FE0
803FF0
803FF0
803FF0
803FF0
803FF0
803FF0
403FE0
403FE0
203FC0
303FC0
183F80
063E00
01F800
ENDCHAR
STARTCHAR 25D2
ENCODING 9682
SWIDTH 1000 0
DWIDTH 24 0
BBX 20 20 2 -1
BITMAP
01F800
060600
180180
300080
200040
400020
400020
800010
800010
800010
FFFFF0
FFFFF0
FFFFF0
7FFFE0
7FFFE0
3FFFC0
3FFFC0
1FFF80
07FE00
01F800
ENDCHAR
STARTCHAR 25D3
ENCODING 9683
SWIDTH 1000 0
DWIDTH 24 0
BBX 20 20 2 -1
BITMAP
01F800
07FE00
1FFF80
3FFF80
3FFFC0
7FFFE0
7FFFE0
FFFFF0
FFFFF0
FFFFF0
800010
800010
800010
400020
400020
200040
3000C0
180180
060600
01F800
ENDCHAR
STARTCHAR 25E6
ENCODING 9702
SWIDTH 1000 0
DWIDTH 24 0
BBX 8 8 8 5
BITMAP
3C
42
81
81
81
81
42
3C
ENDCHAR
STARTCHAR 25EF
ENCODING 9711
SWIDTH 1000 0
DWIDTH 24 0
BBX 22 22 1 -2
BITMAP
00FC00
030300
0C00C0
100060
200010
600010
400008
400008
800004
800004
800004
800004
800004
800004
400008
400008
200010
200010
100020
0C00C0
030300
00FC00
ENDCHAR
STARTCHAR 2600
ENCODING 9728
SWIDTH 1000 0
DWIDTH 24 0
BBX 23 23 1 -2
BITMAP
001000
001000
001000
001000
081020
040040
027880
01FE00
03FF00
03FF00
07FF80
FFFFBE
07FF80
07FF80
03FF00
03FF00
03FE80
047840
081020
001000
001000
001000
001000
ENDCHAR
STARTCHAR 2601
ENCODING 9729
SWIDTH 1000 0
DWIDTH 24 0
BBX 20 17 2 -1
BITMAP
03E000
07F000
0FF800
0FFC00
0FFCE0
0FFDF0
0FFFF0
1FFFF0
7FFFF0
7FFFE0
FFFFE0
FFFFF0
FFFFF0
FFBFF0
7F1FF0
3C1FE0
0007C0
ENDCHAR
STARTCHAR 2602
ENCODING 9730
SWIDTH 1000 0
DWIDTH 24 0
BBX 23 22 1 -2
BITMAP
001000
001000
01FF00
07FFC0
1FFFF0
3FFFF8
7FFFFC
7FFFFC
C739C6
8610C2
841082
001000
001000
001000
001000
001000
001000
001000
001000
011000
009000
00E000
ENDCHAR
STARTCHAR 2603
ENCODING 9731
SWIDTH 1000 0
DWIDTH 24 0
BBX 22 22 1 -1
BITMAP
80621C
06050C
0A0880
041040
602020
61E058
061898
040780
08CC40
68CC40
A80040
44848C
06798C
C80040
500020
A03010
203010
200010
203010
303030
180060
07FF80
ENDCHAR
STARTCHAR 2605
ENCODING 9733
SWIDTH 1000 0
DWIDTH 24 0
BBX 22 21 1 -1
BITMAP
002000
003000
003000
003000
007800
007800
007800
00F800
FFFFFC
3FFFF0
1FFFE0
0FFFC0
03FF00
03FF00
03FF00
03FF00
07FF80
078780
070380
0E01C0
080040
ENDCHAR
STARTCHAR 2606
ENCODING 9734
SWIDTH 1000 0
DWIDTH 24 0
BBX 22 22 1 -2
BITMAP
002000
003000
003000
003000
004800
004800
004800
008800
FF87FC
200010
100020
0C00C0
020100
020100
020100
020100
047880
04CC80
050280
0A0140
0C00C0
100040
ENDCHAR
STARTCHAR 260E
ENCODING 9742
SWIDTH 1000 0
DWIDTH 24 0
BBX 22 18 1 0
BITMAP
0FFFC0
3FFFF0
7FFFF8
7986F8
F1863C
F1FE3C
03FF00
078780
070380
0E01C0
0E01C0
1E01E0
3E01E0
3E01F0
7F03F0
7F87F8
7FFFF8
7FFFF8
ENDCHAR
STARTCHAR 2616
ENCODING 9750
SWIDTH 1000 0
DWIDTH 24 0
BBX 20 19 2 1
BITMAP
00F000
019800
060600
180180
3000C0
200040
200040
200040
200040
600040
400020
400020
400020
400020
400020
400020
400020
400020
FFFFF0
ENDCHAR
STARTCHAR 2617
ENCODING 9751
SWIDTH 1000 0
DWIDTH 24 0
BBX 20 19 2 1
BITMAP
006000
01F800
07FE00
1FFF80
3FFFC0
3FFFC0
3FFFC0
3FFFC0
3FFFC0
7FFFC0
7FFFE0
7FFFE0
7FFFE0
7FFFE0
7FFFE0
7FFFE0
7FFFE0
7FFFE0
FFFFF0
ENDCHAR
STARTCHAR 261E
ENCODING 9758
SWIDTH 1000 0
DWIDTH 24 0
BBX 20 11 2 3
BITMAP
61E000
961FF0
080C10
1053E0
1FBD00
102C80
103300
186900
1E2600
91DC00
602000
ENDCHAR
STARTCHAR 2640
ENCODING 9792
SWIDTH 1000 0
DWIDTH 24 0
BBX 15 22 4 -2
BITMAP
07C0
0820
1010
2008
2008
2008
2008
2008
1010
0860
0780
0100
0100
0100
FFFE
0100
0100
0100
0100
0100
0100
0100
ENDCHAR
STARTCHAR 2642
ENCODING 9794
SWIDTH 1000 0
DWIDTH 24 0
BBX 19 19 2 -1
BITMAP
001FE0
000060
0000A0
000120
000220
000420
000820
001020
1E2000
21C000
404000
804000
802000
802000
802000
802000
404000
218000
1F0000
ENDCHAR
STARTCHAR 2660
ENCODING 9824
SWIDTH 1000 0
DWIDTH 24 0
BBX 18 22 3 -1
BITMAP
00C000
01E000
01E000
03F000
07F800
0FFC00
1FFE00
1FFE00
3FFF00
7FFF80
7FFF80
FFFFC0
FFFFC0
FFFFC0
FFFFC0
FF5FC0
7F5F80
3C4F00
00C000
00E000
01E000
01F000
ENDCHAR
STARTCHAR 2661
ENCODING 9825
SWIDTH 1000 0
DWIDTH 24 0
BBX 20 20 2 -2
BITMAP
1F0F80
619860
406020
806010
800010
800010
800010
800010
400020
400020
200040
3000C0
100080
080100
040200
020400
030C00
019800
00F000
006000
ENDCHAR
STARTCHAR 2662
ENCODING 9826
SWIDTH 1000 0
DWIDTH 24 0
BBX 18 22 3 -2
BITMAP
00C000
012000
033000
021000
040800
080400
180600
100200
200100
400080
800040
400080
600180
200100
100200
080400
0C0C00
040800
021000
012000
016000
00C000
ENDCHAR
STARTCHAR 2663
ENCODING 9827
SWIDTH 1000 0
DWIDTH 24 0
BBX 20 22 2 -2
BITMAP
00F000
03FC00
03FC00
07FE00
07FE00
07FE00
07FE00
03FC00
3DFBC0
7EF7E0
FFFFE0
FFFFF0
FFFFF0
FFFFF0
FFFFF0
7F2FE0
7E27E0
3C23C0
006000
007000
00F000
00F800
ENDCHAR
STARTCHAR 2664
ENCODING 9828
SWIDTH 1000 0
DWIDTH 24 0
BBX 18 22 3 -2
BITMAP
00C000
01E000
033000
021000
040800
080400
100200
300300
200100
400080
400080
800040
800040
800040
800040
C120C0
435080
3D2F00
012000
012000
021000
03F000
ENDCHAR
STARTCHAR 2665
ENCODING 9829
SWIDTH 1000 0
DWIDTH 24 0
BBX 20 20 2 -2
BITMAP
1E0780
7F9FE0
7F9FE0
FFFFF0
FFFFF0
FFFFF0
FFFFF0
FFFFF0
7FFFE0
7FFFE0
3FFFC0
1FFF80
1FFF00
0FFF00
07FE00
03FC00
01F800
00F000
00E000
006000
ENDCHAR
STARTCHAR 2666
ENCODING 9830
SWIDTH 1000 0
DWIDTH 24 0
BBX 18 22 3 -2
BITMAP
00C000
01E000
03F000
03F000
07F800
0FFC00
1FFE00
1FFE00
3FFF00
7FFF80
FFFFC0
7FFF80
3FFF00
3FFF00
1FFE00
0FFC00
0FFC00
07F800
03F000
01E000
01E000
00C000
ENDCHAR
STARTCHAR 2667
ENCODING 9831
SWIDTH 1000 0
DWIDTH 24 0
BBX 20 22 2 -3
BITMAP
00F000
030C00
020400
040200
040200
040200
040200
020400
1F0FC0
619860
400020
800010
800010
800010
809010
419820
63AC60
1E9780
009000
011000
010800
01F800
ENDCHAR
STARTCHAR 2668
ENCODING 9832
SWIDTH 1000 0
DWIDTH 24 0
BBX 20 18 2 2
BITMAP
004000
008200
088400
088400
088400
08C400
0C4600
046200
063300
021100
421120
821110
841210
882210
C04030
600060
380380
07FE00
ENDCHAR
STARTCHAR 2669
ENCODING 9833
SWIDTH 1000 0
DWIDTH 24 0
BBX 7 20 7 0
BITMAP
02
02
02
02
02
02
02
02
02
02
02
02
02
02
02
3A
FE
FE
FC
78
ENDCHAR
STARTCHAR 266A
ENCODING 9834
SWIDTH 1000 0
DWIDTH 24 0
BBX 16 20 5 0
BITMAP
0200
0300
0380
03C0
0270
0238
021C
020E
0207
0203
0203
0202
0206
0208
0200
3A00
FE00
FE00
FC00
7800
ENDCHAR
STARTCHAR 266B
ENCODING 9835
SWIDTH 1000 0
DWIDTH 24 0
BBX 17 22 2 -1
BITMAP
000180
001F80
01FF80
03FC80
03C080
020080
020080
020080
020080
020080
020080
020080
020080
020080
020080
020F80
021F80
3A1F00
7E0E00
FE0000
FC0000
780000
ENDCHAR
STARTCHAR 266C
ENCODING 9836
SWIDTH 1000 0
DWIDTH 24 0
BBX 17 22 2 -1
BITMAP
000180
001F80
01FF80
03FC80
03C080
020780
027F80
03FF80
03F080
030080
020080
020080
020080
020080
020080
020F80
021F80
3A1F00
7E0E00
FE0000
FC0000
780000
ENDCHAR
STARTCHAR 266D
ENCODING 9837
SWIDTH 1000 0
DWIDTH 24 0
BBX 9 20 8 0
BITMAP
8000
8000
8000
8000
8000
8000
8000
9E00
E300
8180
8180
8180
8180
8300
8300
8600
8C00
9800
A000
C000
ENDCHAR
STARTCHAR 266E
ENCODING 9838
SWIDTH 1000 0
DWIDTH 24 0
BBX 6 20 9 0
BITMAP
80
80
80
80
80
9C
FC
E4
84
84
84
8C
FC
F4
C4
04
04
04
04
04
ENDCHAR
STARTCHAR 266F
ENCODING 9839
SWIDTH 1000 0
DWIDTH 24 0
BBX 14 20 5 -1
BITMAP
0840
0840
0840
0840
085C
09FC
3FC0
F840
0840
0840
0840
084C
08FC
1FE0
FC40
C840
0840
0840
0840
0800
ENDCHAR
STARTCHAR 2713
ENCODING 10003
SWIDTH 1000 0
DWIDTH 24 0
BBX 16 16 5 2
BITMAP
0001
0002
0004
000C
0008
0010
0020
0060
40C0
C180
E300
6600
7C00
3C00
3800
1000
ENDCHAR
STARTCHAR 2756
ENCODING 10070
SWIDTH 1000 0
DWIDTH 24 0
BBX 20 20 2 -1
BITMAP
006000
00F000
01F800
03FC00
03FC00
01F800
18F180
3C63C0
7E07E0
FF0FF0
FF0FF0
7E07E0
3C63C0
18F180
01F800
03FC00
03FC00
01F800
00F000
006000
ENDCHAR
STARTCHAR 2776
ENCODING 10102
SWIDTH 1000 0
DWIDTH 24 0
BBX 21 22 1 -2
BITMAP
01F800
07FF00
0FFF80
1FFFC0
3F1FE0
7FDFF0
7FDFF0
FFDFF0
FFDFF8
FFDFF8
FFDFF8
FFDFF8
FFDFF8
FFDFF8
7FDFF0
7FDFF0
7FDFF0
3F07E0
1FFFC0
0FFF80
07FF00
01FC00
ENDCHAR
STARTCHAR 2777
ENCODING 10103
SWIDTH 1000 0
DWIDTH 24 0
BBX 22 22 1 -2
BITMAP
00FC00
03FF00
07FFC0
1FFFE0
3FFBF0
3FFDF0
7EFCF8
7E7CF8
FE7CFC
FFF9FC
FFF1FC
FFF3FC
FFE7FC
FFDFFC
7FBEF8
7F7EF8
7EFEF0
3C00F0
1FFFE0
0FFFC0
03FF00
00FC00
ENDCHAR
STARTCHAR 2778
ENCODING 10104
SWIDTH 1000 0
DWIDTH 24 0
BBX 22 22 1 -2
BITMAP
00FC00
03FF00
0FFFC0
1F83E0
3F71F0
7EFCF0
7E7CF8
7E7CF8
FFFCFC
FFF9FC
FF8FFC
FFF9FC
FFFCFC
FFFCFC
7CFCF8
7CFCF8
3EF9F0
3F73F0
1FFFE0
0FFFC0
03FF00
00FC00
ENDCHAR
STARTCHAR 2779
ENCODING 10105
SWIDTH 1000 0
DWIDTH 24 0
BBX 22 22 1 -2
BITMAP
00FC00
03FF00
07FF80
1FFFE0
3FF7F0
3FE7F0
7FD7F8
7FB7F8
FF37FC
FF77FC
FEF7FC
FDF7FC
FBF7FC
F800FC
7FF7F8
7FF7F8
3FF7F0
3FC1F0
1FFFE0
0FFFC0
03FF00
00FC00
ENDCHAR
STARTCHAR 277A
ENCODING 10106
SWIDTH 1000 0
DWIDTH 24 0
BBX 22 22 1 -2
BITMAP
00FC00
03FF00
07FF80
1FFFE0
3E01F0
3EFFF0
7EFFF8
7EFFF8
FEFFFC
FEF3FC
FEF9FC
FFFCFC
FFFCFC
FFFCFC
7C7CF8
7C7DF8
7EF9F8
3F77F0
1FFFE0
0FFFC0
03FF80
00FC00
ENDCHAR
STARTCHAR 277B
ENCODING 10107
SWIDTH 1000 0
DWIDTH 24 0
BBX 22 22 1 -2
BITMAP
00FC00
03FF00
0FFFC0
1FC7E0
3F39F0
7E79F0
7E79F8
7EFFF8
FCFFFC
FC83FC
FC79FC
FCF8FC
FCFCFC
FCFCFC
7CFCF8
7EFDF8
3F79F0
3FB7F0
1FFFE0
0FFFC0
03FF00
00FC00
ENDCHAR
STARTCHAR 277C
ENCODING 10108
SWIDTH 1000 0
DWIDTH 24 0
BBX 22 22 1 -2
BITMAP
00FC00
03FF00
07FFC0
1FFFE0
3E00F0
3EFEF0
7EFDF8
7EFDF8
FEFBFC
FFFBFC
FFF7FC
FFF7FC
FFE7FC
FFEFFC
7FEFF8
7FCFF8
3FCFF0
3FCFF0
1FCFE0
0FFFC0
03FF00
00FC00
ENDCHAR
STARTCHAR 277D
ENCODING 10109
SWIDTH 1000 0
DWIDTH 24 0
BBX 22 22 1 -2
BITMAP
00FC00
03FF00
0FFFC0
1F87E0
3F7BF0
7EFDF0
7EFDF8
7EFDF8
FE7BFC
FF37FC
FFCFFC
FF73FC
FEF9FC
FDFCFC
7DFCF8
7DFCF8
3EFDF0
3F7BF0
1FFFE0
0FFFC0
03FF00
00FC00
ENDCHAR
STARTCHAR 277E
ENCODING 10110
SWIDTH 1000 0
DWIDTH 24 0
BBX 22 22 1 -2
BITMAP
00FC00
03FF00
0FFFC0
1F87E0
3E3BF0
7E79F0
7CFDF8
7CFCF8
FCFCFC
FCFCFC
FC7CFC
FE78FC
FF04FC
FFFCFC
7E7DF8
7E79F8
3EFBF0
3F77F0
1FFFE0
0FFFC0
03FF00
00FC00
ENDCHAR
STARTCHAR 277F
ENCODING 10111
SWIDTH 1000 0
DWIDTH 24 0
BBX 22 22 1 -2
BITMAP
00FC00
03FF00
07FFC0
1FFFE0
39F0F0
39E670
7DE678
7DCF38
FDCF3C
FDCF3C
FDCF3C
FDCF3C
FDCF3C
FDCF3C
7DCF38
7DEF78
3DE670
3076F0
1FFFE0
0FFFC0
03FF00
00FC00
ENDCHAR
STARTCHAR 2934
ENCODING 10548
SWIDTH 1000 0
DWIDTH 24 0
BBX 20 18 2 1
BITMAP
000100
000380
0007C0
000D60
000920
001110
001110
000100
000100
000100
000100
000100
000100
000100
000200
000600
000C00
FFF000
ENDCHAR
STARTCHAR 2935
ENCODING 10549
SWIDTH 1000 0
DWIDTH 24 0
BBX 20 18 2 -1
BITMAP
FFF000
000C00
000600
000200
000100
000100
000100
000100
000100
000100
000100
000100
001110
000920
000D60
0007C0
000380
000100
ENDCHAR
STARTCHAR 29BF
ENCODING 10687
SWIDTH 1000 0
DWIDTH 24 0
BBX 20 20 2 -1
BITMAP
01F800
060600
180180
3000C0
200040
400020
407020
80F810
81FC10
81FC10
81FC10
80F810
807010
400020
400020
200040
3000C0
180180
060600
01F800
ENDCHAR
STARTCHAR 29FA
ENCODING 10746
SWIDTH 1000 0
DWIDTH 24 0
BBX 12 13 6 0
BITMAP
1080
1080
1080
1080
1080
1080
FFF0
1080
1080
1080
1080
1080
1080
ENDCHAR
STARTCHAR 29FB
ENCODING 10747
SWIDTH 1000 0
DWIDTH 24 0
BBX 12 13 6 0
BITMAP
2440
2440
2440
2440
2440
2440
FFF0
2440
2440
2440
2440
2440
2440
ENDCHAR
STARTCHAR 2E83
ENCODING 11907
SWIDTH 1000 0
DWIDTH 24 0
BBX 15 18 6 1
BITMAP
C000
8000
8000
8000
8000
8000
8000
8000
8000
8000
8000
8000
8004
8004
8004
8004
800E
7FFC
ENDCHAR
STARTCHAR 2E85
ENCODING 11909
SWIDTH 1000 0
DWIDTH 24 0
BBX 12 21 5 -1
BITMAP
0030
0060
0040
00C0
0180
0100
0300
0780
0D00
1900
3100
6100
C100
0100
0100
0100
0100
0100
0100
0100
0100
ENDCHAR
STARTCHAR 2E87
ENCODING 11911
SWIDTH 1000 0
DWIDTH 24 0
BBX 22 21 1 -2
BITMAP
000040
1FFFE0
100040
100040
100040
100040
100040
100040
100040
100060
100060
100060
100060
100024
200024
200024
200034
400014
40001C
40000C
80000C
ENDCHAR
STARTCHAR 2E89
ENCODING 11913
SWIDTH 1000 0
DWIDTH 24 0
BBX 10 20 8 -1
BITMAP
00C0
0080
C080
8080
8080
8080
8080
8080
8080
8080
8080
8080
8080
8080
8080
0080
0080
0080
3F80
0300
ENDCHAR
STARTCHAR 2E8E
ENCODING 11918
SWIDTH 1000 0
DWIDTH 24 0
BBX 20 20 2 -2
BITMAP
000020
000070
FFFFF0
020800
020800
020800
020800
020800
020800
020800
020800
060800
040800
040820
080820
080820
100820
300830
400FF0
800000
ENDCHAR
STARTCHAR 2E8F
ENCODING 11919
SWIDTH 1000 0
DWIDTH 24 0
BBX 21 21 2 -2
BITMAP
000800
030400
060200
040100
080180
1800C0
100040
230C60
420820
020800
020800
020800
020800
020800
060800
040810
0C0810
080810
300838
400FF0
800000
ENDCHAR
STARTCHAR 2E90
ENCODING 11920
SWIDTH 1000 0
DWIDTH 24 0
BBX 21 22 1 -2
BITMAP
006000
007000
004000
004000
004010
004030
7FFFF8
004C00
004800
004800
004800
00C800
008800
008800
018800
010810
030810
020810
040810
180818
200FF8
C00000
ENDCHAR
STARTCHAR 2E92
ENCODING 11922
SWIDTH 1000 0
DWIDTH 24 0
BBX 17 18 5 1
BITMAP
800600
FFFC00
800400
800400
800400
800400
800400
800400
FFFC00
800400
800000
800000
800100
800100
800100
800100
800300
7FFF80
ENDCHAR
STARTCHAR 2E93
ENCODING 11923
SWIDTH 1000 0
DWIDTH 24 0
BBX 19 19 3 1
BITMAP
00E000
00C000
018000
018000
030400
420700
240C00
181800
0C1800
063000
026000
00C000
008400
010200
020180
0401C0
080FE0
FFF060
E00060
ENDCHAR
STARTCHAR 2E94
ENCODING 11924
SWIDTH 1000 0
DWIDTH 24 0
BBX 17 19 5 0
BITMAP
180000
1C0000
100000
100000
101800
3FFC00
301000
201000
201000
201000
603000
603000
7FF000
403000
C02000
402000
002000
006000
006180
ENDCHAR
STARTCHAR 2E96
ENCODING 11926
SWIDTH 1000 0
DWIDTH 24 0
BBX 9 20 7 -1
BITMAP
0C00
0800
0800
0800
4A00
4900
4980
4980
4980
C800
8800
0800
0800
0800
0800
0800
0800
0800
0800
0800
ENDCHAR
STARTCHAR 2E97
ENCODING 11927
SWIDTH 1000 0
DWIDTH 24 0
BBX 21 20 1 -2
BITMAP
018000
010000
010000
010000
010000
010000
112100
111080
211840
210860
210C30
210430
610618
C10618
C10618
010000
010000
010000
1F0000
030000
ENDCHAR
STARTCHAR 2E98
ENCODING 11928
SWIDTH 1000 0
DWIDTH 24 0
BBX 14 21 6 -1
BITMAP
0300
0200
0200
0210
0218
FFF8
0200
0200
0200
0200
021C
03E0
7E00
E200
8200
0200
0200
0200
0200
0200
3E00
ENDCHAR
STARTCHAR 2E99
ENCODING 11929
SWIDTH 1000 0
DWIDTH 24 0
BBX 20 21 2 -1
BITMAP
030000
020000
060000
060000
0C0060
0BFF80
1C0600
140600
320400
220C00
410800
819800
009000
007000
007000
00D800
018E00
070780
0C01F0
700060
800000
ENDCHAR
STARTCHAR 2E9B
ENCODING 11931
SWIDTH 1000 0
DWIDTH 24 0
BBX 21 20 1 -2
BITMAP
000060
1FFF80
002000
0C2000
082000
182000
182000
102030
1FFFF8
306000
204C00
004800
00C800
008800
018810
030810
060810
0C0818
100FF8
E00000
ENDCHAR
STARTCHAR 2E9E
ENCODING 11934
SWIDTH 1000 0
DWIDTH 24 0
BBX 20 22 2 -3
BITMAP
001000
001800
001000
001030
001FC0
01D000
011000
0310C0
03FFE0
0600C0
0C0180
1C0300
330300
60C600
806C00
003800
003000
00E000
018000
070000
1C0000
600000
ENDCHAR
STARTCHAR 2E9F
ENCODING 11935
SWIDTH 1000 0
DWIDTH 24 0
BBX 20 19 2 -1
BITMAP
100180
1FFF80
190100
188100
104100
106100
102110
100130
FFFFC0
320100
318100
30C100
206100
206100
200130
7FFFC0
600300
006300
001E00
ENDCHAR
STARTCHAR 2EA0
ENCODING 11936
SWIDTH 1000 0
DWIDTH 24 0
BBX 21 20 2 0
BITMAP
100040
1FFFE0
100040
100040
100040
100040
1FFFC0
103000
101000
101030
101FF0
1FF800
100800
100C00
100410
100610
107310
1F81D0
FC00F0
C00038
ENDCHAR
STARTCHAR 2EA1
ENCODING 11937
SWIDTH 1000 0
DWIDTH 24 0
BBX 9 21 8 -1
BITMAP
3000
0C00
0C00
0000
0080
C100
7100
3200
0200
0400
0400
0C00
1800
1800
F000
3000
1000
1000
1000
3000
3000
ENDCHAR
STARTCHAR 2EA3
ENCODING 11939
SWIDTH 1000 0
DWIDTH 24 0
BBX 20 6 2 7
BITMAP
120100
1110C0
210860
218C30
E18C30
C18410
ENDCHAR
STARTCHAR 2EA4
ENCODING 11940
SWIDTH 1000 0
DWIDTH 24 0
BBX 18 11 3 5
BITMAP
000700
007F80
1FC000
E00180
0101C0
418180
20C300
30C200
184600
180400
000800
ENDCHAR
STARTCHAR 2EA6
ENCODING 11942
SWIDTH 1000 0
DWIDTH 24 0
BBX 10 21 5 -1
BITMAP
00C0
0080
0080
4080
2080
3080
1880
1880
0880
0080
0080
0380
0C80
7080
E080
8080
0080
0080
0080
0080
0080
ENDCHAR
STARTCHAR 2EA8
ENCODING 11944
SWIDTH 1000 0
DWIDTH 24 0
BBX 11 20 5 -1
BITMAP
0840
04E0
04C0
0380
0300
0D00
1980
2080
4080
0180
0340
0640
0C40
1840
2040
C040
0040
00C0
1080
0F80
ENDCHAR
STARTCHAR 2EAA
ENCODING 11946
SWIDTH 1000 0
DWIDTH 24 0
BBX 13 20 5 0
BITMAP
0010
FFF8
0030
0060
0080
0180
0100
3100
2110
21F8
2100
2100
2100
2100
2100
2118
21E0
3F00
F000
8000
ENDCHAR
STARTCHAR 2EAB
ENCODING 11947
SWIDTH 1000 0
DWIDTH 24 0
BBX 19 12 3 4
BITMAP
800040
FFFFE0
841040
841040
841040
841040
841040
841040
841040
FFFFC0
800040
800000
ENDCHAR
STARTCHAR 2EAD
ENCODING 11949
SWIDTH 1000 0
DWIDTH 24 0
BBX 14 20 4 -1
BITMAP
0180
0100
0100
0118
1EF0
0030
0060
00C0
0080
0100
03C0
0D30
191C
210C
C100
0100
0100
0100
0100
0100
ENDCHAR
STARTCHAR 2EB2
ENCODING 11954
SWIDTH 1000 0
DWIDTH 24 0
BBX 19 12 3 4
BITMAP
800040
FFFFE0
841040
841040
841040
841040
841040
841040
841040
FFFFC0
800040
800000
ENDCHAR
STARTCHAR 2EB9
ENCODING 11961
SWIDTH 1000 0
DWIDTH 24 0
BBX 21 17 1 2
BITMAP
006000
004040
0040E0
004780
0FFB00
004600
004C00
005830
7FFFF8
003000
006000
00C000
030000
060000
080000
300000
C00000
ENDCHAR
STARTCHAR 2EBD
ENCODING 11965
SWIDTH 1000 0
DWIDTH 24 0
BBX 17 21 4 -1
BITMAP
030000
0F8000
380100
E07F80
800100
800100
800100
800100
800100
860100
FE7F00
800100
800100
800100
800100
800100
800100
860100
FE7F00
800100
800100
ENDCHAR
STARTCHAR 2EBE
ENCODING 11966
SWIDTH 1000 0
DWIDTH 24 0
BBX 19 6 3 8
BITMAP
060C00
040800
040860
FFFF80
040800
040800
ENDCHAR
STARTCHAR 2EBF
ENCODING 11967
SWIDTH 1000 0
DWIDTH 24 0
BBX 20 6 2 8
BITMAP
0C0300
080200
098230
FE1FC0
080200
080200
ENDCHAR
STARTCHAR 2EC0
ENCODING 11968
SWIDTH 1000 0
DWIDTH 24 0
BBX 19 8 3 7
BITMAP
060800
040C00
040800
040860
FC0F80
040800
040800
040800
ENDCHAR
STARTCHAR 2EC1
ENCODING 11969
SWIDTH 1000 0
DWIDTH 24 0
BBX 21 21 1 -1
BITMAP
003800
002060
003F80
002010
1FFFF8
102038
102120
107F80
17A020
102020
103FE0
100000
100000
10C600
10C400
20C410
208410
218410
410418
4607F8
980000
ENDCHAR
STARTCHAR 2EC2
ENCODING 11970
SWIDTH 1000 0
DWIDTH 24 0
BBX 13 20 5 -1
BITMAP
0300
0200
0200
0220
3DF0
0040
00C0
0190
0338
0620
0FC0
1A60
2238
C218
0200
0200
0200
0200
0200
0200
ENDCHAR
STARTCHAR 2EC3
ENCODING 11971
SWIDTH 1000 0
DWIDTH 24 0
BBX 21 11 2 5
BITMAP
000030
FFFFF8
010800
010800
010860
3FFFC0
210840
210840
210840
3FFFC0
200040
ENDCHAR
STARTCHAR 2EC4
ENCODING 11972
SWIDTH 1000 0
DWIDTH 24 0
BBX 22 20 1 -1
BITMAP
000018
FFFFFC
008800
008800
008800
008810
3FFFF8
208810
208810
208890
210890
210890
2208D0
220FD0
2C0010
200010
200010
200010
3FFFF0
200010
ENDCHAR
STARTCHAR 2ECA
ENCODING 11978
SWIDTH 1000 0
DWIDTH 24 0
BBX 12 21 5 -1
BITMAP
0030
3FE0
2020
2020
2020
2020
2020
3FE0
0200
0200
3220
23F0
2200
2200
2200
2200
2210
23E0
7E00
F000
4000
ENDCHAR
STARTCHAR 2ECC
ENCODING 11980
SWIDTH 1000 0
DWIDTH 24 0
BBX 21 21 1 -1
BITMAP
600000
300000
180000
080000
000000
000000
000000
000000
080000
FC0000
080000
080000
080000
080000
080000
080000
0C0000
360000
E18008
C07FF8
400000
ENDCHAR
STARTCHAR 2ECD
ENCODING 11981
SWIDTH 1000 0
DWIDTH 24 0
BBX 21 21 1 -1
BITMAP
300000
180000
0C0000
040000
400000
300000
180000
180000
000000
000000
0C0000
780000
080000
080000
080000
080000
0C0000
320000
E18008
C07FF8
400000
ENDCHAR
STARTCHAR 2ECF
ENCODING 11983
SWIDTH 1000 0
DWIDTH 24 0
BBX 9 21 9 -1
BITMAP
0100
FF80
8200
8600
8400
8400
8800
8400
8200
8200
8100
8100
8100
8100
BF00
8600
8000
8000
8000
8000
8000
ENDCHAR
STARTCHAR 2ED1
ENCODING 11985
SWIDTH 1000 0
DWIDTH 24 0
BBX 21 21 1 -1
BITMAP
0400E0
07FF00
040000
040180
07FE00
040000
040180
07FFC0
040000
040018
FFFFF8
042000
0420E0
041180
040B00
040C00
040600
05F380
7F00F0
700038
400000
ENDCHAR
STARTCHAR 2ED2
ENCODING 11986
SWIDTH 1000 0
DWIDTH 24 0
BBX 21 20 1 0
BITMAP
0400C0
07FFE0
040000
040100
07FF80
040000
040100
040180
07FE00
040000
040030
FFFFF8
018000
018400
010200
020180
0200C0
047FE0
3FE030
200030
ENDCHAR
STARTCHAR 2ED6
ENCODING 11990
SWIDTH 1000 0
DWIDTH 24 0
BBX 9 21 9 -1
BITMAP
0100
FF80
8200
8600
8400
8400
8800
8400
8200
8200
8100
8100
8100
8100
BF00
8600
8000
8000
8000
8000
8000
ENDCHAR
STARTCHAR 2ED8
ENCODING 11992
SWIDTH 1000 0
DWIDTH 24 0
BBX 20 22 2 -2
BITMAP
004000
007000
004060
3FFF80
004080
3FFFC0
004000
004030
FFFFF0
000000
000180
0FFF00
080100
0FFF00
080100
080100
0FFF00
080100
080100
082100
081F00
080000
ENDCHAR
STARTCHAR 2EDE
ENCODING 11998
SWIDTH 1000 0
DWIDTH 24 0
BBX 11 21 6 -1
BITMAP
0600
0E00
0900
1880
11C0
3F60
6020
E0C0
3F80
2080
3F80
2080
2080
3F80
2080
20C0
3F00
2080
20C0
3F00
2000
ENDCHAR
STARTCHAR 2EDF
ENCODING 11999
SWIDTH 1000 0
DWIDTH 24 0
BBX 13 21 5 0
BITMAP
0700
0580
0C60
0BB8
1B18
3300
7FF0
D020
1020
1020
1FE0
1020
1020
1FE0
1020
1080
1060
1020
1FD0
FC10
4000
ENDCHAR
STARTCHAR 2EE4
ENCODING 12004
SWIDTH 1000 0
DWIDTH 24 0
BBX 22 21 1 -1
BITMAP
007000
006000
104030
1FBFE0
102020
102020
1FFFE0
102020
102020
102020
1FFFE0
118820
118880
0108C0
010980
030928
020BD8
060A18
0C0808
300FFC
C00000
ENDCHAR
STARTCHAR 2EE8
ENCODING 12008
SWIDTH 1000 0
DWIDTH 24 0
BBX 21 22 1 -1
BITMAP
003000
002000
002060
3FFFF0
002000
0020C0
1FFFC0
002000
002030
FFFFF8
00C000
008100
01FF80
030300
068600
084C00
303800
403800
00CE00
0383E0
1C0078
E00000
ENDCHAR
STARTCHAR 2EE9
ENCODING 12009
SWIDTH 1000 0
DWIDTH 24 0
BBX 21 22 1 -1
BITMAP
018300
010200
010220
7FFFF0
010200
010200
010218
FFFFF8
002000
002040
1FFFE0
102040
102040
1FFFC0
102040
102040
1FFFC0
100040
038780
0E00F0
380038
C00000
ENDCHAR
STARTCHAR 2EEB
ENCODING 12011
SWIDTH 1000 0
DWIDTH 24 0
BBX 21 21 1 -1
BITMAP
003800
003000
003030
7FFFF8
020300
010600
00CC00
007800
007C00
0383E0
1C00F8
E40080
07FF80
040080
040080
040080
07FF80
0C0080
080080
100080
600080
ENDCHAR
STARTCHAR 2EED
ENCODING 12013
SWIDTH 1000 0
DWIDTH 24 0
BBX 22 21 1 -2
BITMAP
001800
061000
041020
041FC0
041008
041008
FFFFFC
000000
303118
232310
212610
202090
2FFFD0
206010
20F810
21A710
232390
242190
282010
200010
3FFFF0
ENDCHAR
STARTCHAR 2EEF
ENCODING 12015
SWIDTH 1000 0
DWIDTH 24 0
BBX 19 21 3 -1
BITMAP
00C000
008000
008080
FFFFC0
000800
0C0E00
061800
061060
F9EF80
000100
3FFF80
208100
208100
3FFF00
208100
208100
3FFF40
208140
208040
008060
00FFE0
ENDCHAR
STARTCHAR 2EF2
ENCODING 12018
SWIDTH 1000 0
DWIDTH 24 0
BBX 21 21 2 0
BITMAP
070000
061000
0FF800
083000
182080
37FFC0
506080
9FFF80
106080
1FFF80
106080
206040
3FFFE0
206040
3FFFC0
206040
206040
3FFFD0
006010
006038
003FF8
ENDCHAR
STARTCHAR 2F00
ENCODING 12032
SWIDTH 1000 0
DWIDTH 24 0
BBX 20 3 2 9
BITMAP
000020
000070
FFFFF0
ENDCHAR
STARTCHAR 2F01
ENCODING 12033
SWIDTH 1000 0
DWIDTH 24 0
BBX 2 20 11 -2
BITMAP
C0
80
80
80
80
80
80
80
80
80
80
80
80
80
80
80
80
80
80
80
ENDCHAR
STARTCHAR 2F02
ENCODING 12034
SWIDTH 1000 0
DWIDTH 24 0
BBX 8 7 8 7
BITMAP
C0
30
18
0C
06
03
03
ENDCHAR
STARTCHAR 2F03
ENCODING 12035
SWIDTH 1000 0
DWIDTH 24 0
BBX 6 20 9 -2
BITMAP
08
0C
08
08
08
08
08
08
08
08
08
08
10
10
10
10
20
20
40
80
ENDCHAR
STARTCHAR 2F04
ENCODING 12036
SWIDTH 1000 0
DWIDTH 24 0
BBX 18 18 3 1
BITMAP
000C00
7FFE00
001C00
003000
006000
00C000
018000
030000
060000
0C0000
180000
300000
700000
600080
C00080
C00080
E001C0
3FFFC0
ENDCHAR
STARTCHAR 2F05
ENCODING 12037
SWIDTH 1000 0
DWIDTH 24 0
BBX 6 20 8 -2
BITMAP
0C
08
08
08
08
08
08
08
08
08
08
08
08
08
08
08
08
08
F8
18
ENDCHAR
STARTCHAR 2F06
ENCODING 12038
SWIDTH 1000 0
DWIDTH 24 0
BBX 20 14 2 3
BITMAP
000180
3FFFC0
000000
000000
000000
000000
000000
000000
000000
000000
000000
000020
000070
FFFFF0
ENDCHAR
STARTCHAR 2F07
ENCODING 12039
SWIDTH 1000 0
DWIDTH 24 0
BBX 20 7 2 10
BITMAP
004000
006000
004000
004000
004000
004060
FFFFF0
ENDCHAR
STARTCHAR 2F08
ENCODING 12040
SWIDTH 1000 0
DWIDTH 24 0
BBX 21 20 2 -2
BITMAP
007000
006000
006000
006000
006000
006000
006000
006000
00E000
00D000
009000
018800
018C00
030400
020200
060300
0C01C0
1800E0
600038
800010
ENDCHAR
STARTCHAR 2F09
ENCODING 12041
SWIDTH 1000 0
DWIDTH 24 0
BBX 21 18 1 -1
BITMAP
030600
020400
020400
020400
020400
020400
020400
020400
020400
020400
060400
040410
040410
080410
080410
100410
2007F8
C00000
ENDCHAR
STARTCHAR 2F0A
ENCODING 12042
SWIDTH 1000 0
DWIDTH 24 0
BBX 20 19 2 -1
BITMAP
003000
07E000
002000
002000
002000
002000
007000
007000
005000
00C800
008800
018400
030600
020300
060180
0C00C0
100060
600030
800010
ENDCHAR
STARTCHAR 2F0B
ENCODING 12043
SWIDTH 1000 0
DWIDTH 24 0
BBX 22 19 1 0
BITMAP
000600
007C00
000400
000400
038400
030200
030200
020200
020200
060100
060100
040080
0C0080
080040
180060
300030
200018
40000C
800000
ENDCHAR
STARTCHAR 2F0C
ENCODING 12044
SWIDTH 1000 0
DWIDTH 24 0
BBX 19 20 3 -1
BITMAP
000040
FFFFE0
800040
800040
800040
800040
800040
800040
800040
800040
800040
800040
800040
800040
800040
800040
800040
800040
800FC0
8001C0
ENDCHAR
STARTCHAR 2F0D
ENCODING 12045
SWIDTH 1000 0
DWIDTH 24 0
BBX 22 6 1 9
BITMAP
000010
3FFFF8
20001C
600030
E00020
C00040
ENDCHAR
STARTCHAR 2F0E
ENCODING 12046
SWIDTH 1000 0
DWIDTH 24 0
BBX 8 19 8 0
BITMAP
C0
60
31
12
02
04
04
08
08
10
10
20
60
20
20
30
30
30
30
ENDCHAR
STARTCHAR 2F0F
ENCODING 12047
SWIDTH 1000 0
DWIDTH 24 0
BBX 21 19 1 -1
BITMAP
000300
07FE00
040200
040200
040200
040200
040200
040200
040200
040200
040200
040200
080210
080210
180210
100210
200218
6003F8
800000
ENDCHAR
STARTCHAR 2F10
ENCODING 12048
SWIDTH 1000 0
DWIDTH 24 0
BBX 19 19 3 -1
BITMAP
C00060
800040
800040
800040
800040
800040
800040
800040
800040
800040
800040
800040
800040
800040
800040
800040
FFFFC0
800040
800040
ENDCHAR
STARTCHAR 2F11
ENCODING 12049
SWIDTH 1000 0
DWIDTH 24 0
BBX 18 19 3 -1
BITMAP
000080
FFFFC0
030080
030080
030080
030080
030080
030080
030080
020080
060080
060180
040180
0C0180
080180
180180
300300
60FF00
800E00
ENDCHAR
STARTCHAR 2F12
ENCODING 12050
SWIDTH 1000 0
DWIDTH 24 0
BBX 19 21 2 -2
BITMAP
008000
00C000
008000
008000
008000
008040
00FFE0
7F80C0
0080C0
0080C0
0180C0
0100C0
0100C0
0100C0
0200C0
020080
040080
0C0180
180180
203F00
C00600
ENDCHAR
STARTCHAR 2F13
ENCODING 12051
SWIDTH 1000 0
DWIDTH 24 0
BBX 19 21 2 -1
BITMAP
060000
040000
0C0000
0C0040
0FFFE0
180060
100060
300040
600040
400040
800040
000040
000040
0000C0
0000C0
0000C0
000080
000180
000180
007F00
000600
ENDCHAR
STARTCHAR 2F14
ENCODING 12052
SWIDTH 1000 0
DWIDTH 24 0
BBX 15 19 6 -1
BITMAP
C000
8000
8000
8010
8078
80E0
8380
8600
9800
E000
8000
8000
8000
8004
8004
8004
8004
800E
7FFE
ENDCHAR
STARTCHAR 2F15
ENCODING 12053
SWIDTH 1000 0
DWIDTH 24 0
BBX 18 20 3 -1
BITMAP
000380
FFFC00
800000
800000
800000
800000
800000
800000
800000
800000
800000
800000
800000
800000
800000
800000
800180
FFFFC0
800000
800000
ENDCHAR
STARTCHAR 2F16
ENCODING 12054
SWIDTH 1000 0
DWIDTH 24 0
BBX 18 18 3 0
BITMAP
000080
0000C0
FFFF00
200000
200000
200000
200000
200000
200000
200000
200000
200000
200000
200000
200000
200000
2001C0
1FFFC0
ENDCHAR
STARTCHAR 2F17
ENCODING 12055
SWIDTH 1000 0
DWIDTH 24 0
BBX 20 20 2 -2
BITMAP
006000
004000
004000
004000
004000
004000
004000
004020
004070
FFFF80
004000
004000
004000
004000
004000
004000
004000
004000
004000
004000
ENDCHAR
STARTCHAR 2F18
ENCODING 12056
SWIDTH 1000 0
DWIDTH 24 0
BBX 10 20 9 -1
BITMAP
C000
8000
8000
8000
8000
8000
8000
C000
B000
8C00
8700
8380
81C0
80C0
8000
8000
8000
8000
8000
8000
ENDCHAR
STARTCHAR 2F19
ENCODING 12057
SWIDTH 1000 0
DWIDTH 24 0
BBX 11 20 7 -2
BITMAP
8040
FFE0
8040
8040
8040
8040
8040
8040
8040
8040
8040
8040
8040
8040
8040
8FC0
8180
8000
8000
8000
ENDCHAR
STARTCHAR 2F1A
ENCODING 12058
SWIDTH 1000 0
DWIDTH 24 0
BBX 20 21 1 -3
BITMAP
000020
000030
1FFFF0
100000
100000
100000
100000
100000
100000
100000
100000
100000
100000
100000
200000
200000
200000
200000
400000
400000
800000
ENDCHAR
STARTCHAR 2F1B
ENCODING 12059
SWIDTH 1000 0
DWIDTH 24 0
BBX 19 19 3 0
BITMAP
006000
007000
00C000
00C000
008000
018000
018000
010000
030000
020000
020C00
060600
040300
040180
080180
081FC0
FFE0E0
C00060
000060
ENDCHAR
STARTCHAR 2F1C
ENCODING 12060
SWIDTH 1000 0
DWIDTH 24 0
BBX 21 19 1 -1
BITMAP
0000C0
1FFF80
040180
020180
020100
020300
010200
018600
008400
004C00
007800
003000
003800
006C00
01C700
0301C0
0600F0
180038
E00008
ENDCHAR
STARTCHAR 2F1D
ENCODING 12061
SWIDTH 1000 0
DWIDTH 24 0
BBX 17 17 4 0
BITMAP
000100
FFFF80
800100
800100
800100
800100
800100
800100
800100
800100
800100
800100
800100
800100
800100
FFFF00
800100
ENDCHAR
STARTCHAR 2F1E
ENCODING 12062
SWIDTH 1000 0
DWIDTH 24 0
BBX 19 21 3 -1
BITMAP
800040
FFFFE0
800040
800040
800040
800040
800040
800040
800040
800040
800040
800040
800040
800040
800040
800040
800040
800040
FFFFC0
800040
800040
ENDCHAR
STARTCHAR 2F1F
ENCODING 12063
SWIDTH 1000 0
DWIDTH 24 0
BBX 19 19 2 1
BITMAP
006000
004000
004000
004000
004000
004080
0040C0
7FFFC0
004000
004000
004000
004000
004000
004000
004000
004000
004040
004060
FFFFE0
ENDCHAR
STARTCHAR 2F20
ENCODING 12064
SWIDTH 1000 0
DWIDTH 24 0
BBX 19 19 2 1
BITMAP
006000
004000
004000
004000
004000
004040
004060
FFFFE0
004000
004000
004000
004000
004000
004000
004000
004000
004000
0040C0
7FFFC0
ENDCHAR
STARTCHAR 2F21
ENCODING 12065
SWIDTH 1000 0
DWIDTH 24 0
BBX 21 21 1 -1
BITMAP
00E000
00C000
008000
018080
01FFC0
010180
030100
070300
048300
0C8600
084400
106C00
203800
003000
007800
00EC00
018700
0301C0
0C00F0
300038
C00000
ENDCHAR
STARTCHAR 2F22
ENCODING 12066
SWIDTH 1000 0
DWIDTH 24 0
BBX 21 21 1 -1
BITMAP
006000
00C000
10C000
088180
09FFC0
050180
070300
020300
060600
050600
098C00
108800
205800
407000
007000
00CC00
018700
0303C0
0C00F0
300038
C00000
ENDCHAR
STARTCHAR 2F23
ENCODING 12067
SWIDTH 1000 0
DWIDTH 24 0
BBX 19 21 2 -2
BITMAP
006000
00C000
00C000
008040
01FFE0
0100C0
0300C0
060180
070180
0CC300
186300
303600
201400
C00C00
001800
003000
006000
018000
030000
0C0000
700000
ENDCHAR
STARTCHAR 2F24
ENCODING 12068
SWIDTH 1000 0
DWIDTH 24 0
BBX 20 20 2 -2
BITMAP
004000
006000
004000
004000
004000
004000
004060
7FFF80
006000
00E000
009000
009000
019800
010C00
030600
020300
040380
1800E0
300070
C00020
ENDCHAR
STARTCHAR 2F25
ENCODING 12069
SWIDTH 1000 0
DWIDTH 24 0
BBX 22 22 1 -2
BITMAP
004000
006000
00C000
00C000
008000
018018
FFFFFC
010180
030100
020300
060300
040200
0C0600
0E0600
19CC00
103800
001E00
003380
0061C0
018070
0E0030
700000
ENDCHAR
STARTCHAR 2F26
ENCODING 12070
SWIDTH 1000 0
DWIDTH 24 0
BBX 21 19 1 -1
BITMAP
000180
0FFFC0
000600
000C00
001000
003000
002000
002000
002030
FFFFF8
002000
002000
002000
002000
002000
002000
002000
042000
03E000
ENDCHAR
STARTCHAR 2F27
ENCODING 12071
SWIDTH 1000 0
DWIDTH 24 0
BBX 21 9 1 9
BITMAP
003000
002000
002000
202010
3FFFF8
200038
600030
E00060
C00000
ENDCHAR
STARTCHAR 2F28
ENCODING 12072
SWIDTH 1000 0
DWIDTH 24 0
BBX 18 20 3 -2
BITMAP
000C00
000800
000800
000800
000800
0008C0
FFFF00
000800
100800
0C0800
060800
060800
030800
030800
000800
000800
000800
000800
01F800
001800
ENDCHAR
STARTCHAR 2F29
ENCODING 12073
SWIDTH 1000 0
DWIDTH 24 0
BBX 21 20 1 -1
BITMAP
003000
002000
002000
002000
002000
0C2200
0E2100
0C2080
0820C0
182040
182060
102030
302030
202018
402018
402018
802000
002000
07E000
00E000
ENDCHAR
STARTCHAR 2F2A
ENCODING 12074
SWIDTH 1000 0
DWIDTH 24 0
BBX 21 22 1 -2
BITMAP
006000
007000
004000
004000
004010
004030
7FFFF8
004C00
004800
004800
004800
00C800
008800
008800
018800
010810
030810
020810
040810
180818
200FF8
C00000
ENDCHAR
STARTCHAR 2F2B
ENCODING 12075
SWIDTH 1000 0
DWIDTH 24 0
BBX 20 20 1 -1
BITMAP
100020
1FFFF0
100020
100020
100020
100020
100020
1FFFE0
100000
100000
100000
100000
100000
200000
200000
200000
200000
400000
400000
800000
ENDCHAR
STARTCHAR 2F2C
ENCODING 12076
SWIDTH 1000 0
DWIDTH 24 0
BBX 17 21 4 -2
BITMAP
018000
010000
010000
810180
C10100
810100
810100
810100
810100
810100
810100
810100
FFFF00
830100
020000
020000
060000
0C0000
180000
200000
400000
ENDCHAR
STARTCHAR 2F2D
ENCODING 12077
SWIDTH 1000 0
DWIDTH 24 0
BBX 19 20 3 -1
BITMAP
00C000
008000
008000
008000
C08060
808040
808040
808040
808040
808040
808040
808040
808040
808040
808040
808040
808040
FFFFC0
800040
800040
ENDCHAR
STARTCHAR 2F2E
ENCODING 12078
SWIDTH 1000 0
DWIDTH 24 0
BBX 19 18 2 0
BITMAP
002080
0C30E0
186080
184180
10C100
208200
218200
410400
820400
410600
208200
30C100
104180
1860C0
0820C0
0C3060
0C3060
0C1060
ENDCHAR
STARTCHAR 2F2F
ENCODING 12079
SWIDTH 1000 0
DWIDTH 24 0
BBX 20 17 2 1
BITMAP
0000C0
7FFFC0
004000
004000
004000
004000
004000
004000
004000
004000
004000
004000
004000
004000
004000
004060
FFFFF0
ENDCHAR
STARTCHAR 2F30
ENCODING 12080
SWIDTH 1000 0
DWIDTH 24 0
BBX 17 18 5 1
BITMAP
000600
FFFC00
000400
000400
000400
000400
000400
800400
FFFC00
800400
800000
800000
800100
800100
800100
800100
800380
FFFF80
ENDCHAR
STARTCHAR 2F31
ENCODING 12081
SWIDTH 1000 0
DWIDTH 24 0
BBX 17 21 4 -1
BITMAP
018000
010000
010000
010000
010180
FFFF00
810100
810100
810100
810100
810100
810100
810100
810100
810100
813F00
810700
010000
010000
010000
010000
ENDCHAR
STARTCHAR 2F32
ENCODING 12082
SWIDTH 1000 0
DWIDTH 24 0
BBX 18 19 3 -1
BITMAP
000300
7FFC00
008000
008000
008000
008000
008000
008080
0080C0
FFFF00
008000
008000
008000
008000
008000
008000
008000
008000
008000
ENDCHAR
STARTCHAR 2F33
ENCODING 12083
SWIDTH 1000 0
DWIDTH 24 0
BBX 19 19 3 1
BITMAP
00E000
00C000
018000
018000
030400
420700
240C00
181800
0C1800
063000
026000
00C000
008400
010200
020180
0401C0
080FE0
FFF060
E00060
ENDCHAR
STARTCHAR 2F34
ENCODING 12084
SWIDTH 1000 0
DWIDTH 24 0
BBX 19 21 2 -1
BITMAP
006000
004000
004040
204060
3FFFE0
200000
200000
200000
200000
200000
200000
200000
200000
200000
200000
400000
400000
400000
400000
800000
800000
ENDCHAR
STARTCHAR 2F35
ENCODING 12085
SWIDTH 1000 0
DWIDTH 24 0
BBX 22 21 1 -1
BITMAP
040000
7E0000
060000
0C0000
0C0000
180000
180000
310000
2F8000
030000
020000
220000
260000
160000
0C0000
0C0000
1E0000
130000
30E004
401FF8
800000
ENDCHAR
STARTCHAR 2F36
ENCODING 12086
SWIDTH 1000 0
DWIDTH 24 0
BBX 19 19 3 0
BITMAP
060600
040400
040400
040400
040400
040400
040400
040460
FFFF80
040400
040400
040400
080400
080400
180400
100400
200400
400400
800000
ENDCHAR
STARTCHAR 2F37
ENCODING 12087
SWIDTH 1000 0
DWIDTH 24 0
BBX 20 20 2 0
BITMAP
01C000
019000
018E00
018300
008300
008060
0080F0
01FF00
FEC000
00C000
004000
006000
002000
003020
001020
001820
000C20
000760
0003E0
0000E0
ENDCHAR
STARTCHAR 2F38
ENCODING 12088
SWIDTH 1000 0
DWIDTH 24 0
BBX 17 20 4 -1
BITMAP
000200
FFFF00
000200
000200
000200
200200
3FFE00
200200
200000
600000
400100
7FFF80
C00100
800100
000100
000100
000300
000300
008200
007E00
ENDCHAR
STARTCHAR 2F39
ENCODING 12089
SWIDTH 1000 0
DWIDTH 24 0
BBX 20 18 2 1
BITMAP
000200
3FFF00
000200
000200
000200
000200
000200
000200
000200
3FFE00
000200
000200
000200
000200
000200
000200
000260
FFFFF0
ENDCHAR
STARTCHAR 2F3A
ENCODING 12090
SWIDTH 1000 0
DWIDTH 24 0
BBX 15 20 5 -1
BITMAP
0060
00F0
0180
0700
0C00
3010
C038
0060
00C0
0380
0600
1804
600E
801C
0038
0060
01C0
0700
1C00
E000
ENDCHAR
STARTCHAR 2F3B
ENCODING 12091
SWIDTH 1000 0
DWIDTH 24 0
BBX 14 21 4 -1
BITMAP
0060
00C0
0180
0310
0C1C
1830
6060
00C0
0180
0300
0780
1900
3100
C100
0100
0100
0100
0100
0100
0100
0100
ENDCHAR
STARTCHAR 2F3C
ENCODING 12092
SWIDTH 1000 0
DWIDTH 24 0
BBX 21 20 1 0
BITMAP
010000
00C000
002000
001000
001800
018800
010000
010100
110080
110040
110060
110030
310030
310118
610118
E10118
C10100
010100
010380
00FF00
ENDCHAR
STARTCHAR 2F3D
ENCODING 12093
SWIDTH 1000 0
DWIDTH 24 0
BBX 20 20 2 0
BITMAP
00C000
008C00
008600
008300
008320
008070
01FF80
FEC000
00C1C0
004100
004300
006600
002C00
003800
003010
00F820
018C20
070720
1801E0
600070
ENDCHAR
STARTCHAR 2F3E
ENCODING 12094
SWIDTH 1000 0
DWIDTH 24 0
BBX 19 19 2 -1
BITMAP
000060
7FFF80
000000
000000
0000C0
1FFF80
100080
100080
100080
100080
1FFF80
100080
100080
300000
200000
200000
400000
400000
800000
ENDCHAR
STARTCHAR 2F3F
ENCODING 12095
SWIDTH 1000 0
DWIDTH 24 0
BBX 20 20 2 -1
BITMAP
000700
003F80
0FC000
704000
004000
004000
0040C0
FFFFC0
004000
004000
004020
004070
FFFF80
004000
004000
004000
004000
004000
07C000
00C000
ENDCHAR
STARTCHAR 2F40
ENCODING 12096
SWIDTH 1000 0
DWIDTH 24 0
BBX 20 20 2 -1
BITMAP
006000
004000
004040
004060
7FFF80
004000
004000
004000
004300
3FBF80
040600
020C00
030800
019000
00E000
006000
019800
060F00
1803F0
E00060
ENDCHAR
STARTCHAR 2F41
ENCODING 12097
SWIDTH 1000 0
DWIDTH 24 0
BBX 20 21 2 -1
BITMAP
006000
004000
004000
0040C0
007F00
004000
004000
004100
3FFF80
040300
040200
020600
030C00
011800
00B000
006000
00F000
019C00
0607C0
3800F0
C00000
ENDCHAR
STARTCHAR 2F42
ENCODING 12098
SWIDTH 1000 0
DWIDTH 24 0
BBX 21 22 1 -2
BITMAP
003000
002000
002000
002000
002030
7FFFF8
040300
020300
020200
010600
010400
008C00
00C800
005800
003000
003000
005C00
018600
030380
0C00E0
380038
C00000
ENDCHAR
STARTCHAR 2F43
ENCODING 12099
SWIDTH 1000 0
DWIDTH 24 0
BBX 18 21 3 -1
BITMAP
000C00
000800
040800
030800
018800
018800
000800
200800
180800
0C0800
060800
0608C0
000BC0
007C00
1F8800
E00800
000800
000800
000800
000800
000800
ENDCHAR
STARTCHAR 2F44
ENCODING 12100
SWIDTH 1000 0
DWIDTH 24 0
BBX 19 20 2 -2
BITMAP
000300
001F80
01F000
1E0000
100000
100000
100000
100000
100060
1FFF80
100800
100800
100800
100800
300800
200800
200800
400800
400800
800800
ENDCHAR
STARTCHAR 2F45
ENCODING 12101
SWIDTH 1000 0
DWIDTH 24 0
BBX 19 22 2 -2
BITMAP
004000
006000
004000
004000
004060
7FBF80
008000
008000
018000
018080
01FFC0
018080
010080
010080
030080
020180
060180
0C0180
080100
304100
603F00
800000
ENDCHAR
STARTCHAR 2F46
ENCODING 12102
SWIDTH 1000 0
DWIDTH 24 0
BBX 20 20 2 -1
BITMAP
000180
1FFE00
006000
006000
006000
006000
006060
7FFFF0
004000
005800
00D000
00D000
009000
019000
031020
021020
041020
181030
201FF0
C00000
ENDCHAR
STARTCHAR 2F47
ENCODING 12103
SWIDTH 1000 0
DWIDTH 24 0
BBX 15 19 5 -1
BITMAP
8006
FFFC
8004
8004
8004
8004
8004
8004
FFFC
8004
8004
8004
8004
8004
8004
8004
FFFC
8004
8004
ENDCHAR
STARTCHAR 2F48
ENCODING 12104
SWIDTH 1000 0
DWIDTH 24 0
BBX 16 19 4 -1
BITMAP
8002
FFFF
8002
8002
8002
8002
8002
8002
8032
FFC2
8002
8002
8002
8002
8002
8002
FFFE
8002
8002
ENDCHAR
STARTCHAR 2F49
ENCODING 12105
SWIDTH 1000 0
DWIDTH 24 0
BBX 18 21 2 -1
BITMAP
000080
0FFFC0
080080
080080
080080
080080
0FFF80
080080
080080
080080
080080
080080
0FFF80
080080
180080
100080
100080
200080
603F80
400380
800000
ENDCHAR
STARTCHAR 2F4A
ENCODING 12106
SWIDTH 1000 0
DWIDTH 24 0
BBX 21 20 1 -1
BITMAP
003000
002000
002000
002000
002020
002030
3FFFC0
007000
00E800
01A400
012600
032300
062180
0420C0
082060
102038
602018
802000
002000
002000
ENDCHAR
STARTCHAR 2F4B
ENCODING 12107
SWIDTH 1000 0
DWIDTH 24 0
BBX 20 21 2 -1
BITMAP
070000
060000
040000
0C0000
0C0020
0BFFF0
104040
1060C0
206080
406100
80E000
00D000
009000
018800
010400
030600
060300
0C01C0
1000F0
600020
800000
ENDCHAR
STARTCHAR 2F4C
ENCODING 12108
SWIDTH 1000 0
DWIDTH 24 0
BBX 17 19 6 1
BITMAP
018000
010000
010000
010000
010000
C10000
810400
810E00
81FE00
810000
810000
810000
810000
810000
810000
810000
810000
810100
810380
ENDCHAR
STARTCHAR 2F4D
ENCODING 12109
SWIDTH 1000 0
DWIDTH 24 0
BBX 19 20 2 -1
BITMAP
000060
7FFF80
018000
010000
030100
03FF80
060300
0C0200
0C0600
130C00
218C00
C0D800
007000
006000
00C000
018000
060000
0C0000
300000
C00000
ENDCHAR
STARTCHAR 2F4E
ENCODING 12110
SWIDTH 1000 0
DWIDTH 24 0
BBX 21 21 2 -2
BITMAP
040400
07FE00
060400
060400
060420
040420
0C0430
0C0430
1807F0
300000
C00100
3FFF80
040300
020600
010600
00DC00
007800
00FC00
038780
0E01F8
F00010
ENDCHAR
STARTCHAR 2F4F
ENCODING 12111
SWIDTH 1000 0
DWIDTH 24 0
BBX 20 19 2 -1
BITMAP
100180
1FFF80
186180
184180
104100
104100
104110
104110
FFFFE0
304100
304100
30C100
20C100
20C100
208130
7F7FC0
600300
006300
001E00
ENDCHAR
STARTCHAR 2F50
ENCODING 12112
SWIDTH 1000 0
DWIDTH 24 0
BBX 21 20 2 -1
BITMAP
100800
180C00
100800
100800
100800
100860
1008F0
10C980
1F0E00
100800
100800
100800
100800
100810
100810
106810
178810
FC0810
E00FF8
800000
ENDCHAR
STARTCHAR 2F51
ENCODING 12113
SWIDTH 1000 0
DWIDTH 24 0
BBX 20 20 2 -1
BITMAP
000600
001F00
00F000
078000
788000
008080
0081C0
00FE00
7F8000
008000
008060
0081F0
01FE00
FE8000
008020
008020
008020
008020
008070
007FE0
ENDCHAR
STARTCHAR 2F52
ENCODING 12114
SWIDTH 1000 0
DWIDTH 24 0
BBX 20 21 2 -1
BITMAP
000300
001F80
13F000
1C3000
103000
103000
103000
103000
103060
1FFF80
101000
101800
101800
100800
100C20
100C20
100620
11E320
7E01A0
E000F0
800060
ENDCHAR
STARTCHAR 2F53
ENCODING 12115
SWIDTH 1000 0
DWIDTH 24 0
BBX 21 22 2 -1
BITMAP
060000
0C0000
0C00C0
0FFFE0
180000
100000
300180
63FE00
400000
800200
3FFF00
000300
000300
000300
000300
000110
000110
000190
000090
0000D0
000078
000038
ENDCHAR
STARTCHAR 2F54
ENCODING 12116
SWIDTH 1000 0
DWIDTH 24 0
BBX 20 20 2 0
BITMAP
003000
002000
002000
002000
003070
01B060
3F30C0
032900
022A00
022400
062600
042300
0C2300
182180
1020E0
202070
402030
802000
03E000
004000
ENDCHAR
STARTCHAR 2F55
ENCODING 12117
SWIDTH 1000 0
DWIDTH 24 0
BBX 19 21 2 -1
BITMAP
006000
004000
004000
004080
0040E0
084180
084180
084300
186200
186400
306800
709000
609000
008800
010C00
030600
020300
0401C0
1800E0
600060
800000
ENDCHAR
STARTCHAR 2F56
ENCODING 12118
SWIDTH 1000 0
DWIDTH 24 0
BBX 20 20 2 -2
BITMAP
000100
001FC0
1FE200
106200
104200
104200
104200
104200
104200
104100
104100
104100
104180
304080
2040C0
2040C0
604060
404030
804030
804000
ENDCHAR
STARTCHAR 2F57
ENCODING 12119
SWIDTH 1000 0
DWIDTH 24 0
BBX 20 19 2 -1
BITMAP
070C00
060300
0C0180
0800C0
100060
300630
640530
820C00
010C00
011800
009000
007000
006000
00F000
019800
030E00
060380
1800F0
E00020
ENDCHAR
STARTCHAR 2F58
ENCODING 12120
SWIDTH 1000 0
DWIDTH 24 0
BBX 20 21 2 -1
BITMAP
000380
080300
060E00
01D800
003000
00FC00
038700
0E0380
700180
040700
020600
010C00
010800
009800
007000
007000
00D800
038F00
0603E0
380070
C00000
ENDCHAR
STARTCHAR 2F59
ENCODING 12121
SWIDTH 1000 0
DWIDTH 24 0
BBX 15 22 4 -2
BITMAP
0006
1804
1004
1004
1004
1004
1004
1FFC
1004
1004
0004
0004
FFFC
0804
0804
0804
1804
1804
1004
2004
6004
8004
ENDCHAR
STARTCHAR 2F5A
ENCODING 12122
SWIDTH 1000 0
DWIDTH 24 0
BBX 19 22 3 -2
BITMAP
003000
183800
102000
102000
102000
102000
1020C0
1FFFE0
100000
100000
100000
100800
1FFC00
100800
100800
300800
200800
200800
600800
400800
800800
000800
ENDCHAR
STARTCHAR 2F5B
ENCODING 12123
SWIDTH 1000 0
DWIDTH 24 0
BBX 20 19 2 -1
BITMAP
0000C0
1FFF00
080800
0C0800
080800
180800
180820
100870
1FFF80
006800
004800
00C800
018800
020800
0C0800
180800
600800
81F800
003800
ENDCHAR
STARTCHAR 2F5C
ENCODING 12124
SWIDTH 1000 0
DWIDTH 24 0
BBX 20 21 1 -2
BITMAP
003000
0C2000
0E2000
0C2000
082000
1820C0
17FF00
102000
202000
202000
402000
002030
FFFFF0
002000
002000
002000
002000
002000
002000
002000
002000
ENDCHAR
STARTCHAR 2F5D
ENCODING 12125
SWIDTH 1000 0
DWIDTH 24 0
BBX 20 22 2 -2
BITMAP
004000
006000
004C00
004600
004300
004100
004000
004060
FFFFF0
004000
006000
00E000
009000
009000
018800
010C00
020600
060300
0C01C0
1000F0
600030
800000
ENDCHAR
STARTCHAR 2F5E
ENCODING 12126
SWIDTH 1000 0
DWIDTH 24 0
BBX 19 21 2 -1
BITMAP
006000
004000
004000
004060
FFFFE0
004000
00E000
008000
010400
220600
1C0C00
0E1800
063000
032000
014400
008300
010180
0200C0
FFFFC0
780060
400060
ENDCHAR
STARTCHAR 2F5F
ENCODING 12127
SWIDTH 1000 0
DWIDTH 24 0
BBX 19 18 3 1
BITMAP
000180
FFFFC0
008000
008000
008000
008000
008000
008000
008300
3FFC00
008000
009000
008C00
008600
008600
008600
008040
0080E0
ENDCHAR
STARTCHAR 2F60
ENCODING 12128
SWIDTH 1000 0
DWIDTH 24 0
BBX 21 20 2 -1
BITMAP
000380
10FF40
1F4200
106200
104200
104200
104100
104100
104100
104100
104100
104180
104080
3048C0
204440
204660
204E60
47F330
4F0318
880310
ENDCHAR
STARTCHAR 2F61
ENCODING 12129
SWIDTH 1000 0
DWIDTH 24 0
BBX 20 19 2 0
BITMAP
000060
3FFF80
020000
020000
060000
060600
07FC00
060400
048400
044400
046400
046400
042410
0C0410
0C0410
0C1410
0FE430
FC0430
4007F0
ENDCHAR
STARTCHAR 2F62
ENCODING 12130
SWIDTH 1000 0
DWIDTH 24 0
BBX 20 20 2 0
BITMAP
0C0180
080100
080100
080110
080130
FFFFC0
080100
080100
080100
080100
080100
0FFF00
080100
080100
080100
080100
080100
080100
0FFF00
080100
ENDCHAR
STARTCHAR 2F63
ENCODING 12131
SWIDTH 1000 0
DWIDTH 24 0
BBX 19 20 2 0
BITMAP
006000
004000
1C4000
184000
104000
1040C0
3FFFC0
204000
204000
404000
404000
804100
004180
1FFE00
004000
004000
004000
004000
004000
004060
ENDCHAR
STARTCHAR 2F64
ENCODING 12132
SWIDTH 1000 0
DWIDTH 24 0
BBX 21 21 1 -1
BITMAP
100010
1FFFF8
101010
101010
101010
101010
1FFFF0
101010
101010
101010
101010
101010
1FFFF0
101010
101010
201010
201010
201010
401210
4001F0
800000
ENDCHAR
STARTCHAR 2F65
ENCODING 12133
SWIDTH 1000 0
DWIDTH 24 0
BBX 18 19 3 -1
BITMAP
800080
FFFFC0
808080
808080
808080
808080
808080
808080
FFFF80
808080
808080
808080
808080
808080
808080
808080
FFFF80
800080
800080
ENDCHAR
STARTCHAR 2F66
ENCODING 12134
SWIDTH 1000 0
DWIDTH 24 0
BBX 20 20 1 -1
BITMAP
000060
3FFFF0
002060
0020C0
002080
002000
002000
0E2000
0C20C0
083F00
082000
0C2000
1C2000
1A2000
132000
31A000
20E000
607FF0
400FF0
800000
ENDCHAR
STARTCHAR 2F67
ENCODING 12135
SWIDTH 1000 0
DWIDTH 24 0
BBX 21 21 1 -2
BITMAP
000C00
000800
000800
000818
0FF7E0
880000
480000
680000
680000
280000
080000
180000
280000
C80000
880000
100000
100000
100000
200000
400000
400000
ENDCHAR
STARTCHAR 2F68
ENCODING 12136
SWIDTH 1000 0
DWIDTH 24 0
BBX 22 13 1 5
BITMAP
002000
0FF080
0071C0
307300
18CA38
0CC460
058640
030380
0601C0
0C0060
18003C
200008
C00000
ENDCHAR
STARTCHAR 2F69
ENCODING 12137
SWIDTH 1000 0
DWIDTH 24 0
BBX 17 22 4 -3
BITMAP
030000
038000
020000
060000
840100
FFFF80
800100
800100
800100
800100
800100
800100
FFFF00
800100
800100
800100
800100
800100
800100
FFFF00
800100
800100
ENDCHAR
STARTCHAR 2F6A
ENCODING 12138
SWIDTH 1000 0
DWIDTH 24 0
BBX 20 22 1 -2
BITMAP
001800
001000
001000
101020
1FFFF0
101030
101060
101040
101000
101080
1FFFC0
120180
110180
108300
104600
202C00
201800
203C00
406700
4181E0
860070
980000
ENDCHAR
STARTCHAR 2F6B
ENCODING 12139
SWIDTH 1000 0
DWIDTH 24 0
BBX 19 17 4 1
BITMAP
000180
FFFF00
842100
842100
842100
842100
842100
842100
842100
842100
842100
842100
842100
842100
842100
842100
842160
ENDCHAR
STARTCHAR 2F6C
ENCODING 12140
SWIDTH 1000 0
DWIDTH 24 0
BBX 15 20 5 0
BITMAP
8004
FFFE
8004
8004
8004
8004
8004
FFFC
8004
8004
8004
8004
FFFC
8004
8004
8004
8004
8004
FFFC
8004
ENDCHAR
STARTCHAR 2F6D
ENCODING 12141
SWIDTH 1000 0
DWIDTH 24 0
BBX 21 21 1 -1
BITMAP
000180
1FFFC0
000380
020600
018800
007000
003000
001030
7FFFF8
007030
00D060
009080
019100
031200
041000
181000
201000
C01000
021000
01F000
002000
ENDCHAR
STARTCHAR 2F6E
ENCODING 12142
SWIDTH 1000 0
DWIDTH 24 0
BBX 21 22 1 -3
BITMAP
060000
070000
060000
0400C0
0FFFE0
0C2000
182000
102000
302000
202020
002070
7FFFF0
002000
007000
004800
00C800
008400
010300
030180
0400E0
180078
E00010
ENDCHAR
STARTCHAR 2F6F
ENCODING 12143
SWIDTH 1000 0
DWIDTH 24 0
BBX 21 20 1 -1
BITMAP
000010
000018
3FFFE0
008000
018000
018000
010000
030000
020000
060030
0FFFE0
0A0020
120020
220020
420020
820020
020020
020020
03FFE0
020020
ENDCHAR
STARTCHAR 2F70
ENCODING 12144
SWIDTH 1000 0
DWIDTH 24 0
BBX 20 20 1 -2
BITMAP
000080
0001C0
1FFFC0
000000
000000
000000
000020
000070
3FFF80
002000
0C2200
0E2100
082180
1820C0
102060
302060
602030
402030
842010
03E000
ENDCHAR
STARTCHAR 2F71
ENCODING 12145
SWIDTH 1000 0
DWIDTH 24 0
BBX 19 22 3 -3
BITMAP
00C000
00E000
00C000
008000
818040
FFFFE0
818040
810040
810040
822040
821040
820840
840C40
841C40
BFE640
900240
800240
800040
800040
800040
800FC0
800080
ENDCHAR
STARTCHAR 2F72
ENCODING 12146
SWIDTH 1000 0
DWIDTH 24 0
BBX 21 21 1 -1
BITMAP
000180
000FC0
01F800
3E2000
002000
002000
002000
002030
7FFFF0
007000
007000
00E800
01A600
032300
062180
0C20E0
102038
602010
802000
002000
002000
ENDCHAR
STARTCHAR 2F73
ENCODING 12147
SWIDTH 1000 0
DWIDTH 24 0
BBX 21 20 1 0
BITMAP
003000
002000
002000
202010
3FDFF8
600020
600040
C18800
010800
030400
030400
020600
060200
060300
0C0180
0800C0
1800E0
300070
600030
800000
ENDCHAR
STARTCHAR 2F74
ENCODING 12148
SWIDTH 1000 0
DWIDTH 24 0
BBX 18 19 3 0
BITMAP
00C000
008000
008000
008080
0081C0
FF7E00
000400
200700
100400
100C00
080C00
0C0800
0C0800
041800
061000
061000
063000
062000
0020C0
ENDCHAR
STARTCHAR 2F75
ENCODING 12149
SWIDTH 1000 0
DWIDTH 24 0
BBX 22 22 1 -2
BITMAP
000400
0C0700
080400
180C00
180C00
10C818
1FFFFC
341880
243080
442080
444080
844080
040080
040080
040080
040080
040080
040080
040080
040080
040F80
040000
ENDCHAR
STARTCHAR 2F76
ENCODING 12150
SWIDTH 1000 0
DWIDTH 24 0
BBX 21 21 1 -1
BITMAP
003000
002040
1020E0
0820C0
0C2180
062100
062200
062400
002030
7FFFF8
007000
00E800
01AC00
012600
022300
0421C0
182070
302038
C02000
002000
002000
ENDCHAR
STARTCHAR 2F77
ENCODING 12151
SWIDTH 1000 0
DWIDTH 24 0
BBX 20 22 1 -2
BITMAP
002000
007000
004000
00C200
198380
070600
030C00
019800
00B100
006080
008060
7FFFE0
7C2030
402030
062600
072180
0C20C0
182060
302030
602030
802000
002000
ENDCHAR
STARTCHAR 2F78
ENCODING 12152
SWIDTH 1000 0
DWIDTH 24 0
BBX 20 22 2 -2
BITMAP
0C0000
0E0000
080080
180080
1FFFC0
304000
204000
204000
404000
004060
FFFFF0
004000
004000
3040C0
204080
204080
204080
204080
204080
3FFF80
200080
200080
ENDCHAR
STARTCHAR 2F79
ENCODING 12153
SWIDTH 1000 0
DWIDTH 24 0
BBX 19 20 3 -1
BITMAP
800040
FFFFE0
800040
820E40
830C40
820C40
820C40
A6C840
9E3840
861840
871C40
859640
8D9340
883340
982040
906040
A04040
A08040
800040
8007C0
ENDCHAR
STARTCHAR 2F7A
ENCODING 12154
SWIDTH 1000 0
DWIDTH 24 0
BBX 19 21 3 -1
BITMAP
181800
0C1C00
061000
062000
062180
FFFFC0
008000
008000
008000
008300
3FFC00
008000
008000
008040
0080E0
FFFF00
008000
008000
008000
008000
008000
ENDCHAR
STARTCHAR 2F7B
ENCODING 12155
SWIDTH 1000 0
DWIDTH 24 0
BBX 20 20 2 -1
BITMAP
008020
FFFFF0
008020
008020
409020
308C20
108620
188620
188220
008020
0281A0
048320
188620
309820
E0B020
409020
008020
008020
008420
0F83E0
ENDCHAR
STARTCHAR 2F7C
ENCODING 12156
SWIDTH 1000 0
DWIDTH 24 0
BBX 19 21 2 0
BITMAP
018000
010180
010300
011E00
3FFE00
010C00
011800
011800
013060
7ECF80
00C000
018200
030700
071C00
196000
318080
C10080
010080
010080
0101C0
00FF80
ENDCHAR
STARTCHAR 2F7D
ENCODING 12157
SWIDTH 1000 0
DWIDTH 24 0
BBX 21 21 2 -2
BITMAP
000010
000018
FFFFE0
004000
00C000
008020
7FFFF0
410820
410820
410820
410820
410820
410820
410820
410820
410820
410820
410820
410BE0
4108E0
400000
ENDCHAR
STARTCHAR 2F7E
ENCODING 12158
SWIDTH 1000 0
DWIDTH 24 0
BBX 21 21 1 -1
BITMAP
003000
002000
0027C0
00FC00
7F2000
002000
0020C0
1FFFC0
002000
002000
002030
3FFFC0
00E800
01AC00
032600
062380
0C20C0
302078
402010
802000
002000
ENDCHAR
STARTCHAR 2F7F
ENCODING 12159
SWIDTH 1000 0
DWIDTH 24 0
BBX 20 21 2 -1
BITMAP
000060
FFFFF0
080200
080200
080200
080200
0FFE00
080200
080200
080200
0FFE00
080200
080200
080200
0803E0
0FFE00
FF0200
800200
000200
000200
000200
ENDCHAR
STARTCHAR 2F80
ENCODING 12160
SWIDTH 1000 0
DWIDTH 24 0
BBX 21 21 2 -1
BITMAP
006000
004000
004080
3FFFC0
004080
004090
004098
FFFFE0
004080
004080
1FFF80
004000
004040
7FFFE0
004000
004000
004030
FFFFC0
004000
004000
004000
ENDCHAR
STARTCHAR 2F81
ENCODING 12161
SWIDTH 1000 0
DWIDTH 24 0
BBX 19 22 3 -2
BITMAP
00E000
00C000
00C000
008040
FFFFE0
808040
81C040
813840
830C40
868740
88E340
B08040
80C040
81B040
811C40
820640
8C0640
B00040
800040
800840
8007C0
800000
ENDCHAR
STARTCHAR 2F82
ENCODING 12162
SWIDTH 1000 0
DWIDTH 24 0
BBX 18 21 4 -1
BITMAP
000180
FFFF80
810000
810000
810000
810000
810300
FEFE00
800200
800200
800200
800200
FFFE00
810200
810000
810000
810000
8100C0
FFFFC0
800000
800000
ENDCHAR
STARTCHAR 2F83
ENCODING 12163
SWIDTH 1000 0
DWIDTH 24 0
BBX 15 21 5 -1
BITMAP
0300
0200
0600
0404
FFFE
8004
8004
8004
8004
FFFC
8004
8004
8004
8004
FFFC
8004
8004
8004
8004
FFFC
8004
ENDCHAR
STARTCHAR 2F84
ENCODING 12164
SWIDTH 1000 0
DWIDTH 24 0
BBX 20 20 2 0
BITMAP
000040
000060
FFFFE0
008000
018000
010C00
020300
020180
1FFEC0
7E0060
206060
004000
004000
004180
3FFF80
004000
004000
004000
004020
004070
ENDCHAR
STARTCHAR 2F85
ENCODING 12165
SWIDTH 1000 0
DWIDTH 24 0
BBX 17 21 4 -1
BITMAP
030000
0F8000
380100
E07F80
800100
800100
800100
800100
800100
860100
FE7F00
800100
800100
800100
800100
800100
800100
800100
FFFF00
800100
800100
ENDCHAR
STARTCHAR 2F86
ENCODING 12166
SWIDTH 1000 0
DWIDTH 24 0
BBX 19 20 3 -2
BITMAP
000200
003F00
07C000
F88000
008000
008040
008060
FFFF80
008000
008000
008000
208180
3F7F00
200100
200100
200100
200100
200100
3FFF00
200100
ENDCHAR
STARTCHAR 2F87
ENCODING 12167
SWIDTH 1000 0
DWIDTH 24 0
BBX 21 21 2 -2
BITMAP
0600C0
0C0080
0C0080
0C4080
0FE090
185FF8
184080
10CC80
309880
2C9880
279880
471090
811098
031FF8
021080
043080
0C0080
080080
100080
200080
400080
ENDCHAR
STARTCHAR 2F88
ENCODING 12168
SWIDTH 1000 0
DWIDTH 24 0
BBX 19 20 3 -1
BITMAP
00C000
018000
110300
1EFE00
110200
118200
10C200
10C200
104240
100260
FFFF80
10C200
108200
108200
108200
208200
208200
400200
404200
803E00
ENDCHAR
STARTCHAR 2F89
ENCODING 12169
SWIDTH 1000 0
DWIDTH 24 0
BBX 20 21 2 -1
BITMAP
100100
1FFF80
100100
100100
100100
1FFF00
100100
100100
100100
1FFF00
108100
1040E0
106180
102300
101600
101C00
10EE00
1F0380
F801E0
800070
800000
ENDCHAR
STARTCHAR 2F8A
ENCODING 12170
SWIDTH 1000 0
DWIDTH 24 0
BBX 20 19 2 1
BITMAP
038000
060400
05FE00
080800
101000
102040
3FFFE0
502040
902040
102040
102040
102040
1FDFC0
100000
100020
100020
100020
100030
1FFFF0
ENDCHAR
STARTCHAR 2F8B
ENCODING 12171
SWIDTH 1000 0
DWIDTH 24 0
BBX 21 22 2 -1
BITMAP
0C0180
080100
080100
080100
C99918
891110
891110
891110
891110
891110
891110
891110
891110
FF1FF0
891110
881100
100100
100100
300100
200100
400100
800100
ENDCHAR
STARTCHAR 2F8C
ENCODING 12172
SWIDTH 1000 0
DWIDTH 24 0
BBX 21 22 1 -2
BITMAP
003000
002000
002060
003FE0
002000
002000
1FFFF8
100030
106060
104040
104020
104070
104FC0
17F000
104000
104020
204020
204020
204020
407FF0
400000
800000
ENDCHAR
STARTCHAR 2F8D
ENCODING 12173
SWIDTH 1000 0
DWIDTH 24 0
BBX 20 21 2 -1
BITMAP
006000
004000
004000
004000
004040
3FFFE0
204040
204040
204040
204040
204040
3FFFC0
204040
204040
004200
004180
004040
004060
FFFFA0
FC0030
800010
ENDCHAR
STARTCHAR 2F8E
ENCODING 12174
SWIDTH 1000 0
DWIDTH 24 0
BBX 22 20 1 0
BITMAP
006000
007000
006000
004000
108020
1FFFF0
108420
108420
108420
108420
108420
108420
108420
108420
108420
108420
108420
108420
10842C
FFFFFC
ENDCHAR
STARTCHAR 2F8F
ENCODING 12175
SWIDTH 1000 0
DWIDTH 24 0
BBX 21 21 1 -1
BITMAP
060000
0D0030
083FC0
180000
220000
470000
840000
0C0018
08FFE0
1C0080
380080
280080
480080
880080
080080
080080
080080
080080
081080
080F80
080000
ENDCHAR
STARTCHAR 2F90
ENCODING 12176
SWIDTH 1000 0
DWIDTH 24 0
BBX 21 21 1 -1
BITMAP
003000
002000
002000
002030
FFFFF8
006000
00E000
019070
011060
0208C0
060980
0A0E00
320400
420600
820300
020180
020CC0
03F060
3F0038
380010
200000
ENDCHAR
STARTCHAR 2F91
ENCODING 12177
SWIDTH 1000 0
DWIDTH 24 0
BBX 21 18 2 0
BITMAP
000030
FFFFF8
020800
020800
020800
020820
7FFFF0
420820
420820
420820
420820
420820
420820
43F820
420820
400020
400020
400020
ENDCHAR
STARTCHAR 2F92
ENCODING 12178
SWIDTH 1000 0
DWIDTH 24 0
BBX 21 20 2 -1
BITMAP
100080
1FFFC0
100080
100080
1FFF80
100080
100080
100080
1FFF80
100080
100080
100080
1FFF80
131000
031000
021010
061010
0C1010
181038
E00FF0
ENDCHAR
STARTCHAR 2F93
ENCODING 12179
SWIDTH 1000 0
DWIDTH 24 0
BBX 19 21 2 -1
BITMAP
038000
060800
07FC00
0C1800
081000
102040
3FFFE0
702040
502040
902040
1FFFC0
102040
102040
102040
102040
1FDFC0
100040
200040
200040
401FC0
800180
ENDCHAR
STARTCHAR 2F94
ENCODING 12180
SWIDTH 1000 0
DWIDTH 24 0
BBX 20 21 2 -2
BITMAP
000100
000100
1FFF80
000000
000060
FFFFF0
000000
000180
1FFF80
000000
000000
000180
0FFE00
000000
1000C0
1FFF80
100080
100080
100080
100080
1FFF80
ENDCHAR
STARTCHAR 2F95
ENCODING 12181
SWIDTH 1000 0
DWIDTH 24 0
BBX 20 20 2 -1
BITMAP
070400
040300
0C0180
1860C0
30E060
60D060
019800
030C00
060700
0C0380
1801E0
6FFF30
880100
080100
080100
080100
080100
0FFF00
080100
080100
ENDCHAR
STARTCHAR 2F96
ENCODING 12182
SWIDTH 1000 0
DWIDTH 24 0
BBX 20 20 2 0
BITMAP
000060
FFFFF0
000000
000000
000000
1000C0
1FFF80
100080
100080
100080
100080
1FFF80
100080
000000
0C0300
060600
030600
030C00
030830
FFFFF0
ENDCHAR
STARTCHAR 2F97
ENCODING 12183
SWIDTH 1000 0
DWIDTH 24 0
BBX 20 21 2 -2
BITMAP
000020
000030
FFFFF0
00D000
019000
031040
048870
18C8C0
60C980
032700
062400
0C2600
307200
C0D300
019180
0610C0
0C1060
301070
401030
822000
01E000
ENDCHAR
STARTCHAR 2F98
ENCODING 12184
SWIDTH 1000 0
DWIDTH 24 0
BBX 15 21 4 -1
BITMAP
0070
00C0
0300
0CC4
706E
1C78
0660
07C0
0740
1860
E0F0
0198
0318
0C3C
30C4
4184
0304
0C0C
301C
01F8
0020
ENDCHAR
STARTCHAR 2F99
ENCODING 12185
SWIDTH 1000 0
DWIDTH 24 0
BBX 20 21 2 -1
BITMAP
100080
1FFFC0
100080
100080
100080
1FFF80
100080
100080
100080
1FFF80
100080
100080
100080
1FFF80
100080
020800
070700
0C00C0
180070
600030
800000
ENDCHAR
STARTCHAR 2F9A
ENCODING 12186
SWIDTH 1000 0
DWIDTH 24 0
BBX 20 21 2 -2
BITMAP
007000
004000
004000
004080
7FFFC0
004000
004000
004020
004070
FFBF80
010A00
190900
310980
2308C0
630840
420860
820820
860800
0C0800
19F800
303800
ENDCHAR
STARTCHAR 2F9B
ENCODING 12187
SWIDTH 1000 0
DWIDTH 24 0
BBX 20 20 2 -1
BITMAP
006000
004000
004000
004180
1FFE00
004000
004000
004060
FFFFE0
004000
004000
0C4000
184180
187E00
184000
344000
224000
61C000
40F010
801FF0
ENDCHAR
STARTCHAR 2F9C
ENCODING 12188
SWIDTH 1000 0
DWIDTH 24 0
BBX 20 20 2 -1
BITMAP
100080
1FFFC0
100080
100080
100080
100080
100080
100080
1FFF80
002000
002000
1C2040
182060
183F80
182000
262000
232000
40E000
C07800
800FF0
ENDCHAR
STARTCHAR 2F9D
ENCODING 12189
SWIDTH 1000 0
DWIDTH 24 0
BBX 21 22 2 -1
BITMAP
006000
00C000
008100
0FFF80
080100
080100
0FFF00
080110
080118
080130
0FFF60
0801C0
080780
1FFB00
780700
401900
007100
01C100
070100
380100
C01F00
000200
ENDCHAR
STARTCHAR 2F9E
ENCODING 12190
SWIDTH 1000 0
DWIDTH 24 0
BBX 20 20 2 -1
BITMAP
006000
004000
004060
7FFF80
004000
2040C0
3FFF80
204080
204080
3FFF80
204080
204080
3FFF80
204080
004020
004070
FFFF80
004000
004000
004000
ENDCHAR
STARTCHAR 2F9F
ENCODING 12191
SWIDTH 1000 0
DWIDTH 24 0
BBX 19 21 2 -1
BITMAP
006000
004000
004000
0040C0
3FBF00
040E00
060C00
030800
031800
031060
FCEF80
004000
004000
0040C0
FFFFE0
004000
004000
004000
004000
004000
004000
ENDCHAR
STARTCHAR 2FA0
ENCODING 12192
SWIDTH 1000 0
DWIDTH 24 0
BBX 21 21 1 -1
BITMAP
100060
1FFFF0
100000
100000
100180
13FFC0
100000
100000
100030
1FFFF0
111000
111040
1108E0
110980
210700
210600
210300
2139C0
4FC078
4E0030
880000
ENDCHAR
STARTCHAR 2FA1
ENCODING 12193
SWIDTH 1000 0
DWIDTH 24 0
BBX 20 21 2 -2
BITMAP
000080
0007C0
003C00
07C000
7803C0
001E00
01E000
3E00E0
000780
00F800
3F3000
402000
042000
0E20C0
0C3FE0
082000
1C2000
132000
31A000
607000
C00FF0
ENDCHAR
STARTCHAR 2FA2
ENCODING 12194
SWIDTH 1000 0
DWIDTH 24 0
BBX 19 20 4 0
BITMAP
000600
3FFC00
200400
200400
3FFC00
200400
000000
800180
FFFF00
810100
810100
810100
810100
FEFF00
800040
800040
800040
8000C0
8003E0
7FFFC0
ENDCHAR
STARTCHAR 2FA3
ENCODING 12195
SWIDTH 1000 0
DWIDTH 24 0
BBX 21 22 1 -2
BITMAP
000010
000018
FFFFF8
008800
008800
008800
208830
3FFFE0
208820
208920
210920
2108A0
2209A0
240FA0
280020
200020
3FFFE0
200020
200020
200020
3FFFE0
200020
ENDCHAR
STARTCHAR 2FA4
ENCODING 12196
SWIDTH 1000 0
DWIDTH 24 0
BBX 21 21 1 -2
BITMAP
000180
000FC0
01F000
3E2080
1021C0
082180
042100
062200
062400
002030
3FFFC0
00E800
00AC00
01A600
022300
0421C0
1820F0
302038
C02000
002000
002000
ENDCHAR
STARTCHAR 2FA5
ENCODING 12197
SWIDTH 1000 0
DWIDTH 24 0
BBX 20 20 2 0
BITMAP
000080
1FFFC0
104080
104080
104080
104080
1FFF80
104080
104080
104080
1FFF80
104080
104000
004000
0040C0
1FFF00
004000
004020
004030
FFFFF0
ENDCHAR
STARTCHAR 2FA6
ENCODING 12198
SWIDTH 1000 0
DWIDTH 24 0
BBX 21 21 1 0
BITMAP
003000
006000
005000
00C800
018400
010200
020180
0406C0
0BFF70
102038
202008
C02000
002060
1FFF80
082180
0C21C0
062100
062300
022200
002030
7FFFF0
ENDCHAR
STARTCHAR 2FA7
ENCODING 12199
SWIDTH 1000 0
DWIDTH 24 0
BBX 21 21 1 -1
BITMAP
0400E0
07FF00
040000
040180
07FE00
040000
040180
07FFC0
040000
040018
FFFFF8
042000
0420E0
041180
040B00
040C00
040600
05F380
7F00F0
700038
400000
ENDCHAR
STARTCHAR 2FA8
ENCODING 12200
SWIDTH 1000 0
DWIDTH 24 0
BBX 19 21 3 -1
BITMAP
020040
FF1FE0
821040
821040
FE1FC0
821040
821040
FE1FC0
821040
820040
800040
800040
800040
800040
800040
800040
800040
800040
800040
8003C0
800000
ENDCHAR
STARTCHAR 2FA9
ENCODING 12201
SWIDTH 1000 0
DWIDTH 24 0
BBX 20 22 2 -2
BITMAP
00C000
008000
008100
1FFF80
100100
100100
100100
1FFF00
100000
1000C0
1FFF80
100080
100080
1FFF80
104080
004020
004030
FFFFC0
004000
004000
004000
004000
ENDCHAR
STARTCHAR 2FAA
ENCODING 12202
SWIDTH 1000 0
DWIDTH 24 0
BBX 21 22 2 -2
BITMAP
006000
004000
004080
3FFFC0
004080
004090
FFFFF8
004080
004080
004080
1FFF80
6060E0
1850C0
0C5980
044E00
014600
0E4300
3841C0
E040F0
804030
07C000
008000
ENDCHAR
STARTCHAR 2FAB
ENCODING 12203
SWIDTH 1000 0
DWIDTH 24 0
BBX 22 21 1 -1
BITMAP
038700
060600
040400
0C0400
080830
0FFFC0
180800
180800
280860
4FFFF0
880800
080800
080860
0FFFF0
080800
080800
080800
080818
0FFFFC
080000
080000
ENDCHAR
STARTCHAR 2FAC
ENCODING 12204
SWIDTH 1000 0
DWIDTH 24 0
BBX 20 20 2 -1
BITMAP
000030
FFFFC0
004000
004000
004030
7FFFE0
404020
584C20
464720
464320
404020
404020
4C4C20
464720
464320
404020
404020
404420
4043E0
400000
ENDCHAR
STARTCHAR 2FAD
ENCODING 12205
SWIDTH 1000 0
DWIDTH 24 0
BBX 19 22 3 -2
BITMAP
008000
00C000
008180
7FFE00
008300
7FFF80
008000
008060
FF7F80
100200
1FFF00
108200
108200
108200
108200
1FFE00
100200
100200
100200
100200
107E00
100000
ENDCHAR
STARTCHAR 2FAE
ENCODING 12206
SWIDTH 1000 0
DWIDTH 24 0
BBX 21 22 1 -2
BITMAP
018600
010400
010400
010400
010418
FF07F8
010400
010400
010400
010430
3F07C0
010400
011400
01E400
1F0418
F107E0
820400
060400
040400
180400
200400
400000
ENDCHAR
STARTCHAR 2FAF
ENCODING 12207
SWIDTH 1000 0
DWIDTH 24 0
BBX 22 21 1 -1
BITMAP
000008
FFFFFC
006000
006000
004000
00C018
3F3FF0
210410
210410
210410
21FC10
210410
210410
210410
21FC10
210410
210410
210410
210410
3EFBF0
200010
ENDCHAR
STARTCHAR 2FB0
ENCODING 12208
SWIDTH 1000 0
DWIDTH 24 0
BBX 21 22 1 -2
BITMAP
010200
018300
010230
3FFFC0
010200
010200
01FE00
012200
002040
1FFFE0
102040
102040
102040
1FFFC0
102040
002018
FFFFF8
002000
002000
002000
002000
002000
ENDCHAR
STARTCHAR 2FB1
ENCODING 12209
SWIDTH 1000 0
DWIDTH 24 0
BBX 21 21 1 -1
BITMAP
007000
004180
0FFF00
008110
008118
3F7EE0
000080
07FFC0
040080
040080
07FF80
040880
000860
0FFFE0
080800
080810
FFFFF8
000800
000800
000800
000800
ENDCHAR
STARTCHAR 2FB2
ENCODING 12210
SWIDTH 1000 0
DWIDTH 24 0
BBX 19 18 3 1
BITMAP
031800
021000
021000
021060
FE1F80
021000
021000
0210C0
7E1F00
021000
021000
0210C0
FE1FE0
021000
021000
021000
021000
021060
ENDCHAR
STARTCHAR 2FB3
ENCODING 12211
SWIDTH 1000 0
DWIDTH 24 0
BBX 20 22 2 -1
BITMAP
007000
004000
0040C0
3FFFE0
000000
040700
020600
030C20
030830
FFFFF0
000000
080100
0FFF80
080100
080100
080100
0FFF00
080100
080100
0FFF00
080100
080100
ENDCHAR
STARTCHAR 2FB4
ENCODING 12212
SWIDTH 1000 0
DWIDTH 24 0
BBX 21 21 1 -2
BITMAP
000018
3FFFE0
006000
004040
0FFFE0
080040
080040
080040
0FFFC0
080040
080040
0FFFC0
080040
080040
080040
0FFFC0
080040
038700
0701E0
1C0038
E00018
ENDCHAR
STARTCHAR 2FB5
ENCODING 12213
SWIDTH 1000 0
DWIDTH 24 0
BBX 22 21 1 -1
BITMAP
000060
1FFFC0
100040
101E40
17E040
102040
102040
102240
13FF60
122260
122260
122260
13FE60
222224
222024
202224
202334
402F14
4FF19C
88008C
800004
ENDCHAR
STARTCHAR 2FB6
ENCODING 12214
SWIDTH 1000 0
DWIDTH 24 0
BBX 22 21 1 -1
BITMAP
000200
3FFF00
000230
012360
03B3C0
1C2130
642198
0420C8
042078
042238
7FFF00
042230
042260
0423C0
082170
082110
182188
1020C8
202078
40201C
800000
ENDCHAR
STARTCHAR 2FB7
ENCODING 12215
SWIDTH 1000 0
DWIDTH 24 0
BBX 22 22 1 -1
BITMAP
003800
007000
004800
00C400
01BB00
0221C0
0420F0
0FFFFC
340088
C40080
07FF80
040080
040080
07FFC0
0420E0
0410C0
040980
040600
041B00
07E1E0
3E0078
200000
ENDCHAR
STARTCHAR 2FB8
ENCODING 12216
SWIDTH 1000 0
DWIDTH 24 0
BBX 21 21 2 -1
BITMAP
0C0300
060600
030410
030838
FCF7C0
00C000
00C000
1080C0
1F7F80
100080
100080
1FFF80
100080
100080
100080
1FFF80
100080
100080
1FFF80
100080
100080
ENDCHAR
STARTCHAR 2FB9
ENCODING 12217
SWIDTH 1000 0
DWIDTH 24 0
BBX 22 20 1 -2
BITMAP
000080
007FC0
3FA000
002000
002018
3FFFE0
00E800
01A600
062180
0C20F0
30203C
C00060
0FFFC0
080040
080040
0FFFC0
080040
080040
080040
0FFFC0
ENDCHAR
STARTCHAR 2FBA
ENCODING 12218
SWIDTH 1000 0
DWIDTH 24 0
BBX 20 21 2 -1
BITMAP
1000C0
1FFFE0
102000
102080
1FFFC0
102000
102000
102080
1FFFC0
102000
102000
102020
1FFFF0
100020
008C20
244620
246260
262060
462040
C60FC0
000100
ENDCHAR
STARTCHAR 2FBB
ENCODING 12219
SWIDTH 1000 0
DWIDTH 24 0
BBX 22 22 1 -1
BITMAP
040080
07FFC0
040080
040080
043F80
042080
042080
242088
3BDF7C
600090
E7FFC0
C40080
040080
07FF80
040080
040080
07FF80
040080
040080
040080
040F80
040000
ENDCHAR
STARTCHAR 2FBC
ENCODING 12220
SWIDTH 1000 0
DWIDTH 24 0
BBX 20 22 2 -2
BITMAP
007000
006000
006030
FFFFF0
000000
000300
07FE00
040200
040200
07FE00
000020
7FFFF0
400020
400420
43FE20
420420
420420
43FC20
420420
400420
4003E0
400000
ENDCHAR
STARTCHAR 2FBD
ENCODING 12221
SWIDTH 1000 0
DWIDTH 24 0
BBX 21 20 1 -1
BITMAP
104060
1FE070
1000C0
108180
1FC300
100600
100838
10C060
1F00C0
100180
106300
FFF610
180838
190030
108060
1040C0
17E180
7C6300
602C00
401000
ENDCHAR
STARTCHAR 2FBE
ENCODING 12222
SWIDTH 1000 0
DWIDTH 24 0
BBX 19 21 3 -1
BITMAP
C30360
9C3C40
880840
8A0A40
9C3C40
880840
8B0B40
BF7F40
800040
800040
800040
800040
800040
800040
800040
800040
800040
800040
800840
8007C0
800000
ENDCHAR
STARTCHAR 2FBF
ENCODING 12223
SWIDTH 1000 0
DWIDTH 24 0
BBX 19 21 3 -1
BITMAP
020000
C18C60
909840
8C3040
B36640
98C340
89B140
820C40
8CC640
B06040
806040
FFFFC0
800040
300000
200780
203C00
27C000
380040
200040
200060
1FFFE0
ENDCHAR
ENDFONT
